<mxfile host="app.diagrams.net" modified="2022-04-27T13:50:35.051Z" agent="5.0 (Windows NT 10.0; Win64; x64) AppleWebKit/537.36 (KHTML, like Gecko) Chrome/100.0.4896.127 Safari/537.36" etag="C9Qz24tL9yZ12gcBQSnS" version="17.4.6" type="github">
  <diagram id="2l0iWTKEi1PpRiSTDOYn" name="Page-1">
    <mxGraphModel dx="1988" dy="1232" grid="1" gridSize="10" guides="1" tooltips="1" connect="1" arrows="1" fold="1" page="1" pageScale="1" pageWidth="850" pageHeight="1100" math="0" shadow="0">
      <root>
        <mxCell id="0" />
        <mxCell id="1" parent="0" />
        <mxCell id="EpxnI0TyvXHU5322iV-h-2" value="&lt;span style=&quot;color: rgb(168 , 168 , 168) ; font-family: &amp;#34;helvetica&amp;#34; ; font-size: 40px ; font-style: normal ; font-weight: 400 ; letter-spacing: normal ; text-align: center ; text-indent: 0px ; text-transform: none ; word-spacing: 0px ; display: inline ; float: none&quot;&gt;The 100 Most-Spoken Languages in the World&lt;/span&gt;" style="shape=step;perimeter=stepPerimeter;whiteSpace=wrap;html=1;fixedSize=1;fontSize=40;fillColor=#000000;" parent="1" vertex="1">
          <mxGeometry x="-60" y="40" width="890" height="60" as="geometry" />
        </mxCell>
        <mxCell id="EpxnI0TyvXHU5322iV-h-3" value="" style="ellipse;whiteSpace=wrap;html=1;aspect=fixed;labelBackgroundColor=none;fontSize=40;fontColor=#A8A8A8;fillColor=#A8A8A8;strokeColor=none;" parent="1" vertex="1">
          <mxGeometry x="-90" y="180" width="130" height="130" as="geometry" />
        </mxCell>
        <mxCell id="EpxnI0TyvXHU5322iV-h-4" value="" style="ellipse;whiteSpace=wrap;html=1;strokeWidth=2;fillWeight=2;hachureGap=8;fillColor=#000000;fillStyle=dots;sketch=1;labelBackgroundColor=none;fontSize=40;fontColor=#A8A8A8;strokeColor=none;" parent="1" vertex="1">
          <mxGeometry x="-62.5" y="210" width="75" height="70" as="geometry" />
        </mxCell>
        <mxCell id="EpxnI0TyvXHU5322iV-h-5" value="&lt;font color=&quot;#000000&quot; style=&quot;font-size: 20px&quot;&gt;Total Speakers&lt;/font&gt;" style="text;html=1;align=center;verticalAlign=middle;resizable=0;points=[];autosize=1;strokeColor=none;fillColor=none;fontSize=40;fontColor=#A8A8A8;" parent="1" vertex="1">
          <mxGeometry x="100" y="160" width="150" height="60" as="geometry" />
        </mxCell>
        <mxCell id="EpxnI0TyvXHU5322iV-h-6" value="Native Speakers" style="text;html=1;align=center;verticalAlign=middle;resizable=0;points=[];autosize=1;strokeColor=none;fillColor=none;fontSize=20;fontColor=#000000;" parent="1" vertex="1">
          <mxGeometry x="110" y="250" width="160" height="30" as="geometry" />
        </mxCell>
        <mxCell id="EpxnI0TyvXHU5322iV-h-7" value="" style="endArrow=none;html=1;rounded=0;fontSize=20;fontColor=#000000;exitX=0.433;exitY=0.857;exitDx=0;exitDy=0;exitPerimeter=0;" parent="1" source="EpxnI0TyvXHU5322iV-h-4" edge="1">
          <mxGeometry width="50" height="50" relative="1" as="geometry">
            <mxPoint x="340" y="450" as="sourcePoint" />
            <mxPoint x="110" y="270" as="targetPoint" />
          </mxGeometry>
        </mxCell>
        <mxCell id="EpxnI0TyvXHU5322iV-h-8" value="" style="endArrow=none;html=1;rounded=0;fontSize=20;fontColor=#000000;entryX=1;entryY=0;entryDx=0;entryDy=0;exitX=0.067;exitY=0.667;exitDx=0;exitDy=0;exitPerimeter=0;" parent="1" source="EpxnI0TyvXHU5322iV-h-5" target="EpxnI0TyvXHU5322iV-h-3" edge="1">
          <mxGeometry width="50" height="50" relative="1" as="geometry">
            <mxPoint x="90" y="199" as="sourcePoint" />
            <mxPoint x="390" y="400" as="targetPoint" />
          </mxGeometry>
        </mxCell>
        <mxCell id="EpxnI0TyvXHU5322iV-h-10" value="1.&lt;font color=&quot;#a8a8a8&quot;&gt;1.&lt;/font&gt;" style="rounded=0;whiteSpace=wrap;html=1;labelBackgroundColor=none;fontSize=20;fontColor=#000000;fillColor=#000000;" parent="1" vertex="1">
          <mxGeometry x="-30" y="360" width="50" height="30" as="geometry" />
        </mxCell>
        <mxCell id="EpxnI0TyvXHU5322iV-h-11" value="&lt;font color=&quot;#000000&quot;&gt;LANGUAGE&lt;/font&gt;" style="text;html=1;align=center;verticalAlign=middle;resizable=0;points=[];autosize=1;strokeColor=none;fillColor=none;fontSize=20;fontColor=#A8A8A8;" parent="1" vertex="1">
          <mxGeometry x="40" y="364" width="130" height="30" as="geometry" />
        </mxCell>
        <mxCell id="EpxnI0TyvXHU5322iV-h-12" value="Total Speakers Native Speakers" style="text;html=1;align=center;verticalAlign=middle;resizable=0;points=[];autosize=1;strokeColor=none;fillColor=none;fontSize=20;fontColor=#000000;" parent="1" vertex="1">
          <mxGeometry x="40" y="394" width="300" height="30" as="geometry" />
        </mxCell>
        <mxCell id="EpxnI0TyvXHU5322iV-h-13" value="Rank by Number of Total Speakers" style="text;html=1;align=center;verticalAlign=middle;resizable=0;points=[];autosize=1;strokeColor=none;fillColor=none;fontSize=20;fontColor=#000000;" parent="1" vertex="1">
          <mxGeometry x="-30" y="490" width="330" height="30" as="geometry" />
        </mxCell>
        <mxCell id="EpxnI0TyvXHU5322iV-h-14" value="" style="endArrow=none;html=1;rounded=0;fontSize=20;fontColor=#000000;entryX=0.5;entryY=1;entryDx=0;entryDy=0;strokeWidth=2;" parent="1" target="EpxnI0TyvXHU5322iV-h-10" edge="1">
          <mxGeometry width="50" height="50" relative="1" as="geometry">
            <mxPoint x="-5" y="490" as="sourcePoint" />
            <mxPoint x="390" y="400" as="targetPoint" />
          </mxGeometry>
        </mxCell>
        <mxCell id="EpxnI0TyvXHU5322iV-h-15" value="" style="endArrow=none;html=1;rounded=0;fontSize=20;fontColor=#000000;strokeWidth=2;" parent="1" edge="1">
          <mxGeometry width="50" height="50" relative="1" as="geometry">
            <mxPoint x="-10" y="350" as="sourcePoint" />
            <mxPoint x="340" y="350" as="targetPoint" />
          </mxGeometry>
        </mxCell>
        <mxCell id="EpxnI0TyvXHU5322iV-h-16" value="&lt;font color=&quot;#ffffff&quot;&gt;Indo-European&lt;/font&gt;" style="shape=step;perimeter=stepPerimeter;whiteSpace=wrap;html=1;fixedSize=1;labelBackgroundColor=none;fontSize=20;fontColor=#000000;fillColor=#000000;" parent="1" vertex="1">
          <mxGeometry x="-120" y="935" width="190" height="30" as="geometry" />
        </mxCell>
        <mxCell id="EpxnI0TyvXHU5322iV-h-17" value="&lt;font style=&quot;font-size: 30px&quot; color=&quot;#000000&quot;&gt;Germanic&lt;/font&gt;" style="text;html=1;align=center;verticalAlign=middle;resizable=0;points=[];autosize=1;strokeColor=none;fillColor=none;fontSize=20;fontColor=#FFFFFF;" parent="1" vertex="1">
          <mxGeometry x="200" y="810" width="150" height="30" as="geometry" />
        </mxCell>
        <mxCell id="EpxnI0TyvXHU5322iV-h-18" value="Italic" style="text;html=1;align=center;verticalAlign=middle;resizable=0;points=[];autosize=1;strokeColor=none;fillColor=none;fontSize=30;fontColor=#000000;" parent="1" vertex="1">
          <mxGeometry x="230" y="1300" width="80" height="40" as="geometry" />
        </mxCell>
        <mxCell id="EpxnI0TyvXHU5322iV-h-19" value="West Germanic" style="text;html=1;align=center;verticalAlign=middle;resizable=0;points=[];autosize=1;strokeColor=none;fillColor=none;fontSize=30;fontColor=#000000;" parent="1" vertex="1">
          <mxGeometry x="400" y="720" width="220" height="40" as="geometry" />
        </mxCell>
        <mxCell id="EpxnI0TyvXHU5322iV-h-20" value="North Germanic" style="text;html=1;align=center;verticalAlign=middle;resizable=0;points=[];autosize=1;strokeColor=none;fillColor=none;fontSize=30;fontColor=#000000;" parent="1" vertex="1">
          <mxGeometry x="440" y="890" width="230" height="40" as="geometry" />
        </mxCell>
        <mxCell id="EpxnI0TyvXHU5322iV-h-26" value="Anglo-Frisian" style="text;html=1;align=center;verticalAlign=middle;resizable=0;points=[];autosize=1;strokeColor=none;fillColor=none;fontSize=30;fontColor=#000000;" parent="1" vertex="1">
          <mxGeometry x="720" y="650" width="190" height="40" as="geometry" />
        </mxCell>
        <mxCell id="EpxnI0TyvXHU5322iV-h-27" value="High German" style="text;html=1;align=center;verticalAlign=middle;resizable=0;points=[];autosize=1;strokeColor=none;fillColor=none;fontSize=30;fontColor=#000000;" parent="1" vertex="1">
          <mxGeometry x="740" y="730" width="190" height="40" as="geometry" />
        </mxCell>
        <mxCell id="EpxnI0TyvXHU5322iV-h-29" value="Low Franconian" style="text;html=1;align=center;verticalAlign=middle;resizable=0;points=[];autosize=1;strokeColor=none;fillColor=none;fontSize=30;fontColor=#000000;" parent="1" vertex="1">
          <mxGeometry x="730" y="830" width="230" height="40" as="geometry" />
        </mxCell>
        <mxCell id="EpxnI0TyvXHU5322iV-h-30" value="Anglic" style="text;html=1;align=center;verticalAlign=middle;resizable=0;points=[];autosize=1;strokeColor=none;fillColor=none;fontSize=30;fontColor=#000000;" parent="1" vertex="1">
          <mxGeometry x="1090" y="500" width="100" height="40" as="geometry" />
        </mxCell>
        <mxCell id="EpxnI0TyvXHU5322iV-h-31" value="GERMAN" style="text;html=1;align=center;verticalAlign=middle;resizable=0;points=[];autosize=1;strokeColor=none;fillColor=none;fontSize=30;fontColor=#000000;" parent="1" vertex="1">
          <mxGeometry x="1070" y="730" width="150" height="40" as="geometry" />
        </mxCell>
        <mxCell id="EpxnI0TyvXHU5322iV-h-32" value="DUTCH" style="text;html=1;align=center;verticalAlign=middle;resizable=0;points=[];autosize=1;strokeColor=none;fillColor=none;fontSize=30;fontColor=#000000;" parent="1" vertex="1">
          <mxGeometry x="1110" y="870" width="120" height="40" as="geometry" />
        </mxCell>
        <mxCell id="EpxnI0TyvXHU5322iV-h-33" value="ENGLISH" style="text;html=1;align=center;verticalAlign=middle;resizable=0;points=[];autosize=1;strokeColor=none;fillColor=none;fontSize=30;fontColor=#000000;" parent="1" vertex="1">
          <mxGeometry x="1590" y="110" width="150" height="40" as="geometry" />
        </mxCell>
        <mxCell id="EpxnI0TyvXHU5322iV-h-34" value="English Creole" style="text;html=1;align=center;verticalAlign=middle;resizable=0;points=[];autosize=1;strokeColor=none;fillColor=none;fontSize=30;fontColor=#000000;" parent="1" vertex="1">
          <mxGeometry x="1870" y="345" width="210" height="40" as="geometry" />
        </mxCell>
        <mxCell id="EpxnI0TyvXHU5322iV-h-35" value="Atlantic" style="text;html=1;align=center;verticalAlign=middle;resizable=0;points=[];autosize=1;strokeColor=none;fillColor=none;fontSize=30;fontColor=#000000;" parent="1" vertex="1">
          <mxGeometry x="2320" y="345" width="110" height="40" as="geometry" />
        </mxCell>
        <mxCell id="EpxnI0TyvXHU5322iV-h-36" value="Krio" style="text;html=1;align=center;verticalAlign=middle;resizable=0;points=[];autosize=1;strokeColor=none;fillColor=none;fontSize=30;fontColor=#000000;" parent="1" vertex="1">
          <mxGeometry x="2620" y="350" width="70" height="40" as="geometry" />
        </mxCell>
        <mxCell id="EpxnI0TyvXHU5322iV-h-37" value="NIGERIAN PIDGIN" style="text;html=1;align=center;verticalAlign=middle;resizable=0;points=[];autosize=1;strokeColor=none;fillColor=none;fontSize=30;fontColor=#000000;" parent="1" vertex="1">
          <mxGeometry x="2920" y="245" width="270" height="40" as="geometry" />
        </mxCell>
        <mxCell id="EpxnI0TyvXHU5322iV-h-38" value="CAMEROONIAN PIDGIN" style="text;html=1;align=center;verticalAlign=middle;resizable=0;points=[];autosize=1;strokeColor=none;fillColor=none;fontSize=30;fontColor=#000000;" parent="1" vertex="1">
          <mxGeometry x="2930" y="460" width="350" height="40" as="geometry" />
        </mxCell>
        <mxCell id="EpxnI0TyvXHU5322iV-h-39" value="" style="shape=waypoint;sketch=0;fillStyle=solid;size=6;pointerEvents=1;points=[];fillColor=none;resizable=0;rotatable=0;perimeter=centerPerimeter;snapToPoint=1;labelBackgroundColor=none;fontSize=30;fontColor=#000000;strokeWidth=2;" parent="1" vertex="1">
          <mxGeometry x="250" y="830" width="40" height="40" as="geometry" />
        </mxCell>
        <mxCell id="EpxnI0TyvXHU5322iV-h-40" value="" style="shape=waypoint;sketch=0;fillStyle=solid;size=6;pointerEvents=1;points=[];fillColor=none;resizable=0;rotatable=0;perimeter=centerPerimeter;snapToPoint=1;labelBackgroundColor=none;fontSize=30;fontColor=#000000;strokeWidth=2;" parent="1" vertex="1">
          <mxGeometry x="490" y="750" width="40" height="40" as="geometry" />
        </mxCell>
        <mxCell id="EpxnI0TyvXHU5322iV-h-41" value="" style="shape=waypoint;sketch=0;fillStyle=solid;size=6;pointerEvents=1;points=[];fillColor=none;resizable=0;rotatable=0;perimeter=centerPerimeter;snapToPoint=1;labelBackgroundColor=none;fontSize=30;fontColor=#000000;strokeWidth=2;" parent="1" vertex="1">
          <mxGeometry x="690" y="660" width="40" height="40" as="geometry" />
        </mxCell>
        <mxCell id="EpxnI0TyvXHU5322iV-h-42" value="" style="shape=waypoint;sketch=0;fillStyle=solid;size=6;pointerEvents=1;points=[];fillColor=none;resizable=0;rotatable=0;perimeter=centerPerimeter;snapToPoint=1;labelBackgroundColor=none;fontSize=30;fontColor=#000000;strokeWidth=2;" parent="1" vertex="1">
          <mxGeometry x="700" y="750" width="40" height="40" as="geometry" />
        </mxCell>
        <mxCell id="EpxnI0TyvXHU5322iV-h-43" value="" style="shape=waypoint;sketch=0;fillStyle=solid;size=6;pointerEvents=1;points=[];fillColor=none;resizable=0;rotatable=0;perimeter=centerPerimeter;snapToPoint=1;labelBackgroundColor=none;fontSize=30;fontColor=#000000;strokeWidth=2;" parent="1" vertex="1">
          <mxGeometry x="700" y="830" width="40" height="40" as="geometry" />
        </mxCell>
        <mxCell id="EpxnI0TyvXHU5322iV-h-44" value="" style="shape=waypoint;sketch=0;fillStyle=solid;size=6;pointerEvents=1;points=[];fillColor=none;resizable=0;rotatable=0;perimeter=centerPerimeter;snapToPoint=1;labelBackgroundColor=none;fontSize=30;fontColor=#000000;strokeWidth=2;" parent="1" vertex="1">
          <mxGeometry x="490" y="910" width="40" height="40" as="geometry" />
        </mxCell>
        <mxCell id="EpxnI0TyvXHU5322iV-h-45" value="" style="shape=waypoint;sketch=0;fillStyle=solid;size=6;pointerEvents=1;points=[];fillColor=none;resizable=0;rotatable=0;perimeter=centerPerimeter;snapToPoint=1;labelBackgroundColor=none;fontSize=30;fontColor=#000000;strokeWidth=2;" parent="1" vertex="1">
          <mxGeometry x="1080" y="530" width="40" height="40" as="geometry" />
        </mxCell>
        <mxCell id="EpxnI0TyvXHU5322iV-h-46" value="" style="endArrow=none;html=1;fontSize=30;fontColor=#000000;strokeWidth=2;curved=1;exitX=1;exitY=0.5;exitDx=0;exitDy=0;" parent="1" source="EpxnI0TyvXHU5322iV-h-16" target="EpxnI0TyvXHU5322iV-h-39" edge="1">
          <mxGeometry width="50" height="50" relative="1" as="geometry">
            <mxPoint x="260" y="720" as="sourcePoint" />
            <mxPoint x="310" y="670" as="targetPoint" />
            <Array as="points">
              <mxPoint x="110" y="860" />
              <mxPoint x="150" y="850" />
            </Array>
          </mxGeometry>
        </mxCell>
        <mxCell id="EpxnI0TyvXHU5322iV-h-47" value="" style="endArrow=none;html=1;fontSize=30;fontColor=#000000;strokeWidth=2;curved=1;exitX=0.542;exitY=0.722;exitDx=0;exitDy=0;exitPerimeter=0;" parent="1" source="EpxnI0TyvXHU5322iV-h-39" target="EpxnI0TyvXHU5322iV-h-40" edge="1">
          <mxGeometry width="50" height="50" relative="1" as="geometry">
            <mxPoint x="260" y="720" as="sourcePoint" />
            <mxPoint x="310" y="670" as="targetPoint" />
            <Array as="points">
              <mxPoint x="390" y="850" />
              <mxPoint x="420" y="760" />
            </Array>
          </mxGeometry>
        </mxCell>
        <mxCell id="EpxnI0TyvXHU5322iV-h-48" value="" style="endArrow=none;html=1;fontSize=30;fontColor=#000000;strokeWidth=2;curved=1;entryX=0.379;entryY=0.462;entryDx=0;entryDy=0;entryPerimeter=0;" parent="1" source="EpxnI0TyvXHU5322iV-h-39" target="EpxnI0TyvXHU5322iV-h-44" edge="1">
          <mxGeometry width="50" height="50" relative="1" as="geometry">
            <mxPoint x="550" y="810" as="sourcePoint" />
            <mxPoint x="940" y="670" as="targetPoint" />
            <Array as="points">
              <mxPoint x="390" y="860" />
              <mxPoint x="420" y="940" />
            </Array>
          </mxGeometry>
        </mxCell>
        <mxCell id="EpxnI0TyvXHU5322iV-h-49" value="" style="endArrow=none;html=1;fontSize=30;fontColor=#000000;strokeWidth=2;curved=1;" parent="1" source="EpxnI0TyvXHU5322iV-h-40" target="EpxnI0TyvXHU5322iV-h-42" edge="1">
          <mxGeometry width="50" height="50" relative="1" as="geometry">
            <mxPoint x="820" y="720" as="sourcePoint" />
            <mxPoint x="640" y="780" as="targetPoint" />
          </mxGeometry>
        </mxCell>
        <mxCell id="EpxnI0TyvXHU5322iV-h-50" value="" style="endArrow=none;html=1;fontSize=30;fontColor=#000000;strokeWidth=2;curved=1;" parent="1" source="EpxnI0TyvXHU5322iV-h-40" target="EpxnI0TyvXHU5322iV-h-41" edge="1">
          <mxGeometry width="50" height="50" relative="1" as="geometry">
            <mxPoint x="820" y="720" as="sourcePoint" />
            <mxPoint x="870" y="670" as="targetPoint" />
            <Array as="points">
              <mxPoint x="740" y="780" />
            </Array>
          </mxGeometry>
        </mxCell>
        <mxCell id="EpxnI0TyvXHU5322iV-h-52" value="" style="endArrow=none;html=1;fontSize=30;fontColor=#000000;strokeWidth=2;curved=1;entryX=0.374;entryY=0.457;entryDx=0;entryDy=0;entryPerimeter=0;" parent="1" source="EpxnI0TyvXHU5322iV-h-40" target="EpxnI0TyvXHU5322iV-h-43" edge="1">
          <mxGeometry width="50" height="50" relative="1" as="geometry">
            <mxPoint x="820" y="720" as="sourcePoint" />
            <mxPoint x="870" y="670" as="targetPoint" />
            <Array as="points">
              <mxPoint x="740" y="770" />
            </Array>
          </mxGeometry>
        </mxCell>
        <mxCell id="EpxnI0TyvXHU5322iV-h-53" value="" style="shape=waypoint;sketch=0;fillStyle=solid;size=6;pointerEvents=1;points=[];fillColor=none;resizable=0;rotatable=0;perimeter=centerPerimeter;snapToPoint=1;labelBackgroundColor=none;fontSize=30;fontColor=#000000;strokeWidth=2;" parent="1" vertex="1">
          <mxGeometry x="1190" y="750" width="40" height="40" as="geometry" />
        </mxCell>
        <mxCell id="EpxnI0TyvXHU5322iV-h-54" value="" style="endArrow=none;html=1;fontSize=30;fontColor=#000000;strokeWidth=2;curved=1;exitX=0.701;exitY=0.559;exitDx=0;exitDy=0;exitPerimeter=0;entryX=0.757;entryY=0.478;entryDx=0;entryDy=0;entryPerimeter=0;" parent="1" source="EpxnI0TyvXHU5322iV-h-42" target="EpxnI0TyvXHU5322iV-h-53" edge="1">
          <mxGeometry width="50" height="50" relative="1" as="geometry">
            <mxPoint x="820" y="720" as="sourcePoint" />
            <mxPoint x="870" y="670" as="targetPoint" />
          </mxGeometry>
        </mxCell>
        <mxCell id="EpxnI0TyvXHU5322iV-h-55" value="" style="shape=waypoint;sketch=0;fillStyle=solid;size=6;pointerEvents=1;points=[];fillColor=none;resizable=0;rotatable=0;perimeter=centerPerimeter;snapToPoint=1;labelBackgroundColor=none;fontSize=30;fontColor=#000000;strokeWidth=2;" parent="1" vertex="1">
          <mxGeometry x="1190" y="890" width="40" height="40" as="geometry" />
        </mxCell>
        <mxCell id="EpxnI0TyvXHU5322iV-h-56" value="" style="endArrow=none;html=1;fontSize=30;fontColor=#000000;strokeWidth=2;curved=1;exitX=0.721;exitY=0.58;exitDx=0;exitDy=0;exitPerimeter=0;entryX=0.435;entryY=0.777;entryDx=0;entryDy=0;entryPerimeter=0;" parent="1" source="EpxnI0TyvXHU5322iV-h-43" target="EpxnI0TyvXHU5322iV-h-55" edge="1">
          <mxGeometry width="50" height="50" relative="1" as="geometry">
            <mxPoint x="820" y="720" as="sourcePoint" />
            <mxPoint x="870" y="670" as="targetPoint" />
            <Array as="points">
              <mxPoint x="740" y="910" />
              <mxPoint x="950" y="910" />
            </Array>
          </mxGeometry>
        </mxCell>
        <mxCell id="EpxnI0TyvXHU5322iV-h-57" value="" style="endArrow=none;html=1;fontSize=30;fontColor=#000000;strokeWidth=2;curved=1;exitX=0.624;exitY=0.34;exitDx=0;exitDy=0;exitPerimeter=0;entryX=0.609;entryY=0.671;entryDx=0;entryDy=0;entryPerimeter=0;" parent="1" source="EpxnI0TyvXHU5322iV-h-41" target="EpxnI0TyvXHU5322iV-h-45" edge="1">
          <mxGeometry width="50" height="50" relative="1" as="geometry">
            <mxPoint x="820" y="720" as="sourcePoint" />
            <mxPoint x="870" y="670" as="targetPoint" />
            <Array as="points">
              <mxPoint x="730" y="600" />
              <mxPoint x="990" y="610" />
              <mxPoint x="1050" y="550" />
            </Array>
          </mxGeometry>
        </mxCell>
        <mxCell id="EpxnI0TyvXHU5322iV-h-58" value="" style="shape=waypoint;sketch=0;fillStyle=solid;size=6;pointerEvents=1;points=[];fillColor=none;resizable=0;rotatable=0;perimeter=centerPerimeter;snapToPoint=1;labelBackgroundColor=none;fontSize=30;fontColor=#000000;strokeWidth=2;" parent="1" vertex="1">
          <mxGeometry x="1495" y="384" width="40" height="40" as="geometry" />
        </mxCell>
        <mxCell id="EpxnI0TyvXHU5322iV-h-59" value="" style="endArrow=none;html=1;fontSize=30;fontColor=#000000;strokeWidth=2;curved=1;" parent="1" source="EpxnI0TyvXHU5322iV-h-45" target="EpxnI0TyvXHU5322iV-h-58" edge="1">
          <mxGeometry width="50" height="50" relative="1" as="geometry">
            <mxPoint x="1270" y="720" as="sourcePoint" />
            <mxPoint x="1320" y="670" as="targetPoint" />
            <Array as="points">
              <mxPoint x="1240" y="550" />
              <mxPoint x="1330" y="550" />
              <mxPoint x="1310" y="410" />
              <mxPoint x="1370" y="400" />
            </Array>
          </mxGeometry>
        </mxCell>
        <mxCell id="EpxnI0TyvXHU5322iV-h-60" value="" style="shape=waypoint;sketch=0;fillStyle=solid;size=6;pointerEvents=1;points=[];fillColor=none;resizable=0;rotatable=0;perimeter=centerPerimeter;snapToPoint=1;labelBackgroundColor=none;fontSize=30;fontColor=#000000;strokeWidth=2;" parent="1" vertex="1">
          <mxGeometry x="1880" y="384" width="40" height="40" as="geometry" />
        </mxCell>
        <mxCell id="EpxnI0TyvXHU5322iV-h-61" value="" style="endArrow=none;html=1;fontSize=30;fontColor=#000000;strokeWidth=2;curved=1;exitX=0.524;exitY=0.618;exitDx=0;exitDy=0;exitPerimeter=0;" parent="1" source="EpxnI0TyvXHU5322iV-h-58" target="EpxnI0TyvXHU5322iV-h-60" edge="1">
          <mxGeometry width="50" height="50" relative="1" as="geometry">
            <mxPoint x="1910" y="720" as="sourcePoint" />
            <mxPoint x="1960" y="670" as="targetPoint" />
          </mxGeometry>
        </mxCell>
        <mxCell id="EpxnI0TyvXHU5322iV-h-62" value="" style="shape=waypoint;sketch=0;fillStyle=solid;size=6;pointerEvents=1;points=[];fillColor=none;resizable=0;rotatable=0;perimeter=centerPerimeter;snapToPoint=1;labelBackgroundColor=none;fontSize=30;fontColor=#000000;strokeWidth=2;" parent="1" vertex="1">
          <mxGeometry x="2340" y="384" width="40" height="40" as="geometry" />
        </mxCell>
        <mxCell id="EpxnI0TyvXHU5322iV-h-63" value="" style="endArrow=none;html=1;fontSize=30;fontColor=#000000;strokeWidth=2;curved=1;exitX=0.708;exitY=0.546;exitDx=0;exitDy=0;exitPerimeter=0;entryX=0.423;entryY=0.539;entryDx=0;entryDy=0;entryPerimeter=0;" parent="1" source="EpxnI0TyvXHU5322iV-h-60" target="EpxnI0TyvXHU5322iV-h-62" edge="1">
          <mxGeometry width="50" height="50" relative="1" as="geometry">
            <mxPoint x="2370" y="720" as="sourcePoint" />
            <mxPoint x="2420" y="670" as="targetPoint" />
          </mxGeometry>
        </mxCell>
        <mxCell id="EpxnI0TyvXHU5322iV-h-64" value="" style="shape=waypoint;sketch=0;fillStyle=solid;size=6;pointerEvents=1;points=[];fillColor=none;resizable=0;rotatable=0;perimeter=centerPerimeter;snapToPoint=1;labelBackgroundColor=none;fontSize=30;fontColor=#000000;strokeWidth=2;" parent="1" vertex="1">
          <mxGeometry x="2630" y="385" width="40" height="40" as="geometry" />
        </mxCell>
        <mxCell id="EpxnI0TyvXHU5322iV-h-65" value="" style="endArrow=none;html=1;fontSize=30;fontColor=#000000;strokeWidth=2;curved=1;entryX=0.565;entryY=0.594;entryDx=0;entryDy=0;entryPerimeter=0;exitX=0.649;exitY=0.521;exitDx=0;exitDy=0;exitPerimeter=0;" parent="1" source="EpxnI0TyvXHU5322iV-h-64" target="EpxnI0TyvXHU5322iV-h-62" edge="1">
          <mxGeometry width="50" height="50" relative="1" as="geometry">
            <mxPoint x="2370" y="720" as="sourcePoint" />
            <mxPoint x="2420" y="670" as="targetPoint" />
          </mxGeometry>
        </mxCell>
        <mxCell id="EpxnI0TyvXHU5322iV-h-66" value="" style="endArrow=none;html=1;fontSize=30;fontColor=#000000;strokeWidth=2;curved=1;exitX=0.601;exitY=0.498;exitDx=0;exitDy=0;exitPerimeter=0;" parent="1" source="EpxnI0TyvXHU5322iV-h-64" target="EpxnI0TyvXHU5322iV-h-67" edge="1">
          <mxGeometry width="50" height="50" relative="1" as="geometry">
            <mxPoint x="2840" y="720" as="sourcePoint" />
            <mxPoint x="2750" y="440" as="targetPoint" />
            <Array as="points">
              <mxPoint x="2810" y="405" />
              <mxPoint x="2810" y="340" />
              <mxPoint x="2890" y="330" />
            </Array>
          </mxGeometry>
        </mxCell>
        <mxCell id="EpxnI0TyvXHU5322iV-h-67" value="" style="shape=waypoint;sketch=0;fillStyle=solid;size=6;pointerEvents=1;points=[];fillColor=none;resizable=0;rotatable=0;perimeter=centerPerimeter;snapToPoint=1;labelBackgroundColor=none;fontSize=30;fontColor=#000000;strokeWidth=2;" parent="1" vertex="1">
          <mxGeometry x="2920" y="315" width="40" height="40" as="geometry" />
        </mxCell>
        <mxCell id="EpxnI0TyvXHU5322iV-h-68" value="" style="shape=waypoint;sketch=0;fillStyle=solid;size=6;pointerEvents=1;points=[];fillColor=none;resizable=0;rotatable=0;perimeter=centerPerimeter;snapToPoint=1;labelBackgroundColor=none;fontSize=30;fontColor=#000000;strokeWidth=2;" parent="1" vertex="1">
          <mxGeometry x="2920" y="425" width="40" height="40" as="geometry" />
        </mxCell>
        <mxCell id="EpxnI0TyvXHU5322iV-h-69" value="" style="endArrow=none;html=1;fontSize=30;fontColor=#000000;strokeWidth=2;curved=1;exitX=0.506;exitY=0.712;exitDx=0;exitDy=0;exitPerimeter=0;entryX=0.28;entryY=0.45;entryDx=0;entryDy=0;entryPerimeter=0;" parent="1" source="EpxnI0TyvXHU5322iV-h-64" target="EpxnI0TyvXHU5322iV-h-68" edge="1">
          <mxGeometry width="50" height="50" relative="1" as="geometry">
            <mxPoint x="2840" y="720" as="sourcePoint" />
            <mxPoint x="2890" y="670" as="targetPoint" />
            <Array as="points">
              <mxPoint x="2760" y="400" />
              <mxPoint x="2810" y="400" />
              <mxPoint x="2810" y="440" />
              <mxPoint x="2890" y="450" />
            </Array>
          </mxGeometry>
        </mxCell>
        <mxCell id="EpxnI0TyvXHU5322iV-h-70" value="" style="ellipse;whiteSpace=wrap;html=1;aspect=fixed;labelBackgroundColor=none;fontSize=30;fontColor=#000000;strokeWidth=2;fillColor=#FF0000;strokeColor=none;" parent="1" vertex="1">
          <mxGeometry x="1400" y="209" width="340" height="340" as="geometry" />
        </mxCell>
        <mxCell id="EpxnI0TyvXHU5322iV-h-72" value="" style="ellipse;whiteSpace=wrap;html=1;strokeWidth=2;fillWeight=2;hachureGap=8;fillColor=#000000;fillStyle=dots;sketch=1;labelBackgroundColor=none;fontSize=30;fontColor=#000000;strokeColor=none;" parent="1" vertex="1">
          <mxGeometry x="1450" y="270" width="240" height="230" as="geometry" />
        </mxCell>
        <mxCell id="EpxnI0TyvXHU5322iV-h-74" value="" style="endArrow=none;html=1;fontSize=30;fontColor=#000000;strokeWidth=2;curved=1;entryX=0.351;entryY=0.332;entryDx=0;entryDy=0;entryPerimeter=0;startArrow=none;" parent="1" source="EpxnI0TyvXHU5322iV-h-73" target="EpxnI0TyvXHU5322iV-h-60" edge="1">
          <mxGeometry width="50" height="50" relative="1" as="geometry">
            <mxPoint x="1400" y="404" as="sourcePoint" />
            <mxPoint x="1480" y="670" as="targetPoint" />
          </mxGeometry>
        </mxCell>
        <mxCell id="EpxnI0TyvXHU5322iV-h-73" value="" style="shape=waypoint;sketch=0;fillStyle=solid;size=6;pointerEvents=1;points=[];fillColor=none;resizable=0;rotatable=0;perimeter=centerPerimeter;snapToPoint=1;labelBackgroundColor=none;fontSize=30;fontColor=#000000;strokeWidth=2;" parent="1" vertex="1">
          <mxGeometry x="1550" y="384" width="40" height="40" as="geometry" />
        </mxCell>
        <mxCell id="EpxnI0TyvXHU5322iV-h-76" value="" style="endArrow=none;html=1;fontSize=30;fontColor=#000000;strokeWidth=2;curved=1;entryDx=0;entryDy=0;entryPerimeter=0;" parent="1" target="EpxnI0TyvXHU5322iV-h-73" edge="1">
          <mxGeometry width="50" height="50" relative="1" as="geometry">
            <mxPoint x="1400" y="404" as="sourcePoint" />
            <mxPoint x="1900" y="404" as="targetPoint" />
          </mxGeometry>
        </mxCell>
        <mxCell id="EpxnI0TyvXHU5322iV-h-77" value="" style="ellipse;whiteSpace=wrap;html=1;aspect=fixed;labelBackgroundColor=none;fontSize=30;fontColor=#000000;strokeWidth=2;fillColor=#FF0000;strokeColor=none;" parent="1" vertex="1">
          <mxGeometry x="2950" y="280" width="110" height="110" as="geometry" />
        </mxCell>
        <mxCell id="EpxnI0TyvXHU5322iV-h-78" value="" style="ellipse;whiteSpace=wrap;html=1;aspect=fixed;labelBackgroundColor=none;fontSize=30;fontColor=#000000;strokeWidth=2;fillColor=#FF0000;strokeColor=none;" parent="1" vertex="1">
          <mxGeometry x="2950" y="409" width="56" height="56" as="geometry" />
        </mxCell>
        <mxCell id="EpxnI0TyvXHU5322iV-h-80" value="" style="ellipse;whiteSpace=wrap;html=1;aspect=fixed;labelBackgroundColor=none;fontSize=30;fontColor=#000000;strokeWidth=2;fillColor=#FF0000;strokeColor=none;" parent="1" vertex="1">
          <mxGeometry x="1220" y="680" width="170" height="170" as="geometry" />
        </mxCell>
        <mxCell id="EpxnI0TyvXHU5322iV-h-81" value="" style="ellipse;whiteSpace=wrap;html=1;strokeWidth=2;fillWeight=2;hachureGap=8;fillColor=#000000;fillStyle=dots;sketch=1;labelBackgroundColor=none;fontSize=30;fontColor=#000000;strokeColor=none;" parent="1" vertex="1">
          <mxGeometry x="1230" y="700" width="150" height="140" as="geometry" />
        </mxCell>
        <mxCell id="EpxnI0TyvXHU5322iV-h-82" value="" style="shape=waypoint;sketch=0;fillStyle=solid;size=6;pointerEvents=1;points=[];fillColor=none;resizable=0;rotatable=0;perimeter=centerPerimeter;snapToPoint=1;labelBackgroundColor=none;fontSize=30;fontColor=#000000;strokeWidth=2;" parent="1" vertex="1">
          <mxGeometry x="1780" y="620" width="40" height="40" as="geometry" />
        </mxCell>
        <mxCell id="EpxnI0TyvXHU5322iV-h-83" value="" style="shape=waypoint;sketch=0;fillStyle=solid;size=6;pointerEvents=1;points=[];fillColor=none;resizable=0;rotatable=0;perimeter=centerPerimeter;snapToPoint=1;labelBackgroundColor=none;fontSize=30;fontColor=#000000;strokeWidth=2;" parent="1" vertex="1">
          <mxGeometry x="2220" y="620" width="40" height="40" as="geometry" />
        </mxCell>
        <mxCell id="EpxnI0TyvXHU5322iV-h-84" value="" style="endArrow=none;html=1;fontSize=30;fontColor=#000000;strokeWidth=2;curved=1;exitX=-0.113;exitY=0.73;exitDx=0;exitDy=0;entryX=0.53;entryY=0.646;entryDx=0;entryDy=0;entryPerimeter=0;exitPerimeter=0;" parent="1" source="EpxnI0TyvXHU5322iV-h-53" target="EpxnI0TyvXHU5322iV-h-82" edge="1">
          <mxGeometry width="50" height="50" relative="1" as="geometry">
            <mxPoint x="1500" y="720" as="sourcePoint" />
            <mxPoint x="1550" y="670" as="targetPoint" />
            <Array as="points">
              <mxPoint x="1470" y="770" />
              <mxPoint x="1500" y="750" />
              <mxPoint x="1540" y="640" />
              <mxPoint x="1670" y="640" />
            </Array>
          </mxGeometry>
        </mxCell>
        <mxCell id="EpxnI0TyvXHU5322iV-h-86" value="Upper German" style="text;html=1;align=center;verticalAlign=middle;resizable=0;points=[];autosize=1;strokeColor=none;fillColor=none;fontSize=30;fontColor=#000000;" parent="1" vertex="1">
          <mxGeometry x="1680" y="640" width="210" height="40" as="geometry" />
        </mxCell>
        <mxCell id="EpxnI0TyvXHU5322iV-h-87" value="" style="endArrow=none;html=1;fontSize=30;fontColor=#000000;strokeWidth=2;curved=1;exitX=0.375;exitY=0.67;exitDx=0;exitDy=0;exitPerimeter=0;entryX=0.732;entryY=0.408;entryDx=0;entryDy=0;entryPerimeter=0;" parent="1" source="EpxnI0TyvXHU5322iV-h-82" target="EpxnI0TyvXHU5322iV-h-83" edge="1">
          <mxGeometry width="50" height="50" relative="1" as="geometry">
            <mxPoint x="2010" y="720" as="sourcePoint" />
            <mxPoint x="2060" y="670" as="targetPoint" />
          </mxGeometry>
        </mxCell>
        <mxCell id="EpxnI0TyvXHU5322iV-h-88" value="" style="ellipse;whiteSpace=wrap;html=1;aspect=fixed;labelBackgroundColor=none;fontSize=30;fontColor=#000000;strokeWidth=2;fillColor=#FF0000;strokeColor=none;" parent="1" vertex="1">
          <mxGeometry x="2250" y="612" width="56" height="56" as="geometry" />
        </mxCell>
        <mxCell id="EpxnI0TyvXHU5322iV-h-89" value="BAVARIAN" style="text;html=1;align=center;verticalAlign=middle;resizable=0;points=[];autosize=1;strokeColor=none;fillColor=none;fontSize=30;fontColor=#000000;" parent="1" vertex="1">
          <mxGeometry x="2220" y="580" width="160" height="40" as="geometry" />
        </mxCell>
        <mxCell id="EpxnI0TyvXHU5322iV-h-90" value="" style="ellipse;whiteSpace=wrap;html=1;aspect=fixed;labelBackgroundColor=none;fontSize=30;fontColor=#000000;strokeWidth=2;fillColor=#FF0000;strokeColor=none;" parent="1" vertex="1">
          <mxGeometry x="1219" y="882" width="56" height="56" as="geometry" />
        </mxCell>
        <mxCell id="EpxnI0TyvXHU5322iV-h-92" value="" style="ellipse;whiteSpace=wrap;html=1;aspect=fixed;labelBackgroundColor=none;fontSize=30;fontColor=#000000;strokeWidth=2;fillColor=#FF0000;strokeColor=none;" parent="1" vertex="1">
          <mxGeometry x="1690" y="885" width="46" height="46" as="geometry" />
        </mxCell>
        <mxCell id="EpxnI0TyvXHU5322iV-h-94" value="" style="endArrow=none;html=1;fontSize=30;fontColor=#000000;strokeWidth=2;curved=1;exitDx=0;exitDy=0;exitPerimeter=0;startArrow=none;" parent="1" edge="1">
          <mxGeometry width="50" height="50" relative="1" as="geometry">
            <mxPoint x="1680" y="898" as="sourcePoint" />
            <mxPoint x="1700" y="915" as="targetPoint" />
          </mxGeometry>
        </mxCell>
        <mxCell id="EpxnI0TyvXHU5322iV-h-95" value="AFRIKAANS" style="text;html=1;align=center;verticalAlign=middle;resizable=0;points=[];autosize=1;strokeColor=none;fillColor=none;fontSize=30;fontColor=#000000;" parent="1" vertex="1">
          <mxGeometry x="1640" y="853" width="190" height="40" as="geometry" />
        </mxCell>
        <mxCell id="EpxnI0TyvXHU5322iV-h-96" value="East Scandinavian" style="text;html=1;align=center;verticalAlign=middle;resizable=0;points=[];autosize=1;strokeColor=none;fillColor=none;fontSize=30;fontColor=#000000;" parent="1" vertex="1">
          <mxGeometry x="730" y="1060" width="260" height="40" as="geometry" />
        </mxCell>
        <mxCell id="EpxnI0TyvXHU5322iV-h-97" value="SWEDISH" style="text;html=1;align=center;verticalAlign=middle;resizable=0;points=[];autosize=1;strokeColor=none;fillColor=none;fontSize=30;fontColor=#000000;" parent="1" vertex="1">
          <mxGeometry x="1140" y="1000" width="160" height="40" as="geometry" />
        </mxCell>
        <mxCell id="EpxnI0TyvXHU5322iV-h-98" value="" style="shape=waypoint;sketch=0;fillStyle=solid;size=6;pointerEvents=1;points=[];fillColor=none;resizable=0;rotatable=0;perimeter=centerPerimeter;snapToPoint=1;labelBackgroundColor=none;fontSize=30;fontColor=#000000;strokeWidth=2;" parent="1" vertex="1">
          <mxGeometry x="710" y="1040" width="40" height="40" as="geometry" />
        </mxCell>
        <mxCell id="EpxnI0TyvXHU5322iV-h-99" value="" style="shape=waypoint;sketch=0;fillStyle=solid;size=6;pointerEvents=1;points=[];fillColor=none;resizable=0;rotatable=0;perimeter=centerPerimeter;snapToPoint=1;labelBackgroundColor=none;fontSize=30;fontColor=#000000;strokeWidth=2;" parent="1" vertex="1">
          <mxGeometry x="1190" y="1040" width="40" height="40" as="geometry" />
        </mxCell>
        <mxCell id="EpxnI0TyvXHU5322iV-h-100" value="" style="endArrow=none;html=1;fontSize=30;fontColor=#000000;strokeWidth=2;curved=1;exitX=0.577;exitY=0.658;exitDx=0;exitDy=0;exitPerimeter=0;entryX=0.649;entryY=0.313;entryDx=0;entryDy=0;entryPerimeter=0;" parent="1" source="EpxnI0TyvXHU5322iV-h-44" target="EpxnI0TyvXHU5322iV-h-98" edge="1">
          <mxGeometry width="50" height="50" relative="1" as="geometry">
            <mxPoint x="700" y="720" as="sourcePoint" />
            <mxPoint x="750" y="670" as="targetPoint" />
            <Array as="points">
              <mxPoint x="630" y="930" />
              <mxPoint x="670" y="940" />
              <mxPoint x="670" y="1070" />
            </Array>
          </mxGeometry>
        </mxCell>
        <mxCell id="EpxnI0TyvXHU5322iV-h-101" value="" style="endArrow=none;html=1;fontSize=30;fontColor=#000000;strokeWidth=2;curved=1;exitX=0.387;exitY=0.456;exitDx=0;exitDy=0;exitPerimeter=0;" parent="1" source="EpxnI0TyvXHU5322iV-h-99" target="EpxnI0TyvXHU5322iV-h-98" edge="1">
          <mxGeometry width="50" height="50" relative="1" as="geometry">
            <mxPoint x="1130" y="720" as="sourcePoint" />
            <mxPoint x="1180" y="670" as="targetPoint" />
          </mxGeometry>
        </mxCell>
        <mxCell id="EpxnI0TyvXHU5322iV-h-103" value="" style="ellipse;whiteSpace=wrap;html=1;aspect=fixed;labelBackgroundColor=none;fontSize=30;fontColor=#000000;strokeWidth=2;fillColor=#FF0000;strokeColor=none;" parent="1" vertex="1">
          <mxGeometry x="1210" y="1030" width="40" height="40" as="geometry" />
        </mxCell>
        <mxCell id="EpxnI0TyvXHU5322iV-h-104" value="" style="ellipse;whiteSpace=wrap;html=1;strokeWidth=2;fillWeight=2;hachureGap=8;fillColor=#000000;fillStyle=dots;sketch=1;labelBackgroundColor=none;fontSize=30;fontColor=#000000;strokeColor=none;" parent="1" vertex="1">
          <mxGeometry x="1225" y="888" width="50" height="50" as="geometry" />
        </mxCell>
        <mxCell id="EpxnI0TyvXHU5322iV-h-105" value="" style="endArrow=none;html=1;fontSize=30;fontColor=#000000;strokeWidth=2;curved=1;exitX=0.5;exitY=0.75;exitDx=0;exitDy=0;exitPerimeter=0;entryX=0.458;entryY=0.611;entryDx=0;entryDy=0;entryPerimeter=0;" parent="1" source="EpxnI0TyvXHU5322iV-h-55" target="EpxnI0TyvXHU5322iV-h-104" edge="1">
          <mxGeometry width="50" height="50" relative="1" as="geometry">
            <mxPoint x="1210" y="910" as="sourcePoint" />
            <mxPoint x="1690" y="910" as="targetPoint" />
          </mxGeometry>
        </mxCell>
        <mxCell id="EpxnI0TyvXHU5322iV-h-106" value="" style="ellipse;whiteSpace=wrap;html=1;strokeWidth=2;fillWeight=2;hachureGap=8;fillColor=#000000;fillStyle=dots;sketch=1;labelBackgroundColor=none;fontSize=30;fontColor=#000000;strokeColor=none;" parent="1" vertex="1">
          <mxGeometry x="1690" y="885" width="50" height="50" as="geometry" />
        </mxCell>
        <mxCell id="EpxnI0TyvXHU5322iV-h-107" value="" style="ellipse;whiteSpace=wrap;html=1;strokeWidth=2;fillWeight=2;hachureGap=8;fillColor=#000000;fillStyle=dots;sketch=1;labelBackgroundColor=none;fontSize=30;fontColor=#000000;strokeColor=none;" parent="1" vertex="1">
          <mxGeometry x="1207.5" y="1030" width="45" height="40" as="geometry" />
        </mxCell>
        <mxCell id="EpxnI0TyvXHU5322iV-h-109" value="" style="endArrow=none;html=1;fontSize=30;fontColor=#000000;strokeWidth=2;curved=1;startArrow=none;" parent="1" edge="1">
          <mxGeometry width="50" height="50" relative="1" as="geometry">
            <mxPoint x="1680" y="898" as="sourcePoint" />
            <mxPoint x="1680" y="898" as="targetPoint" />
          </mxGeometry>
        </mxCell>
        <mxCell id="EpxnI0TyvXHU5322iV-h-110" value="" style="ellipse;whiteSpace=wrap;html=1;strokeWidth=2;fillWeight=2;hachureGap=8;fillColor=#000000;fillStyle=dots;sketch=1;labelBackgroundColor=none;fontSize=30;fontColor=#000000;strokeColor=none;" parent="1" vertex="1">
          <mxGeometry x="2256" y="620" width="50" height="50" as="geometry" />
        </mxCell>
        <mxCell id="EpxnI0TyvXHU5322iV-h-112" value="" style="shape=waypoint;sketch=0;fillStyle=solid;size=6;pointerEvents=1;points=[];fillColor=none;resizable=0;rotatable=0;perimeter=centerPerimeter;snapToPoint=1;labelBackgroundColor=none;fontSize=30;fontColor=#000000;strokeWidth=2;" parent="1" vertex="1">
          <mxGeometry x="250" y="1320" width="40" height="40" as="geometry" />
        </mxCell>
        <mxCell id="EpxnI0TyvXHU5322iV-h-113" value="" style="endArrow=none;html=1;fontSize=30;fontColor=#000000;strokeWidth=2;curved=1;entryX=0.673;entryY=0.504;entryDx=0;entryDy=0;entryPerimeter=0;exitX=1;exitY=0.5;exitDx=0;exitDy=0;" parent="1" source="EpxnI0TyvXHU5322iV-h-16" target="EpxnI0TyvXHU5322iV-h-112" edge="1">
          <mxGeometry width="50" height="50" relative="1" as="geometry">
            <mxPoint x="170" y="980" as="sourcePoint" />
            <mxPoint x="560" y="1250" as="targetPoint" />
            <Array as="points">
              <mxPoint x="120" y="1320" />
              <mxPoint x="190" y="1340" />
            </Array>
          </mxGeometry>
        </mxCell>
        <mxCell id="EpxnI0TyvXHU5322iV-h-114" value="Romance" style="text;html=1;align=center;verticalAlign=middle;resizable=0;points=[];autosize=1;strokeColor=none;fillColor=none;fontSize=30;fontColor=#000000;" parent="1" vertex="1">
          <mxGeometry x="485" y="1300" width="140" height="40" as="geometry" />
        </mxCell>
        <mxCell id="EpxnI0TyvXHU5322iV-h-115" value="Western Romance" style="text;html=1;align=center;verticalAlign=middle;resizable=0;points=[];autosize=1;strokeColor=none;fillColor=none;fontSize=30;fontColor=#000000;" parent="1" vertex="1">
          <mxGeometry x="780" y="1200" width="260" height="40" as="geometry" />
        </mxCell>
        <mxCell id="EpxnI0TyvXHU5322iV-h-116" value="Gallo-Romance" style="text;html=1;align=center;verticalAlign=middle;resizable=0;points=[];autosize=1;strokeColor=none;fillColor=none;fontSize=30;fontColor=#000000;" parent="1" vertex="1">
          <mxGeometry x="1180" y="1160" width="220" height="40" as="geometry" />
        </mxCell>
        <mxCell id="EpxnI0TyvXHU5322iV-h-117" value="Ibero-Romance" style="text;html=1;align=center;verticalAlign=middle;resizable=0;points=[];autosize=1;strokeColor=none;fillColor=none;fontSize=30;fontColor=#000000;" parent="1" vertex="1">
          <mxGeometry x="1195" y="1280" width="220" height="40" as="geometry" />
        </mxCell>
        <mxCell id="EpxnI0TyvXHU5322iV-h-118" value="Italo-Western" style="text;html=1;align=center;verticalAlign=middle;resizable=0;points=[];autosize=1;strokeColor=none;fillColor=none;fontSize=30;fontColor=#000000;" parent="1" vertex="1">
          <mxGeometry x="800" y="1400" width="190" height="40" as="geometry" />
        </mxCell>
        <mxCell id="EpxnI0TyvXHU5322iV-h-119" value="Eastern Romance" style="text;html=1;align=center;verticalAlign=middle;resizable=0;points=[];autosize=1;strokeColor=none;fillColor=none;fontSize=30;fontColor=#000000;" parent="1" vertex="1">
          <mxGeometry x="800" y="1640" width="260" height="40" as="geometry" />
        </mxCell>
        <mxCell id="EpxnI0TyvXHU5322iV-h-120" value="Balkan Romance" style="text;html=1;align=center;verticalAlign=middle;resizable=0;points=[];autosize=1;strokeColor=none;fillColor=none;fontSize=30;fontColor=#000000;" parent="1" vertex="1">
          <mxGeometry x="1275" y="1650" width="240" height="40" as="geometry" />
        </mxCell>
        <mxCell id="EpxnI0TyvXHU5322iV-h-121" value="ROMANIAN" style="text;html=1;align=center;verticalAlign=middle;resizable=0;points=[];autosize=1;strokeColor=none;fillColor=none;fontSize=30;fontColor=#000000;" parent="1" vertex="1">
          <mxGeometry x="1680" y="1745" width="180" height="40" as="geometry" />
        </mxCell>
        <mxCell id="EpxnI0TyvXHU5322iV-h-122" value="Italo-Dalmatian" style="text;html=1;align=center;verticalAlign=middle;resizable=0;points=[];autosize=1;strokeColor=none;fillColor=none;fontSize=30;fontColor=#000000;" parent="1" vertex="1">
          <mxGeometry x="1195" y="1400" width="220" height="40" as="geometry" />
        </mxCell>
        <mxCell id="EpxnI0TyvXHU5322iV-h-91" value="" style="shape=waypoint;sketch=0;fillStyle=solid;size=6;pointerEvents=1;points=[];fillColor=none;resizable=0;rotatable=0;perimeter=centerPerimeter;snapToPoint=1;labelBackgroundColor=none;fontSize=30;fontColor=#000000;strokeWidth=2;" parent="1" vertex="1">
          <mxGeometry x="1660" y="893" width="40" height="40" as="geometry" />
        </mxCell>
        <mxCell id="EpxnI0TyvXHU5322iV-h-123" value="" style="endArrow=none;html=1;fontSize=30;fontColor=#000000;strokeWidth=2;curved=1;startArrow=none;exitX=0.363;exitY=0.396;exitDx=0;exitDy=0;exitPerimeter=0;" parent="1" source="EpxnI0TyvXHU5322iV-h-55" target="EpxnI0TyvXHU5322iV-h-91" edge="1">
          <mxGeometry width="50" height="50" relative="1" as="geometry">
            <mxPoint x="1210" y="913" as="sourcePoint" />
            <mxPoint x="1680" y="913" as="targetPoint" />
          </mxGeometry>
        </mxCell>
        <mxCell id="EpxnI0TyvXHU5322iV-h-124" value="Oil" style="text;html=1;align=center;verticalAlign=middle;resizable=0;points=[];autosize=1;strokeColor=none;fillColor=none;fontSize=30;fontColor=#000000;" parent="1" vertex="1">
          <mxGeometry x="1640" y="1090" width="50" height="40" as="geometry" />
        </mxCell>
        <mxCell id="EpxnI0TyvXHU5322iV-h-125" value="FRENCH" style="text;html=1;align=center;verticalAlign=middle;resizable=0;points=[];autosize=1;strokeColor=none;fillColor=none;fontSize=30;fontColor=#000000;" parent="1" vertex="1">
          <mxGeometry x="2050" y="830" width="140" height="40" as="geometry" />
        </mxCell>
        <mxCell id="EpxnI0TyvXHU5322iV-h-126" value="West-Iberian" style="text;html=1;align=center;verticalAlign=middle;resizable=0;points=[];autosize=1;strokeColor=none;fillColor=none;fontSize=30;fontColor=#000000;" parent="1" vertex="1">
          <mxGeometry x="1610" y="1340" width="190" height="40" as="geometry" />
        </mxCell>
        <mxCell id="EpxnI0TyvXHU5322iV-h-127" value="" style="shape=waypoint;sketch=0;fillStyle=solid;size=6;pointerEvents=1;points=[];fillColor=none;resizable=0;rotatable=0;perimeter=centerPerimeter;snapToPoint=1;labelBackgroundColor=none;fontSize=30;fontColor=#000000;strokeWidth=2;" parent="1" vertex="1">
          <mxGeometry x="550" y="1320" width="40" height="40" as="geometry" />
        </mxCell>
        <mxCell id="EpxnI0TyvXHU5322iV-h-128" value="" style="shape=waypoint;sketch=0;fillStyle=solid;size=6;pointerEvents=1;points=[];fillColor=none;resizable=0;rotatable=0;perimeter=centerPerimeter;snapToPoint=1;labelBackgroundColor=none;fontSize=30;fontColor=#000000;strokeWidth=2;" parent="1" vertex="1">
          <mxGeometry x="830" y="1240" width="40" height="40" as="geometry" />
        </mxCell>
        <mxCell id="EpxnI0TyvXHU5322iV-h-129" value="" style="shape=waypoint;sketch=0;fillStyle=solid;size=6;pointerEvents=1;points=[];fillColor=none;resizable=0;rotatable=0;perimeter=centerPerimeter;snapToPoint=1;labelBackgroundColor=none;fontSize=30;fontColor=#000000;strokeWidth=2;" parent="1" vertex="1">
          <mxGeometry x="830" y="1440" width="40" height="40" as="geometry" />
        </mxCell>
        <mxCell id="EpxnI0TyvXHU5322iV-h-130" value="" style="shape=waypoint;sketch=0;fillStyle=solid;size=6;pointerEvents=1;points=[];fillColor=none;resizable=0;rotatable=0;perimeter=centerPerimeter;snapToPoint=1;labelBackgroundColor=none;fontSize=30;fontColor=#000000;strokeWidth=2;" parent="1" vertex="1">
          <mxGeometry x="830" y="1610" width="40" height="40" as="geometry" />
        </mxCell>
        <mxCell id="EpxnI0TyvXHU5322iV-h-131" value="" style="shape=waypoint;sketch=0;fillStyle=solid;size=6;pointerEvents=1;points=[];fillColor=none;resizable=0;rotatable=0;perimeter=centerPerimeter;snapToPoint=1;labelBackgroundColor=none;fontSize=30;fontColor=#000000;strokeWidth=2;" parent="1" vertex="1">
          <mxGeometry x="1240" y="1440" width="40" height="40" as="geometry" />
        </mxCell>
        <mxCell id="EpxnI0TyvXHU5322iV-h-132" value="" style="endArrow=none;html=1;fontSize=30;fontColor=#000000;strokeWidth=2;curved=1;exitX=0.601;exitY=0.551;exitDx=0;exitDy=0;exitPerimeter=0;entryX=0.696;entryY=0.504;entryDx=0;entryDy=0;entryPerimeter=0;" parent="1" source="EpxnI0TyvXHU5322iV-h-112" target="EpxnI0TyvXHU5322iV-h-127" edge="1">
          <mxGeometry width="50" height="50" relative="1" as="geometry">
            <mxPoint x="630" y="1300" as="sourcePoint" />
            <mxPoint x="680" y="1250" as="targetPoint" />
          </mxGeometry>
        </mxCell>
        <mxCell id="EpxnI0TyvXHU5322iV-h-133" value="" style="endArrow=none;html=1;fontSize=30;fontColor=#000000;strokeWidth=2;curved=1;exitX=0.577;exitY=0.456;exitDx=0;exitDy=0;exitPerimeter=0;entryX=0.506;entryY=0.646;entryDx=0;entryDy=0;entryPerimeter=0;" parent="1" source="EpxnI0TyvXHU5322iV-h-127" target="EpxnI0TyvXHU5322iV-h-128" edge="1">
          <mxGeometry width="50" height="50" relative="1" as="geometry">
            <mxPoint x="630" y="1300" as="sourcePoint" />
            <mxPoint x="680" y="1250" as="targetPoint" />
            <Array as="points">
              <mxPoint x="710" y="1340" />
              <mxPoint x="700" y="1260" />
              <mxPoint x="790" y="1260" />
            </Array>
          </mxGeometry>
        </mxCell>
        <mxCell id="EpxnI0TyvXHU5322iV-h-134" value="" style="endArrow=none;html=1;fontSize=30;fontColor=#000000;strokeWidth=2;curved=1;exitX=0.601;exitY=0.385;exitDx=0;exitDy=0;exitPerimeter=0;entryX=-0.018;entryY=0.789;entryDx=0;entryDy=0;entryPerimeter=0;" parent="1" source="EpxnI0TyvXHU5322iV-h-127" target="EpxnI0TyvXHU5322iV-h-129" edge="1">
          <mxGeometry width="50" height="50" relative="1" as="geometry">
            <mxPoint x="630" y="1300" as="sourcePoint" />
            <mxPoint x="680" y="1250" as="targetPoint" />
            <Array as="points">
              <mxPoint x="710" y="1340" />
              <mxPoint x="720" y="1450" />
              <mxPoint x="780" y="1460" />
            </Array>
          </mxGeometry>
        </mxCell>
        <mxCell id="EpxnI0TyvXHU5322iV-h-135" value="" style="endArrow=none;html=1;fontSize=30;fontColor=#000000;strokeWidth=2;curved=1;exitX=0.53;exitY=0.408;exitDx=0;exitDy=0;exitPerimeter=0;entryX=0.601;entryY=0.492;entryDx=0;entryDy=0;entryPerimeter=0;" parent="1" source="EpxnI0TyvXHU5322iV-h-127" target="EpxnI0TyvXHU5322iV-h-130" edge="1">
          <mxGeometry width="50" height="50" relative="1" as="geometry">
            <mxPoint x="630" y="1300" as="sourcePoint" />
            <mxPoint x="680" y="1250" as="targetPoint" />
            <Array as="points">
              <mxPoint x="680" y="1400" />
              <mxPoint x="690" y="1590" />
              <mxPoint x="770" y="1630" />
            </Array>
          </mxGeometry>
        </mxCell>
        <mxCell id="EpxnI0TyvXHU5322iV-h-136" value="" style="endArrow=none;html=1;fontSize=30;fontColor=#000000;strokeWidth=2;curved=1;exitX=0.506;exitY=0.385;exitDx=0;exitDy=0;exitPerimeter=0;entryX=0.589;entryY=0.432;entryDx=0;entryDy=0;entryPerimeter=0;" parent="1" source="EpxnI0TyvXHU5322iV-h-129" target="EpxnI0TyvXHU5322iV-h-131" edge="1">
          <mxGeometry width="50" height="50" relative="1" as="geometry">
            <mxPoint x="1270" y="1300" as="sourcePoint" />
            <mxPoint x="1320" y="1250" as="targetPoint" />
          </mxGeometry>
        </mxCell>
        <mxCell id="EpxnI0TyvXHU5322iV-h-137" value="" style="shape=waypoint;sketch=0;fillStyle=solid;size=6;pointerEvents=1;points=[];fillColor=none;resizable=0;rotatable=0;perimeter=centerPerimeter;snapToPoint=1;labelBackgroundColor=none;fontSize=30;fontColor=#000000;strokeWidth=2;" parent="1" vertex="1">
          <mxGeometry x="1360" y="1210" width="40" height="40" as="geometry" />
        </mxCell>
        <mxCell id="EpxnI0TyvXHU5322iV-h-138" value="" style="shape=waypoint;sketch=0;fillStyle=solid;size=6;pointerEvents=1;points=[];fillColor=none;resizable=0;rotatable=0;perimeter=centerPerimeter;snapToPoint=1;labelBackgroundColor=none;fontSize=30;fontColor=#000000;strokeWidth=2;" parent="1" vertex="1">
          <mxGeometry x="1360" y="1260" width="40" height="40" as="geometry" />
        </mxCell>
        <mxCell id="EpxnI0TyvXHU5322iV-h-139" value="" style="endArrow=none;html=1;fontSize=30;fontColor=#000000;strokeWidth=2;curved=1;entryX=0.423;entryY=0.563;entryDx=0;entryDy=0;entryPerimeter=0;exitX=0.792;exitY=0.527;exitDx=0;exitDy=0;exitPerimeter=0;" parent="1" source="EpxnI0TyvXHU5322iV-h-128" target="EpxnI0TyvXHU5322iV-h-137" edge="1">
          <mxGeometry width="50" height="50" relative="1" as="geometry">
            <mxPoint x="1270" y="1300" as="sourcePoint" />
            <mxPoint x="1320" y="1250" as="targetPoint" />
            <Array as="points">
              <mxPoint x="1070" y="1270" />
              <mxPoint x="1140" y="1230" />
            </Array>
          </mxGeometry>
        </mxCell>
        <mxCell id="EpxnI0TyvXHU5322iV-h-140" value="" style="endArrow=none;html=1;fontSize=30;fontColor=#000000;strokeWidth=2;curved=1;exitX=0.625;exitY=0.646;exitDx=0;exitDy=0;exitPerimeter=0;entryX=0.637;entryY=0.551;entryDx=0;entryDy=0;entryPerimeter=0;" parent="1" source="EpxnI0TyvXHU5322iV-h-128" target="EpxnI0TyvXHU5322iV-h-138" edge="1">
          <mxGeometry width="50" height="50" relative="1" as="geometry">
            <mxPoint x="850" y="1310" as="sourcePoint" />
            <mxPoint x="1320" y="1250" as="targetPoint" />
            <Array as="points">
              <mxPoint x="1050" y="1270" />
              <mxPoint x="1150" y="1290" />
              <mxPoint x="1240" y="1280" />
            </Array>
          </mxGeometry>
        </mxCell>
        <mxCell id="EpxnI0TyvXHU5322iV-h-141" value="" style="shape=waypoint;sketch=0;fillStyle=solid;size=6;pointerEvents=1;points=[];fillColor=none;resizable=0;rotatable=0;perimeter=centerPerimeter;snapToPoint=1;labelBackgroundColor=none;fontSize=30;fontColor=#000000;strokeWidth=2;" parent="1" vertex="1">
          <mxGeometry x="1620" y="1110" width="40" height="40" as="geometry" />
        </mxCell>
        <mxCell id="EpxnI0TyvXHU5322iV-h-142" value="" style="shape=waypoint;sketch=0;fillStyle=solid;size=6;pointerEvents=1;points=[];fillColor=none;resizable=0;rotatable=0;perimeter=centerPerimeter;snapToPoint=1;labelBackgroundColor=none;fontSize=30;fontColor=#000000;strokeWidth=2;" parent="1" vertex="1">
          <mxGeometry x="1610" y="1360" width="40" height="40" as="geometry" />
        </mxCell>
        <mxCell id="EpxnI0TyvXHU5322iV-h-144" value="" style="endArrow=none;html=1;fontSize=30;fontColor=#000000;strokeWidth=2;curved=1;entryX=0.256;entryY=0.575;entryDx=0;entryDy=0;entryPerimeter=0;exitX=0.613;exitY=0.48;exitDx=0;exitDy=0;exitPerimeter=0;" parent="1" source="EpxnI0TyvXHU5322iV-h-138" target="EpxnI0TyvXHU5322iV-h-142" edge="1">
          <mxGeometry width="50" height="50" relative="1" as="geometry">
            <mxPoint x="1270" y="1300" as="sourcePoint" />
            <mxPoint x="1320" y="1250" as="targetPoint" />
            <Array as="points">
              <mxPoint x="1480" y="1280" />
              <mxPoint x="1510" y="1280" />
              <mxPoint x="1520" y="1340" />
              <mxPoint x="1550" y="1370" />
              <mxPoint x="1590" y="1380" />
            </Array>
          </mxGeometry>
        </mxCell>
        <mxCell id="EpxnI0TyvXHU5322iV-h-145" value="" style="endArrow=none;html=1;fontSize=30;fontColor=#000000;strokeWidth=2;curved=1;entryX=0.446;entryY=0.754;entryDx=0;entryDy=0;entryPerimeter=0;exitX=0.28;exitY=0.563;exitDx=0;exitDy=0;exitPerimeter=0;" parent="1" source="EpxnI0TyvXHU5322iV-h-141" target="EpxnI0TyvXHU5322iV-h-137" edge="1">
          <mxGeometry width="50" height="50" relative="1" as="geometry">
            <mxPoint x="1270" y="1300" as="sourcePoint" />
            <mxPoint x="1320" y="1250" as="targetPoint" />
            <Array as="points">
              <mxPoint x="1570" y="1130" />
              <mxPoint x="1510" y="1140" />
              <mxPoint x="1510" y="1230" />
              <mxPoint x="1460" y="1230" />
            </Array>
          </mxGeometry>
        </mxCell>
        <mxCell id="EpxnI0TyvXHU5322iV-h-146" value="" style="ellipse;whiteSpace=wrap;html=1;aspect=fixed;labelBackgroundColor=none;fontSize=30;fontColor=#000000;strokeWidth=2;fillColor=#FF0000;strokeColor=none;" parent="1" vertex="1">
          <mxGeometry x="2030" y="860" width="250" height="250" as="geometry" />
        </mxCell>
        <mxCell id="EpxnI0TyvXHU5322iV-h-147" value="" style="ellipse;whiteSpace=wrap;html=1;strokeWidth=2;fillWeight=2;hachureGap=8;fillColor=#000000;fillStyle=dots;sketch=1;labelBackgroundColor=none;fontSize=30;fontColor=#000000;strokeColor=none;" parent="1" vertex="1">
          <mxGeometry x="2067.5" y="910" width="175" height="166" as="geometry" />
        </mxCell>
        <mxCell id="EpxnI0TyvXHU5322iV-h-148" value="" style="shape=waypoint;sketch=0;fillStyle=solid;size=6;pointerEvents=1;points=[];fillColor=none;resizable=0;rotatable=0;perimeter=centerPerimeter;snapToPoint=1;labelBackgroundColor=none;fontSize=30;fontColor=#000000;strokeWidth=2;" parent="1" vertex="1">
          <mxGeometry x="2000" y="980" width="40" height="40" as="geometry" />
        </mxCell>
        <mxCell id="EpxnI0TyvXHU5322iV-h-149" value="" style="endArrow=none;html=1;fontSize=30;fontColor=#000000;strokeWidth=2;curved=1;exitX=0.923;exitY=1.015;exitDx=0;exitDy=0;exitPerimeter=0;" parent="1" source="EpxnI0TyvXHU5322iV-h-141" target="EpxnI0TyvXHU5322iV-h-148" edge="1">
          <mxGeometry width="50" height="50" relative="1" as="geometry">
            <mxPoint x="1970" y="760" as="sourcePoint" />
            <mxPoint x="2020" y="710" as="targetPoint" />
            <Array as="points">
              <mxPoint x="1740" y="1130" />
              <mxPoint x="1840" y="1130" />
              <mxPoint x="1860" y="1010" />
              <mxPoint x="1910" y="1000" />
            </Array>
          </mxGeometry>
        </mxCell>
        <mxCell id="EpxnI0TyvXHU5322iV-h-150" value="SPANISH" style="text;html=1;align=center;verticalAlign=middle;resizable=0;points=[];autosize=1;strokeColor=none;fillColor=none;fontSize=30;fontColor=#000000;" parent="1" vertex="1">
          <mxGeometry x="2306" y="1150" width="150" height="40" as="geometry" />
        </mxCell>
        <mxCell id="EpxnI0TyvXHU5322iV-h-151" value="PORTUGUESE" style="text;html=1;align=center;verticalAlign=middle;resizable=0;points=[];autosize=1;strokeColor=none;fillColor=none;fontSize=30;fontColor=#000000;" parent="1" vertex="1">
          <mxGeometry x="2450" y="1480" width="230" height="40" as="geometry" />
        </mxCell>
        <mxCell id="EpxnI0TyvXHU5322iV-h-152" value="Galicion-Portuguese" style="text;html=1;align=center;verticalAlign=middle;resizable=0;points=[];autosize=1;strokeColor=none;fillColor=none;fontSize=30;fontColor=#000000;" parent="1" vertex="1">
          <mxGeometry x="2030" y="1650" width="290" height="40" as="geometry" />
        </mxCell>
        <mxCell id="EpxnI0TyvXHU5322iV-h-153" value="" style="shape=waypoint;sketch=0;fillStyle=solid;size=6;pointerEvents=1;points=[];fillColor=none;resizable=0;rotatable=0;perimeter=centerPerimeter;snapToPoint=1;labelBackgroundColor=none;fontSize=30;fontColor=#000000;strokeWidth=2;" parent="1" vertex="1">
          <mxGeometry x="2150" y="1630" width="40" height="40" as="geometry" />
        </mxCell>
        <mxCell id="EpxnI0TyvXHU5322iV-h-154" value="" style="shape=waypoint;sketch=0;fillStyle=solid;size=6;pointerEvents=1;points=[];fillColor=none;resizable=0;rotatable=0;perimeter=centerPerimeter;snapToPoint=1;labelBackgroundColor=none;fontSize=30;fontColor=#000000;strokeWidth=2;" parent="1" vertex="1">
          <mxGeometry x="2420" y="1640" width="40" height="40" as="geometry" />
        </mxCell>
        <mxCell id="EpxnI0TyvXHU5322iV-h-155" value="" style="shape=waypoint;sketch=0;fillStyle=solid;size=6;pointerEvents=1;points=[];fillColor=none;resizable=0;rotatable=0;perimeter=centerPerimeter;snapToPoint=1;labelBackgroundColor=none;fontSize=30;fontColor=#000000;strokeWidth=2;" parent="1" vertex="1">
          <mxGeometry x="2420" y="1180" width="40" height="40" as="geometry" />
        </mxCell>
        <mxCell id="EpxnI0TyvXHU5322iV-h-156" value="" style="endArrow=none;html=1;fontSize=30;fontColor=#000000;strokeWidth=2;curved=1;exitX=0.673;exitY=0.432;exitDx=0;exitDy=0;exitPerimeter=0;entryX=0.518;entryY=0.67;entryDx=0;entryDy=0;entryPerimeter=0;" parent="1" source="EpxnI0TyvXHU5322iV-h-142" target="EpxnI0TyvXHU5322iV-h-155" edge="1">
          <mxGeometry width="50" height="50" relative="1" as="geometry">
            <mxPoint x="2020" y="1300" as="sourcePoint" />
            <mxPoint x="2070" y="1250" as="targetPoint" />
            <Array as="points">
              <mxPoint x="1920" y="1390" />
              <mxPoint x="2150" y="1370" />
              <mxPoint x="2140" y="1210" />
              <mxPoint x="2290" y="1200" />
            </Array>
          </mxGeometry>
        </mxCell>
        <mxCell id="EpxnI0TyvXHU5322iV-h-157" value="" style="endArrow=none;html=1;fontSize=30;fontColor=#000000;strokeWidth=2;curved=1;exitX=0.387;exitY=1.075;exitDx=0;exitDy=0;exitPerimeter=0;entryX=0.589;entryY=0.48;entryDx=0;entryDy=0;entryPerimeter=0;" parent="1" source="EpxnI0TyvXHU5322iV-h-142" target="EpxnI0TyvXHU5322iV-h-154" edge="1">
          <mxGeometry width="50" height="50" relative="1" as="geometry">
            <mxPoint x="2020" y="1430" as="sourcePoint" />
            <mxPoint x="2140" y="1670" as="targetPoint" />
            <Array as="points">
              <mxPoint x="2070" y="1400" />
              <mxPoint x="2150" y="1460" />
              <mxPoint x="2160" y="1560" />
              <mxPoint x="2160" y="1660" />
              <mxPoint x="2350" y="1660" />
            </Array>
          </mxGeometry>
        </mxCell>
        <mxCell id="EpxnI0TyvXHU5322iV-h-161" value="" style="ellipse;whiteSpace=wrap;html=1;aspect=fixed;labelBackgroundColor=none;fontSize=30;fontColor=#000000;strokeWidth=2;fillColor=#FF0000;strokeColor=none;" parent="1" vertex="1">
          <mxGeometry x="2450" y="1040" width="320" height="320" as="geometry" />
        </mxCell>
        <mxCell id="EpxnI0TyvXHU5322iV-h-162" value="" style="ellipse;whiteSpace=wrap;html=1;strokeWidth=2;fillWeight=2;hachureGap=8;fillColor=#000000;fillStyle=dots;sketch=1;labelBackgroundColor=none;fontSize=30;fontColor=#000000;strokeColor=none;" parent="1" vertex="1">
          <mxGeometry x="2450" y="1045" width="320" height="310" as="geometry" />
        </mxCell>
        <mxCell id="EpxnI0TyvXHU5322iV-h-163" value="" style="ellipse;whiteSpace=wrap;html=1;aspect=fixed;labelBackgroundColor=none;fontSize=30;fontColor=#000000;strokeWidth=2;fillColor=#FF0000;strokeColor=none;" parent="1" vertex="1">
          <mxGeometry x="2450" y="1520" width="250" height="250" as="geometry" />
        </mxCell>
        <mxCell id="EpxnI0TyvXHU5322iV-h-165" value="" style="ellipse;whiteSpace=wrap;html=1;strokeWidth=2;fillWeight=2;hachureGap=8;fillColor=#000000;fillStyle=dots;sketch=1;labelBackgroundColor=none;fontSize=30;fontColor=#000000;strokeColor=none;" parent="1" vertex="1">
          <mxGeometry x="2445" y="1520" width="260" height="260" as="geometry" />
        </mxCell>
        <mxCell id="EpxnI0TyvXHU5322iV-h-166" value="" style="shape=waypoint;sketch=0;fillStyle=solid;size=6;pointerEvents=1;points=[];fillColor=none;resizable=0;rotatable=0;perimeter=centerPerimeter;snapToPoint=1;labelBackgroundColor=none;fontSize=30;fontColor=#000000;strokeWidth=2;" parent="1" vertex="1">
          <mxGeometry x="1275" y="1610" width="40" height="40" as="geometry" />
        </mxCell>
        <mxCell id="EpxnI0TyvXHU5322iV-h-167" value="" style="endArrow=none;html=1;fontSize=30;fontColor=#000000;strokeWidth=2;curved=1;exitX=0.458;exitY=0.468;exitDx=0;exitDy=0;exitPerimeter=0;entryX=0.619;entryY=0.396;entryDx=0;entryDy=0;entryPerimeter=0;" parent="1" source="EpxnI0TyvXHU5322iV-h-130" target="EpxnI0TyvXHU5322iV-h-166" edge="1">
          <mxGeometry width="50" height="50" relative="1" as="geometry">
            <mxPoint x="1210" y="1430" as="sourcePoint" />
            <mxPoint x="1260" y="1380" as="targetPoint" />
          </mxGeometry>
        </mxCell>
        <mxCell id="EpxnI0TyvXHU5322iV-h-168" value="ITALIAN" style="text;html=1;align=center;verticalAlign=middle;resizable=0;points=[];autosize=1;strokeColor=none;fillColor=none;fontSize=30;fontColor=#000000;" parent="1" vertex="1">
          <mxGeometry x="1650" y="1430" width="130" height="40" as="geometry" />
        </mxCell>
        <mxCell id="EpxnI0TyvXHU5322iV-h-169" value="" style="ellipse;whiteSpace=wrap;html=1;aspect=fixed;labelBackgroundColor=none;fontSize=30;fontColor=#000000;strokeWidth=2;fillColor=#FF0000;strokeColor=none;" parent="1" vertex="1">
          <mxGeometry x="1648" y="1470" width="130" height="130" as="geometry" />
        </mxCell>
        <mxCell id="EpxnI0TyvXHU5322iV-h-170" value="" style="ellipse;whiteSpace=wrap;html=1;strokeWidth=2;fillWeight=2;hachureGap=8;fillColor=#000000;fillStyle=dots;sketch=1;labelBackgroundColor=none;fontSize=30;fontColor=#000000;strokeColor=none;" parent="1" vertex="1">
          <mxGeometry x="1650" y="1480" width="125" height="120" as="geometry" />
        </mxCell>
        <mxCell id="EpxnI0TyvXHU5322iV-h-171" value="" style="shape=waypoint;sketch=0;fillStyle=solid;size=6;pointerEvents=1;points=[];fillColor=none;resizable=0;rotatable=0;perimeter=centerPerimeter;snapToPoint=1;labelBackgroundColor=none;fontSize=30;fontColor=#000000;strokeWidth=2;" parent="1" vertex="1">
          <mxGeometry x="1600" y="1515" width="40" height="40" as="geometry" />
        </mxCell>
        <mxCell id="EpxnI0TyvXHU5322iV-h-172" value="" style="endArrow=none;html=1;fontSize=30;fontColor=#000000;strokeWidth=2;curved=1;exitX=0.661;exitY=0.67;exitDx=0;exitDy=0;exitPerimeter=0;entryX=0.613;entryY=0.533;entryDx=0;entryDy=0;entryPerimeter=0;" parent="1" source="EpxnI0TyvXHU5322iV-h-131" target="EpxnI0TyvXHU5322iV-h-171" edge="1">
          <mxGeometry width="50" height="50" relative="1" as="geometry">
            <mxPoint x="1510" y="1430" as="sourcePoint" />
            <mxPoint x="1560" y="1380" as="targetPoint" />
            <Array as="points">
              <mxPoint x="1510" y="1450" />
              <mxPoint x="1510" y="1540" />
            </Array>
          </mxGeometry>
        </mxCell>
        <mxCell id="EpxnI0TyvXHU5322iV-h-173" value="" style="ellipse;whiteSpace=wrap;html=1;aspect=fixed;labelBackgroundColor=none;fontSize=30;fontColor=#000000;strokeWidth=2;fillColor=#FF0000;strokeColor=none;" parent="1" vertex="1">
          <mxGeometry x="1700" y="1670" width="75" height="75" as="geometry" />
        </mxCell>
        <mxCell id="EpxnI0TyvXHU5322iV-h-174" value="" style="ellipse;whiteSpace=wrap;html=1;strokeWidth=2;fillWeight=2;hachureGap=8;fillColor=#000000;fillStyle=dots;sketch=1;labelBackgroundColor=none;fontSize=30;fontColor=#000000;strokeColor=none;" parent="1" vertex="1">
          <mxGeometry x="1707.5" y="1673.5" width="60" height="68" as="geometry" />
        </mxCell>
        <mxCell id="EpxnI0TyvXHU5322iV-h-175" value="" style="shape=waypoint;sketch=0;fillStyle=solid;size=6;pointerEvents=1;points=[];fillColor=none;resizable=0;rotatable=0;perimeter=centerPerimeter;snapToPoint=1;labelBackgroundColor=none;fontSize=30;fontColor=#000000;strokeWidth=2;" parent="1" vertex="1">
          <mxGeometry x="1667.5" y="1701.5" width="40" height="40" as="geometry" />
        </mxCell>
        <mxCell id="EpxnI0TyvXHU5322iV-h-176" value="" style="endArrow=none;html=1;fontSize=30;fontColor=#000000;strokeWidth=2;curved=1;exitX=0.762;exitY=0.587;exitDx=0;exitDy=0;exitPerimeter=0;entryX=0.426;entryY=0.395;entryDx=0;entryDy=0;entryPerimeter=0;" parent="1" source="EpxnI0TyvXHU5322iV-h-166" target="EpxnI0TyvXHU5322iV-h-175" edge="1">
          <mxGeometry width="50" height="50" relative="1" as="geometry">
            <mxPoint x="1680" y="1520" as="sourcePoint" />
            <mxPoint x="1730" y="1470" as="targetPoint" />
            <Array as="points">
              <mxPoint x="1520" y="1630" />
              <mxPoint x="1630" y="1640" />
              <mxPoint x="1620" y="1722" />
            </Array>
          </mxGeometry>
        </mxCell>
        <mxCell id="EpxnI0TyvXHU5322iV-h-177" value="Hellenic" style="text;html=1;align=center;verticalAlign=middle;resizable=0;points=[];autosize=1;strokeColor=none;fillColor=none;fontSize=30;fontColor=#000000;" parent="1" vertex="1">
          <mxGeometry x="220" y="1870" width="120" height="40" as="geometry" />
        </mxCell>
        <mxCell id="EpxnI0TyvXHU5322iV-h-178" value="" style="shape=waypoint;sketch=0;fillStyle=solid;size=6;pointerEvents=1;points=[];fillColor=none;resizable=0;rotatable=0;perimeter=centerPerimeter;snapToPoint=1;labelBackgroundColor=none;fontSize=30;fontColor=#000000;strokeWidth=2;" parent="1" vertex="1">
          <mxGeometry x="255" y="1890" width="40" height="40" as="geometry" />
        </mxCell>
        <mxCell id="EpxnI0TyvXHU5322iV-h-179" value="" style="shape=waypoint;sketch=0;fillStyle=solid;size=6;pointerEvents=1;points=[];fillColor=none;resizable=0;rotatable=0;perimeter=centerPerimeter;snapToPoint=1;labelBackgroundColor=none;fontSize=30;fontColor=#000000;strokeWidth=2;" parent="1" vertex="1">
          <mxGeometry x="660" y="1890" width="40" height="40" as="geometry" />
        </mxCell>
        <mxCell id="EpxnI0TyvXHU5322iV-h-180" value="GREEK" style="text;html=1;align=center;verticalAlign=middle;resizable=0;points=[];autosize=1;strokeColor=none;fillColor=none;fontSize=30;fontColor=#000000;" parent="1" vertex="1">
          <mxGeometry x="650" y="1840" width="120" height="40" as="geometry" />
        </mxCell>
        <mxCell id="EpxnI0TyvXHU5322iV-h-181" value="" style="endArrow=none;html=1;fontSize=30;fontColor=#000000;strokeWidth=2;curved=1;entryX=1;entryY=0.5;entryDx=0;entryDy=0;exitX=0.381;exitY=0.373;exitDx=0;exitDy=0;exitPerimeter=0;" parent="1" source="EpxnI0TyvXHU5322iV-h-178" target="EpxnI0TyvXHU5322iV-h-16" edge="1">
          <mxGeometry width="50" height="50" relative="1" as="geometry">
            <mxPoint x="190" y="1590" as="sourcePoint" />
            <mxPoint x="240" y="1540" as="targetPoint" />
            <Array as="points">
              <mxPoint x="140" y="1900" />
              <mxPoint x="110" y="1770" />
            </Array>
          </mxGeometry>
        </mxCell>
        <mxCell id="EpxnI0TyvXHU5322iV-h-182" value="" style="endArrow=none;html=1;fontSize=30;fontColor=#000000;strokeWidth=2;curved=1;exitX=0.405;exitY=0.682;exitDx=0;exitDy=0;exitPerimeter=0;entryX=0.565;entryY=0.73;entryDx=0;entryDy=0;entryPerimeter=0;" parent="1" source="EpxnI0TyvXHU5322iV-h-178" target="EpxnI0TyvXHU5322iV-h-179" edge="1">
          <mxGeometry width="50" height="50" relative="1" as="geometry">
            <mxPoint x="440" y="1590" as="sourcePoint" />
            <mxPoint x="490" y="1540" as="targetPoint" />
          </mxGeometry>
        </mxCell>
        <mxCell id="EpxnI0TyvXHU5322iV-h-183" value="" style="ellipse;whiteSpace=wrap;html=1;aspect=fixed;labelBackgroundColor=none;fontSize=30;fontColor=#000000;strokeWidth=2;fillColor=#FF0000;strokeColor=none;" parent="1" vertex="1">
          <mxGeometry x="690" y="1880" width="60" height="60" as="geometry" />
        </mxCell>
        <mxCell id="EpxnI0TyvXHU5322iV-h-184" value="" style="ellipse;whiteSpace=wrap;html=1;strokeWidth=2;fillWeight=2;hachureGap=8;fillColor=#000000;fillStyle=dots;sketch=1;labelBackgroundColor=none;fontSize=30;fontColor=#000000;strokeColor=none;" parent="1" vertex="1">
          <mxGeometry x="690" y="1880" width="60" height="60" as="geometry" />
        </mxCell>
        <mxCell id="EpxnI0TyvXHU5322iV-h-185" value="Indo-Iranian" style="text;html=1;align=center;verticalAlign=middle;resizable=0;points=[];autosize=1;strokeColor=none;fillColor=none;fontSize=30;fontColor=#000000;" parent="1" vertex="1">
          <mxGeometry x="220" y="2540" width="180" height="40" as="geometry" />
        </mxCell>
        <mxCell id="EpxnI0TyvXHU5322iV-h-186" value="" style="shape=waypoint;sketch=0;fillStyle=solid;size=6;pointerEvents=1;points=[];fillColor=none;resizable=0;rotatable=0;perimeter=centerPerimeter;snapToPoint=1;labelBackgroundColor=none;fontSize=30;fontColor=#000000;strokeWidth=2;" parent="1" vertex="1">
          <mxGeometry x="255" y="2510" width="40" height="40" as="geometry" />
        </mxCell>
        <mxCell id="EpxnI0TyvXHU5322iV-h-187" value="Balto-Slavic" style="text;html=1;align=center;verticalAlign=middle;resizable=0;points=[];autosize=1;strokeColor=none;fillColor=none;fontSize=30;fontColor=#000000;" parent="1" vertex="1">
          <mxGeometry x="240" y="4970" width="170" height="40" as="geometry" />
        </mxCell>
        <mxCell id="EpxnI0TyvXHU5322iV-h-188" value="" style="shape=waypoint;sketch=0;fillStyle=solid;size=6;pointerEvents=1;points=[];fillColor=none;resizable=0;rotatable=0;perimeter=centerPerimeter;snapToPoint=1;labelBackgroundColor=none;fontSize=30;fontColor=#000000;strokeWidth=2;" parent="1" vertex="1">
          <mxGeometry x="260" y="4940" width="40" height="40" as="geometry" />
        </mxCell>
        <mxCell id="EpxnI0TyvXHU5322iV-h-189" value="" style="endArrow=none;html=1;fontSize=30;fontColor=#000000;strokeWidth=2;curved=1;entryX=1;entryY=0.5;entryDx=0;entryDy=0;exitX=0.621;exitY=0.362;exitDx=0;exitDy=0;exitPerimeter=0;" parent="1" source="EpxnI0TyvXHU5322iV-h-186" target="EpxnI0TyvXHU5322iV-h-16" edge="1">
          <mxGeometry width="50" height="50" relative="1" as="geometry">
            <mxPoint x="180" y="1810" as="sourcePoint" />
            <mxPoint x="230" y="1760" as="targetPoint" />
            <Array as="points">
              <mxPoint x="70" y="2480" />
            </Array>
          </mxGeometry>
        </mxCell>
        <mxCell id="EpxnI0TyvXHU5322iV-h-191" value="Indo-Aryan" style="text;html=1;align=center;verticalAlign=middle;resizable=0;points=[];autosize=1;strokeColor=none;fillColor=none;fontSize=30;fontColor=#000000;" parent="1" vertex="1">
          <mxGeometry x="690" y="2180" width="160" height="40" as="geometry" />
        </mxCell>
        <mxCell id="EpxnI0TyvXHU5322iV-h-192" value="" style="shape=waypoint;sketch=0;fillStyle=solid;size=6;pointerEvents=1;points=[];fillColor=none;resizable=0;rotatable=0;perimeter=centerPerimeter;snapToPoint=1;labelBackgroundColor=none;fontSize=30;fontColor=#000000;strokeWidth=2;" parent="1" vertex="1">
          <mxGeometry x="790" y="2220" width="40" height="40" as="geometry" />
        </mxCell>
        <mxCell id="EpxnI0TyvXHU5322iV-h-193" value="" style="endArrow=none;html=1;fontSize=30;fontColor=#000000;strokeWidth=2;curved=1;exitX=0.818;exitY=0.72;exitDx=0;exitDy=0;exitPerimeter=0;entryX=0.55;entryY=0.362;entryDx=0;entryDy=0;entryPerimeter=0;" parent="1" source="EpxnI0TyvXHU5322iV-h-192" target="EpxnI0TyvXHU5322iV-h-186" edge="1">
          <mxGeometry width="50" height="50" relative="1" as="geometry">
            <mxPoint x="890" y="2110" as="sourcePoint" />
            <mxPoint x="940" y="2060" as="targetPoint" />
            <Array as="points">
              <mxPoint x="690" y="2240" />
              <mxPoint x="560" y="2240" />
              <mxPoint x="580" y="2510" />
              <mxPoint x="530" y="2540" />
            </Array>
          </mxGeometry>
        </mxCell>
        <mxCell id="EpxnI0TyvXHU5322iV-h-194" value="Northern Zone" style="text;html=1;align=center;verticalAlign=middle;resizable=0;points=[];autosize=1;strokeColor=none;fillColor=none;fontSize=30;fontColor=#000000;" parent="1" vertex="1">
          <mxGeometry x="1090" y="1880" width="210" height="40" as="geometry" />
        </mxCell>
        <mxCell id="EpxnI0TyvXHU5322iV-h-195" value="Eastern Pahari" style="text;html=1;align=center;verticalAlign=middle;resizable=0;points=[];autosize=1;strokeColor=none;fillColor=none;fontSize=30;fontColor=#000000;" parent="1" vertex="1">
          <mxGeometry x="1380" y="1880" width="210" height="40" as="geometry" />
        </mxCell>
        <mxCell id="EpxnI0TyvXHU5322iV-h-196" value="NEPALI" style="text;html=1;align=center;verticalAlign=middle;resizable=0;points=[];autosize=1;strokeColor=none;fillColor=none;fontSize=30;fontColor=#000000;" parent="1" vertex="1">
          <mxGeometry x="1671.25" y="1843.5" width="120" height="40" as="geometry" />
        </mxCell>
        <mxCell id="EpxnI0TyvXHU5322iV-h-197" value="" style="shape=waypoint;sketch=0;fillStyle=solid;size=6;pointerEvents=1;points=[];fillColor=none;resizable=0;rotatable=0;perimeter=centerPerimeter;snapToPoint=1;labelBackgroundColor=none;fontSize=30;fontColor=#000000;strokeWidth=2;" parent="1" vertex="1">
          <mxGeometry x="1167.5" y="1910" width="40" height="40" as="geometry" />
        </mxCell>
        <mxCell id="EpxnI0TyvXHU5322iV-h-198" value="" style="shape=waypoint;sketch=0;fillStyle=solid;size=6;pointerEvents=1;points=[];fillColor=none;resizable=0;rotatable=0;perimeter=centerPerimeter;snapToPoint=1;labelBackgroundColor=none;fontSize=30;fontColor=#000000;strokeWidth=2;" parent="1" vertex="1">
          <mxGeometry x="1430" y="1910" width="40" height="40" as="geometry" />
        </mxCell>
        <mxCell id="EpxnI0TyvXHU5322iV-h-199" value="" style="endArrow=none;html=1;fontSize=30;fontColor=#000000;strokeWidth=2;curved=1;entryX=0.548;entryY=0.658;entryDx=0;entryDy=0;entryPerimeter=0;exitX=0.592;exitY=0.539;exitDx=0;exitDy=0;exitPerimeter=0;" parent="1" source="EpxnI0TyvXHU5322iV-h-197" target="EpxnI0TyvXHU5322iV-h-198" edge="1">
          <mxGeometry width="50" height="50" relative="1" as="geometry">
            <mxPoint x="1190" y="2110" as="sourcePoint" />
            <mxPoint x="1240" y="2060" as="targetPoint" />
          </mxGeometry>
        </mxCell>
        <mxCell id="EpxnI0TyvXHU5322iV-h-200" value="" style="endArrow=none;html=1;fontSize=30;fontColor=#000000;strokeWidth=2;curved=1;entryX=0.449;entryY=0.777;entryDx=0;entryDy=0;entryPerimeter=0;exitX=1.101;exitY=0.599;exitDx=0;exitDy=0;exitPerimeter=0;" parent="1" source="EpxnI0TyvXHU5322iV-h-192" target="EpxnI0TyvXHU5322iV-h-197" edge="1">
          <mxGeometry width="50" height="50" relative="1" as="geometry">
            <mxPoint x="1190" y="2110" as="sourcePoint" />
            <mxPoint x="1240" y="2060" as="targetPoint" />
            <Array as="points">
              <mxPoint x="900" y="2240" />
              <mxPoint x="980" y="1950" />
              <mxPoint x="1070" y="1930" />
            </Array>
          </mxGeometry>
        </mxCell>
        <mxCell id="EpxnI0TyvXHU5322iV-h-202" value="Central Zone" style="text;html=1;align=center;verticalAlign=middle;resizable=0;points=[];autosize=1;strokeColor=none;fillColor=none;fontSize=30;fontColor=#000000;" parent="1" vertex="1">
          <mxGeometry x="1085" y="2000" width="190" height="40" as="geometry" />
        </mxCell>
        <mxCell id="EpxnI0TyvXHU5322iV-h-203" value="Khariboli" style="text;html=1;align=center;verticalAlign=middle;resizable=0;points=[];autosize=1;strokeColor=none;fillColor=none;fontSize=30;fontColor=#000000;" parent="1" vertex="1">
          <mxGeometry x="1350" y="2000" width="130" height="40" as="geometry" />
        </mxCell>
        <mxCell id="EpxnI0TyvXHU5322iV-h-204" value="Hindustani" style="text;html=1;align=center;verticalAlign=middle;resizable=0;points=[];autosize=1;strokeColor=none;fillColor=none;fontSize=30;fontColor=#000000;" parent="1" vertex="1">
          <mxGeometry x="1570" y="2000" width="160" height="40" as="geometry" />
        </mxCell>
        <mxCell id="EpxnI0TyvXHU5322iV-h-205" value="HINDI" style="text;html=1;align=center;verticalAlign=middle;resizable=0;points=[];autosize=1;strokeColor=none;fillColor=none;fontSize=30;fontColor=#000000;" parent="1" vertex="1">
          <mxGeometry x="2025" y="1840" width="100" height="40" as="geometry" />
        </mxCell>
        <mxCell id="EpxnI0TyvXHU5322iV-h-206" value="DAKHINI" style="text;html=1;align=center;verticalAlign=middle;resizable=0;points=[];autosize=1;strokeColor=none;fillColor=none;fontSize=30;fontColor=#000000;" parent="1" vertex="1">
          <mxGeometry x="1362.5" y="2147.5" width="140" height="40" as="geometry" />
        </mxCell>
        <mxCell id="EpxnI0TyvXHU5322iV-h-207" value="Eastern Hindi" style="text;html=1;align=center;verticalAlign=middle;resizable=0;points=[];autosize=1;strokeColor=none;fillColor=none;fontSize=30;fontColor=#000000;" parent="1" vertex="1">
          <mxGeometry x="1350" y="2370" width="200" height="40" as="geometry" />
        </mxCell>
        <mxCell id="EpxnI0TyvXHU5322iV-h-208" value="" style="shape=waypoint;sketch=0;fillStyle=solid;size=6;pointerEvents=1;points=[];fillColor=none;resizable=0;rotatable=0;perimeter=centerPerimeter;snapToPoint=1;labelBackgroundColor=none;fontSize=30;fontColor=#000000;strokeWidth=2;" parent="1" vertex="1">
          <mxGeometry x="1660" y="1910" width="40" height="40" as="geometry" />
        </mxCell>
        <mxCell id="EpxnI0TyvXHU5322iV-h-209" value="" style="endArrow=none;html=1;fontSize=30;fontColor=#000000;strokeWidth=2;curved=1;exitX=0.458;exitY=1.182;exitDx=0;exitDy=0;exitPerimeter=0;entryX=0.458;entryY=1.123;entryDx=0;entryDy=0;entryPerimeter=0;" parent="1" source="EpxnI0TyvXHU5322iV-h-198" target="EpxnI0TyvXHU5322iV-h-208" edge="1">
          <mxGeometry width="50" height="50" relative="1" as="geometry">
            <mxPoint x="1780" y="2110" as="sourcePoint" />
            <mxPoint x="1830" y="2060" as="targetPoint" />
          </mxGeometry>
        </mxCell>
        <mxCell id="EpxnI0TyvXHU5322iV-h-210" value="" style="ellipse;whiteSpace=wrap;html=1;aspect=fixed;labelBackgroundColor=none;fontSize=30;fontColor=#000000;strokeWidth=2;fillColor=#FF0000;strokeColor=none;" parent="1" vertex="1">
          <mxGeometry x="1693.75" y="1880" width="75" height="75" as="geometry" />
        </mxCell>
        <mxCell id="EpxnI0TyvXHU5322iV-h-211" value="" style="ellipse;whiteSpace=wrap;html=1;strokeWidth=2;fillWeight=2;hachureGap=8;fillColor=#000000;fillStyle=dots;sketch=1;labelBackgroundColor=none;fontSize=30;fontColor=#000000;strokeColor=none;" parent="1" vertex="1">
          <mxGeometry x="1701.25" y="1883.5" width="60" height="68" as="geometry" />
        </mxCell>
        <mxCell id="EpxnI0TyvXHU5322iV-h-212" value="" style="shape=waypoint;sketch=0;fillStyle=solid;size=6;pointerEvents=1;points=[];fillColor=none;resizable=0;rotatable=0;perimeter=centerPerimeter;snapToPoint=1;labelBackgroundColor=none;fontSize=30;fontColor=#000000;strokeWidth=2;" parent="1" vertex="1">
          <mxGeometry x="1661.25" y="1911.5" width="40" height="40" as="geometry" />
        </mxCell>
        <mxCell id="EpxnI0TyvXHU5322iV-h-213" value="" style="shape=waypoint;sketch=0;fillStyle=solid;size=6;pointerEvents=1;points=[];fillColor=none;resizable=0;rotatable=0;perimeter=centerPerimeter;snapToPoint=1;labelBackgroundColor=none;fontSize=30;fontColor=#000000;strokeWidth=2;" parent="1" vertex="1">
          <mxGeometry x="1175" y="2030" width="40" height="40" as="geometry" />
        </mxCell>
        <mxCell id="EpxnI0TyvXHU5322iV-h-214" value="" style="shape=waypoint;sketch=0;fillStyle=solid;size=6;pointerEvents=1;points=[];fillColor=none;resizable=0;rotatable=0;perimeter=centerPerimeter;snapToPoint=1;labelBackgroundColor=none;fontSize=30;fontColor=#000000;strokeWidth=2;" parent="1" vertex="1">
          <mxGeometry x="1410" y="2030" width="40" height="40" as="geometry" />
        </mxCell>
        <mxCell id="EpxnI0TyvXHU5322iV-h-215" value="" style="shape=waypoint;sketch=0;fillStyle=solid;size=6;pointerEvents=1;points=[];fillColor=none;resizable=0;rotatable=0;perimeter=centerPerimeter;snapToPoint=1;labelBackgroundColor=none;fontSize=30;fontColor=#000000;strokeWidth=2;" parent="1" vertex="1">
          <mxGeometry x="1660" y="2030" width="40" height="40" as="geometry" />
        </mxCell>
        <mxCell id="EpxnI0TyvXHU5322iV-h-216" value="" style="shape=waypoint;sketch=0;fillStyle=solid;size=6;pointerEvents=1;points=[];fillColor=none;resizable=0;rotatable=0;perimeter=centerPerimeter;snapToPoint=1;labelBackgroundColor=none;fontSize=30;fontColor=#000000;strokeWidth=2;" parent="1" vertex="1">
          <mxGeometry x="2064" y="1880" width="40" height="40" as="geometry" />
        </mxCell>
        <mxCell id="EpxnI0TyvXHU5322iV-h-217" value="" style="endArrow=none;html=1;fontSize=30;fontColor=#000000;strokeWidth=2;curved=1;exitX=0.958;exitY=1.004;exitDx=0;exitDy=0;exitPerimeter=0;entryX=1.125;entryY=1;entryDx=0;entryDy=0;entryPerimeter=0;" parent="1" source="EpxnI0TyvXHU5322iV-h-192" target="EpxnI0TyvXHU5322iV-h-213" edge="1">
          <mxGeometry width="50" height="50" relative="1" as="geometry">
            <mxPoint x="1320" y="2110" as="sourcePoint" />
            <mxPoint x="1370" y="2060" as="targetPoint" />
            <Array as="points">
              <mxPoint x="920" y="2240" />
              <mxPoint x="1030" y="2230" />
              <mxPoint x="1050" y="2070" />
              <mxPoint x="1110" y="2050" />
            </Array>
          </mxGeometry>
        </mxCell>
        <mxCell id="EpxnI0TyvXHU5322iV-h-218" value="" style="endArrow=none;html=1;fontSize=30;fontColor=#000000;strokeWidth=2;curved=1;" parent="1" source="EpxnI0TyvXHU5322iV-h-213" target="EpxnI0TyvXHU5322iV-h-214" edge="1">
          <mxGeometry width="50" height="50" relative="1" as="geometry">
            <mxPoint x="1290" y="2110" as="sourcePoint" />
            <mxPoint x="1340" y="2060" as="targetPoint" />
          </mxGeometry>
        </mxCell>
        <mxCell id="EpxnI0TyvXHU5322iV-h-219" value="" style="endArrow=none;html=1;fontSize=30;fontColor=#000000;strokeWidth=2;curved=1;exitX=0.375;exitY=0.658;exitDx=0;exitDy=0;exitPerimeter=0;" parent="1" source="EpxnI0TyvXHU5322iV-h-215" edge="1">
          <mxGeometry width="50" height="50" relative="1" as="geometry">
            <mxPoint x="1290" y="2110" as="sourcePoint" />
            <mxPoint x="1430" y="2050" as="targetPoint" />
          </mxGeometry>
        </mxCell>
        <mxCell id="EpxnI0TyvXHU5322iV-h-220" value="" style="endArrow=none;html=1;fontSize=30;fontColor=#000000;strokeWidth=2;curved=1;exitX=0.589;exitY=0.73;exitDx=0;exitDy=0;exitPerimeter=0;" parent="1" source="EpxnI0TyvXHU5322iV-h-215" target="EpxnI0TyvXHU5322iV-h-216" edge="1">
          <mxGeometry width="50" height="50" relative="1" as="geometry">
            <mxPoint x="2170" y="2110" as="sourcePoint" />
            <mxPoint x="2220" y="2060" as="targetPoint" />
            <Array as="points">
              <mxPoint x="1810" y="2050" />
              <mxPoint x="1930" y="2050" />
              <mxPoint x="1990" y="1910" />
              <mxPoint x="2040" y="1900" />
            </Array>
          </mxGeometry>
        </mxCell>
        <mxCell id="EpxnI0TyvXHU5322iV-h-222" value="" style="ellipse;whiteSpace=wrap;html=1;aspect=fixed;labelBackgroundColor=none;fontSize=30;fontColor=#000000;strokeWidth=2;fillColor=#FF0000;strokeColor=none;" parent="1" vertex="1">
          <mxGeometry x="2080" y="1810" width="310" height="310" as="geometry" />
        </mxCell>
        <mxCell id="EpxnI0TyvXHU5322iV-h-223" value="" style="ellipse;whiteSpace=wrap;html=1;strokeWidth=2;fillWeight=2;hachureGap=8;fillColor=#000000;fillStyle=dots;sketch=1;labelBackgroundColor=none;fontSize=30;fontColor=#000000;strokeColor=none;" parent="1" vertex="1">
          <mxGeometry x="2112.5" y="1852.5" width="245" height="225" as="geometry" />
        </mxCell>
        <mxCell id="EpxnI0TyvXHU5322iV-h-224" value="URDU" style="text;html=1;align=center;verticalAlign=middle;resizable=0;points=[];autosize=1;strokeColor=none;fillColor=none;fontSize=30;fontColor=#000000;" parent="1" vertex="1">
          <mxGeometry x="2480" y="2107.5" width="100" height="40" as="geometry" />
        </mxCell>
        <mxCell id="EpxnI0TyvXHU5322iV-h-225" value="" style="shape=waypoint;sketch=0;fillStyle=solid;size=6;pointerEvents=1;points=[];fillColor=none;resizable=0;rotatable=0;perimeter=centerPerimeter;snapToPoint=1;labelBackgroundColor=none;fontSize=30;fontColor=#000000;strokeWidth=2;" parent="1" vertex="1">
          <mxGeometry x="2555" y="2131" width="40" height="40" as="geometry" />
        </mxCell>
        <mxCell id="EpxnI0TyvXHU5322iV-h-226" value="" style="endArrow=none;html=1;fontSize=30;fontColor=#000000;strokeWidth=2;curved=1;" parent="1" source="EpxnI0TyvXHU5322iV-h-215" edge="1">
          <mxGeometry width="50" height="50" relative="1" as="geometry">
            <mxPoint x="1900" y="1710" as="sourcePoint" />
            <mxPoint x="2575" y="2150" as="targetPoint" />
            <Array as="points">
              <mxPoint x="1970" y="2060" />
              <mxPoint x="1970" y="2150" />
              <mxPoint x="2260" y="2150" />
            </Array>
          </mxGeometry>
        </mxCell>
        <mxCell id="EpxnI0TyvXHU5322iV-h-232" value="" style="ellipse;whiteSpace=wrap;html=1;aspect=fixed;labelBackgroundColor=none;fontSize=30;fontColor=#000000;strokeWidth=2;fillColor=#FF0000;strokeColor=none;" parent="1" vertex="1">
          <mxGeometry x="1495" y="2112.5" width="75" height="75" as="geometry" />
        </mxCell>
        <mxCell id="EpxnI0TyvXHU5322iV-h-233" value="" style="ellipse;whiteSpace=wrap;html=1;strokeWidth=2;fillWeight=2;hachureGap=8;fillColor=#000000;fillStyle=dots;sketch=1;labelBackgroundColor=none;fontSize=30;fontColor=#000000;strokeColor=none;" parent="1" vertex="1">
          <mxGeometry x="1502.5" y="2116" width="60" height="68" as="geometry" />
        </mxCell>
        <mxCell id="EpxnI0TyvXHU5322iV-h-235" value="" style="shape=waypoint;sketch=0;fillStyle=solid;size=6;pointerEvents=1;points=[];fillColor=none;resizable=0;rotatable=0;perimeter=centerPerimeter;snapToPoint=1;labelBackgroundColor=none;fontSize=30;fontColor=#000000;strokeWidth=2;" parent="1" vertex="1">
          <mxGeometry x="1488.5" y="2180" width="40" height="40" as="geometry" />
        </mxCell>
        <mxCell id="EpxnI0TyvXHU5322iV-h-236" value="" style="endArrow=none;html=1;fontSize=30;fontColor=#000000;strokeWidth=2;curved=1;exitX=0.625;exitY=1;exitDx=0;exitDy=0;exitPerimeter=0;" parent="1" source="EpxnI0TyvXHU5322iV-h-213" edge="1">
          <mxGeometry width="50" height="50" relative="1" as="geometry">
            <mxPoint x="1780" y="1710" as="sourcePoint" />
            <mxPoint x="1500" y="2200" as="targetPoint" />
            <Array as="points">
              <mxPoint x="1260" y="2080" />
              <mxPoint x="1250" y="2210" />
            </Array>
          </mxGeometry>
        </mxCell>
        <mxCell id="EpxnI0TyvXHU5322iV-h-237" value="" style="shape=waypoint;sketch=0;fillStyle=solid;size=6;pointerEvents=1;points=[];fillColor=none;resizable=0;rotatable=0;perimeter=centerPerimeter;snapToPoint=1;labelBackgroundColor=none;fontSize=30;fontColor=#000000;strokeWidth=2;" parent="1" vertex="1">
          <mxGeometry x="1430" y="2350" width="40" height="40" as="geometry" />
        </mxCell>
        <mxCell id="EpxnI0TyvXHU5322iV-h-238" value="" style="endArrow=none;html=1;fontSize=30;fontColor=#000000;strokeWidth=2;curved=1;exitX=0.382;exitY=0.721;exitDx=0;exitDy=0;exitPerimeter=0;entryX=0.036;entryY=0.636;entryDx=0;entryDy=0;entryPerimeter=0;" parent="1" source="EpxnI0TyvXHU5322iV-h-213" target="EpxnI0TyvXHU5322iV-h-237" edge="1">
          <mxGeometry width="50" height="50" relative="1" as="geometry">
            <mxPoint x="1140" y="2250" as="sourcePoint" />
            <mxPoint x="1830" y="1660" as="targetPoint" />
            <Array as="points">
              <mxPoint x="1230" y="2130" />
              <mxPoint x="1230" y="2210" />
              <mxPoint x="1220" y="2340" />
              <mxPoint x="1270" y="2370" />
              <mxPoint x="1370" y="2370" />
            </Array>
          </mxGeometry>
        </mxCell>
        <mxCell id="EpxnI0TyvXHU5322iV-h-239" value="" style="shape=waypoint;sketch=0;fillStyle=solid;size=6;pointerEvents=1;points=[];fillColor=none;resizable=0;rotatable=0;perimeter=centerPerimeter;snapToPoint=1;labelBackgroundColor=none;fontSize=30;fontColor=#000000;strokeWidth=2;" parent="1" vertex="1">
          <mxGeometry x="1910" y="2350" width="40" height="40" as="geometry" />
        </mxCell>
        <mxCell id="EpxnI0TyvXHU5322iV-h-240" value="" style="endArrow=none;html=1;fontSize=30;fontColor=#000000;strokeWidth=2;curved=1;exitX=0.607;exitY=0.55;exitDx=0;exitDy=0;exitPerimeter=0;entryX=0.55;entryY=0.607;entryDx=0;entryDy=0;entryPerimeter=0;" parent="1" source="EpxnI0TyvXHU5322iV-h-237" target="EpxnI0TyvXHU5322iV-h-239" edge="1">
          <mxGeometry width="50" height="50" relative="1" as="geometry">
            <mxPoint x="2020" y="2220" as="sourcePoint" />
            <mxPoint x="2070" y="2170" as="targetPoint" />
          </mxGeometry>
        </mxCell>
        <mxCell id="EpxnI0TyvXHU5322iV-h-241" value="CHHATTISGARHI" style="text;html=1;align=center;verticalAlign=middle;resizable=0;points=[];autosize=1;strokeColor=none;fillColor=none;fontSize=30;fontColor=#000000;" parent="1" vertex="1">
          <mxGeometry x="1860" y="2290" width="260" height="40" as="geometry" />
        </mxCell>
        <mxCell id="EpxnI0TyvXHU5322iV-h-242" value="" style="ellipse;whiteSpace=wrap;html=1;aspect=fixed;labelBackgroundColor=none;fontSize=30;fontColor=#000000;strokeWidth=2;fillColor=#FF0000;strokeColor=none;" parent="1" vertex="1">
          <mxGeometry x="1936.5" y="2330" width="75" height="75" as="geometry" />
        </mxCell>
        <mxCell id="EpxnI0TyvXHU5322iV-h-243" value="" style="ellipse;whiteSpace=wrap;html=1;strokeWidth=2;fillWeight=2;hachureGap=8;fillColor=#000000;fillStyle=dots;sketch=1;labelBackgroundColor=none;fontSize=30;fontColor=#000000;strokeColor=none;" parent="1" vertex="1">
          <mxGeometry x="1944" y="2333.5" width="60" height="68" as="geometry" />
        </mxCell>
        <mxCell id="EpxnI0TyvXHU5322iV-h-246" value="" style="ellipse;whiteSpace=wrap;html=1;aspect=fixed;labelBackgroundColor=none;fontSize=30;fontColor=#000000;strokeWidth=2;fillColor=#FF0000;strokeColor=none;" parent="1" vertex="1">
          <mxGeometry x="2580" y="2060" width="167.5" height="167.5" as="geometry" />
        </mxCell>
        <mxCell id="EpxnI0TyvXHU5322iV-h-247" value="" style="ellipse;whiteSpace=wrap;html=1;strokeWidth=2;fillWeight=2;hachureGap=8;fillColor=#000000;fillStyle=dots;sketch=1;labelBackgroundColor=none;fontSize=30;fontColor=#000000;strokeColor=none;" parent="1" vertex="1">
          <mxGeometry x="2602.5" y="2095.62" width="122.5" height="108.75" as="geometry" />
        </mxCell>
        <mxCell id="UtFDqvq6Qa16x0pZ_KKh-1" value="Southern&lt;br&gt;Indo-Aryan" style="text;html=1;align=center;verticalAlign=middle;resizable=0;points=[];autosize=1;strokeColor=none;fillColor=none;fontSize=30;fontColor=#000000;" vertex="1" parent="1">
          <mxGeometry x="1115" y="2490" width="160" height="80" as="geometry" />
        </mxCell>
        <mxCell id="UtFDqvq6Qa16x0pZ_KKh-2" value="&lt;span style=&quot;font-size: 30px&quot;&gt;Maharashtri&lt;/span&gt;" style="text;html=1;align=center;verticalAlign=middle;resizable=0;points=[];autosize=1;strokeColor=none;fillColor=none;" vertex="1" parent="1">
          <mxGeometry x="1400" y="2585" width="170" height="30" as="geometry" />
        </mxCell>
        <mxCell id="UtFDqvq6Qa16x0pZ_KKh-3" value="Marathi-Konkani" style="text;html=1;align=center;verticalAlign=middle;resizable=0;points=[];autosize=1;strokeColor=none;fillColor=none;fontSize=30;" vertex="1" parent="1">
          <mxGeometry x="1684" y="2580" width="230" height="40" as="geometry" />
        </mxCell>
        <mxCell id="UtFDqvq6Qa16x0pZ_KKh-4" value="MARATHI" style="text;html=1;align=center;verticalAlign=middle;resizable=0;points=[];autosize=1;strokeColor=none;fillColor=none;fontSize=30;" vertex="1" parent="1">
          <mxGeometry x="2135" y="2460" width="150" height="40" as="geometry" />
        </mxCell>
        <mxCell id="UtFDqvq6Qa16x0pZ_KKh-5" value="Insular Indic" style="text;html=1;align=center;verticalAlign=middle;resizable=0;points=[];autosize=1;strokeColor=none;fillColor=none;fontSize=30;" vertex="1" parent="1">
          <mxGeometry x="1425" y="2760" width="180" height="40" as="geometry" />
        </mxCell>
        <mxCell id="UtFDqvq6Qa16x0pZ_KKh-6" value="SINHALA" style="text;html=1;align=center;verticalAlign=middle;resizable=0;points=[];autosize=1;strokeColor=none;fillColor=none;fontSize=30;" vertex="1" parent="1">
          <mxGeometry x="1790" y="2673.5" width="140" height="40" as="geometry" />
        </mxCell>
        <mxCell id="UtFDqvq6Qa16x0pZ_KKh-7" value="Northwestern" style="text;html=1;align=center;verticalAlign=middle;resizable=0;points=[];autosize=1;strokeColor=none;fillColor=none;fontSize=30;" vertex="1" parent="1">
          <mxGeometry x="1050" y="3080" width="190" height="40" as="geometry" />
        </mxCell>
        <mxCell id="UtFDqvq6Qa16x0pZ_KKh-8" value="PUNJABI" style="text;html=1;align=center;verticalAlign=middle;resizable=0;points=[];autosize=1;strokeColor=none;fillColor=none;fontSize=30;" vertex="1" parent="1">
          <mxGeometry x="1373" y="2940" width="140" height="40" as="geometry" />
        </mxCell>
        <mxCell id="UtFDqvq6Qa16x0pZ_KKh-9" value="EASTERN PUNJABI" style="text;html=1;align=center;verticalAlign=middle;resizable=0;points=[];autosize=1;strokeColor=none;fillColor=none;fontSize=30;" vertex="1" parent="1">
          <mxGeometry x="1750" y="2926" width="290" height="40" as="geometry" />
        </mxCell>
        <mxCell id="UtFDqvq6Qa16x0pZ_KKh-10" value="Lahnda" style="text;html=1;align=center;verticalAlign=middle;resizable=0;points=[];autosize=1;strokeColor=none;fillColor=none;fontSize=30;" vertex="1" parent="1">
          <mxGeometry x="1767.5" y="3140" width="120" height="40" as="geometry" />
        </mxCell>
        <mxCell id="UtFDqvq6Qa16x0pZ_KKh-11" value="SARAIKI" style="text;html=1;align=center;verticalAlign=middle;resizable=0;points=[];autosize=1;strokeColor=none;fillColor=none;fontSize=30;" vertex="1" parent="1">
          <mxGeometry x="2227.5" y="3070" width="130" height="40" as="geometry" />
        </mxCell>
        <mxCell id="UtFDqvq6Qa16x0pZ_KKh-12" value="Sindl languages" style="text;html=1;align=center;verticalAlign=middle;resizable=0;points=[];autosize=1;strokeColor=none;fillColor=none;fontSize=30;" vertex="1" parent="1">
          <mxGeometry x="1400" y="3300" width="230" height="40" as="geometry" />
        </mxCell>
        <mxCell id="UtFDqvq6Qa16x0pZ_KKh-13" value="SINDHI" style="text;html=1;align=center;verticalAlign=middle;resizable=0;points=[];autosize=1;strokeColor=none;fillColor=none;fontSize=30;" vertex="1" parent="1">
          <mxGeometry x="1790" y="3216" width="120" height="40" as="geometry" />
        </mxCell>
        <mxCell id="UtFDqvq6Qa16x0pZ_KKh-14" value="Western" style="text;html=1;align=center;verticalAlign=middle;resizable=0;points=[];autosize=1;strokeColor=none;fillColor=none;fontSize=30;" vertex="1" parent="1">
          <mxGeometry x="1089" y="3560" width="130" height="40" as="geometry" />
        </mxCell>
        <mxCell id="UtFDqvq6Qa16x0pZ_KKh-15" value="Gujarati languages" style="text;html=1;align=center;verticalAlign=middle;resizable=0;points=[];autosize=1;strokeColor=none;fillColor=none;fontSize=30;" vertex="1" parent="1">
          <mxGeometry x="1397.5" y="3540" width="270" height="40" as="geometry" />
        </mxCell>
        <mxCell id="UtFDqvq6Qa16x0pZ_KKh-17" value="GUJARATI" style="text;html=1;align=center;verticalAlign=middle;resizable=0;points=[];autosize=1;strokeColor=none;fillColor=none;fontSize=30;" vertex="1" parent="1">
          <mxGeometry x="1815" y="3400" width="160" height="40" as="geometry" />
        </mxCell>
        <mxCell id="UtFDqvq6Qa16x0pZ_KKh-18" value="" style="shape=waypoint;sketch=0;fillStyle=solid;size=6;pointerEvents=1;points=[];fillColor=none;resizable=0;rotatable=0;perimeter=centerPerimeter;snapToPoint=1;fontSize=30;strokeWidth=2;" vertex="1" parent="1">
          <mxGeometry x="1175" y="2555" width="40" height="40" as="geometry" />
        </mxCell>
        <mxCell id="UtFDqvq6Qa16x0pZ_KKh-19" value="" style="shape=waypoint;sketch=0;fillStyle=solid;size=6;pointerEvents=1;points=[];fillColor=none;resizable=0;rotatable=0;perimeter=centerPerimeter;snapToPoint=1;fontSize=30;strokeWidth=2;" vertex="1" parent="1">
          <mxGeometry x="1450" y="2555" width="40" height="40" as="geometry" />
        </mxCell>
        <mxCell id="UtFDqvq6Qa16x0pZ_KKh-20" value="" style="shape=waypoint;sketch=0;fillStyle=solid;size=6;pointerEvents=1;points=[];fillColor=none;resizable=0;rotatable=0;perimeter=centerPerimeter;snapToPoint=1;fontSize=30;strokeWidth=2;" vertex="1" parent="1">
          <mxGeometry x="1790" y="2555" width="40" height="40" as="geometry" />
        </mxCell>
        <mxCell id="UtFDqvq6Qa16x0pZ_KKh-21" value="" style="shape=waypoint;sketch=0;fillStyle=solid;size=6;pointerEvents=1;points=[];fillColor=none;resizable=0;rotatable=0;perimeter=centerPerimeter;snapToPoint=1;fontSize=30;strokeWidth=2;" vertex="1" parent="1">
          <mxGeometry x="2104" y="2556" width="40" height="40" as="geometry" />
        </mxCell>
        <mxCell id="UtFDqvq6Qa16x0pZ_KKh-22" value="" style="shape=waypoint;sketch=0;fillStyle=solid;size=6;pointerEvents=1;points=[];fillColor=none;resizable=0;rotatable=0;perimeter=centerPerimeter;snapToPoint=1;fontSize=30;strokeWidth=2;" vertex="1" parent="1">
          <mxGeometry x="1452.5" y="2730" width="40" height="40" as="geometry" />
        </mxCell>
        <mxCell id="UtFDqvq6Qa16x0pZ_KKh-23" value="" style="shape=waypoint;sketch=0;fillStyle=solid;size=6;pointerEvents=1;points=[];fillColor=none;resizable=0;rotatable=0;perimeter=centerPerimeter;snapToPoint=1;fontSize=30;strokeWidth=2;" vertex="1" parent="1">
          <mxGeometry x="1800" y="2730" width="40" height="40" as="geometry" />
        </mxCell>
        <mxCell id="UtFDqvq6Qa16x0pZ_KKh-24" value="" style="endArrow=none;html=1;fontSize=30;strokeWidth=2;entryX=0.518;entryY=0.687;entryDx=0;entryDy=0;entryPerimeter=0;curved=1;" edge="1" parent="1" source="UtFDqvq6Qa16x0pZ_KKh-18" target="EpxnI0TyvXHU5322iV-h-192">
          <mxGeometry width="50" height="50" relative="1" as="geometry">
            <mxPoint x="1280" y="2440" as="sourcePoint" />
            <mxPoint x="1330" y="2390" as="targetPoint" />
            <Array as="points">
              <mxPoint x="1080" y="2575" />
              <mxPoint x="1020" y="2490" />
              <mxPoint x="1000" y="2250" />
            </Array>
          </mxGeometry>
        </mxCell>
        <mxCell id="UtFDqvq6Qa16x0pZ_KKh-25" value="" style="endArrow=none;html=1;rounded=0;fontSize=30;strokeWidth=2;" edge="1" parent="1" source="UtFDqvq6Qa16x0pZ_KKh-18">
          <mxGeometry width="50" height="50" relative="1" as="geometry">
            <mxPoint x="1280" y="2440" as="sourcePoint" />
            <mxPoint x="2124" y="2575" as="targetPoint" />
          </mxGeometry>
        </mxCell>
        <mxCell id="UtFDqvq6Qa16x0pZ_KKh-27" value="" style="ellipse;whiteSpace=wrap;html=1;aspect=fixed;labelBackgroundColor=none;fontSize=30;fontColor=#000000;strokeWidth=2;fillColor=#FF0000;strokeColor=none;" vertex="1" parent="1">
          <mxGeometry x="2130" y="2500" width="160" height="160" as="geometry" />
        </mxCell>
        <mxCell id="UtFDqvq6Qa16x0pZ_KKh-28" value="" style="ellipse;whiteSpace=wrap;html=1;strokeWidth=2;fillWeight=2;hachureGap=8;fillColor=#000000;fillStyle=dots;sketch=1;labelBackgroundColor=none;fontSize=30;fontColor=#000000;strokeColor=none;rotation=0;" vertex="1" parent="1">
          <mxGeometry x="2131.3799999999997" y="2500" width="157.25" height="166.5" as="geometry" />
        </mxCell>
        <mxCell id="UtFDqvq6Qa16x0pZ_KKh-30" value="" style="endArrow=none;html=1;fontSize=30;strokeWidth=2;curved=1;exitX=0.938;exitY=0.5;exitDx=0;exitDy=0;exitPerimeter=0;entryX=0.697;entryY=0.631;entryDx=0;entryDy=0;entryPerimeter=0;" edge="1" parent="1" source="UtFDqvq6Qa16x0pZ_KKh-22" target="UtFDqvq6Qa16x0pZ_KKh-23">
          <mxGeometry width="50" height="50" relative="1" as="geometry">
            <mxPoint x="1500" y="2440" as="sourcePoint" />
            <mxPoint x="1550" y="2390" as="targetPoint" />
          </mxGeometry>
        </mxCell>
        <mxCell id="UtFDqvq6Qa16x0pZ_KKh-31" value="" style="endArrow=none;html=1;fontSize=30;strokeWidth=2;curved=1;entryX=0.364;entryY=0.529;entryDx=0;entryDy=0;entryPerimeter=0;" edge="1" parent="1" source="UtFDqvq6Qa16x0pZ_KKh-18" target="UtFDqvq6Qa16x0pZ_KKh-22">
          <mxGeometry width="50" height="50" relative="1" as="geometry">
            <mxPoint x="1200" y="2540" as="sourcePoint" />
            <mxPoint x="1550" y="2390" as="targetPoint" />
            <Array as="points">
              <mxPoint x="1300" y="2590" />
              <mxPoint x="1290" y="2730" />
              <mxPoint x="1380" y="2750" />
            </Array>
          </mxGeometry>
        </mxCell>
        <mxCell id="UtFDqvq6Qa16x0pZ_KKh-32" value="" style="shape=waypoint;sketch=0;fillStyle=solid;size=6;pointerEvents=1;points=[];fillColor=none;resizable=0;rotatable=0;perimeter=centerPerimeter;snapToPoint=1;fontSize=30;strokeWidth=2;" vertex="1" parent="1">
          <mxGeometry x="1175" y="3050" width="40" height="40" as="geometry" />
        </mxCell>
        <mxCell id="UtFDqvq6Qa16x0pZ_KKh-33" value="" style="shape=waypoint;sketch=0;fillStyle=solid;size=6;pointerEvents=1;points=[];fillColor=none;resizable=0;rotatable=0;perimeter=centerPerimeter;snapToPoint=1;fontSize=30;strokeWidth=2;" vertex="1" parent="1">
          <mxGeometry x="1495" y="3050" width="40" height="40" as="geometry" />
        </mxCell>
        <mxCell id="UtFDqvq6Qa16x0pZ_KKh-34" value="" style="shape=waypoint;sketch=0;fillStyle=solid;size=6;pointerEvents=1;points=[];fillColor=none;resizable=0;rotatable=0;perimeter=centerPerimeter;snapToPoint=1;fontSize=30;strokeWidth=2;" vertex="1" parent="1">
          <mxGeometry x="1791.25" y="2980" width="40" height="40" as="geometry" />
        </mxCell>
        <mxCell id="UtFDqvq6Qa16x0pZ_KKh-35" value="" style="shape=waypoint;sketch=0;fillStyle=solid;size=6;pointerEvents=1;points=[];fillColor=none;resizable=0;rotatable=0;perimeter=centerPerimeter;snapToPoint=1;fontSize=30;strokeWidth=2;" vertex="1" parent="1">
          <mxGeometry x="1790" y="3110" width="40" height="40" as="geometry" />
        </mxCell>
        <mxCell id="UtFDqvq6Qa16x0pZ_KKh-38" value="" style="shape=waypoint;sketch=0;fillStyle=solid;size=6;pointerEvents=1;points=[];fillColor=none;resizable=0;rotatable=0;perimeter=centerPerimeter;snapToPoint=1;fontSize=30;strokeWidth=2;" vertex="1" parent="1">
          <mxGeometry x="2240" y="3110" width="40" height="40" as="geometry" />
        </mxCell>
        <mxCell id="UtFDqvq6Qa16x0pZ_KKh-39" value="" style="endArrow=none;html=1;fontSize=30;strokeWidth=2;curved=1;exitX=0.457;exitY=0.993;exitDx=0;exitDy=0;exitPerimeter=0;" edge="1" parent="1" source="EpxnI0TyvXHU5322iV-h-192" target="UtFDqvq6Qa16x0pZ_KKh-32">
          <mxGeometry width="50" height="50" relative="1" as="geometry">
            <mxPoint x="1090" y="2720" as="sourcePoint" />
            <mxPoint x="1140" y="2670" as="targetPoint" />
            <Array as="points">
              <mxPoint x="970" y="2300" />
              <mxPoint x="960" y="2960" />
              <mxPoint x="1060" y="3060" />
            </Array>
          </mxGeometry>
        </mxCell>
        <mxCell id="UtFDqvq6Qa16x0pZ_KKh-41" value="" style="endArrow=none;html=1;fontSize=30;strokeWidth=2;curved=1;exitX=0.914;exitY=-0.022;exitDx=0;exitDy=0;exitPerimeter=0;entryX=0.669;entryY=0.386;entryDx=0;entryDy=0;entryPerimeter=0;" edge="1" parent="1" source="UtFDqvq6Qa16x0pZ_KKh-32" target="UtFDqvq6Qa16x0pZ_KKh-33">
          <mxGeometry width="50" height="50" relative="1" as="geometry">
            <mxPoint x="1470" y="2720" as="sourcePoint" />
            <mxPoint x="1520" y="2670" as="targetPoint" />
          </mxGeometry>
        </mxCell>
        <mxCell id="UtFDqvq6Qa16x0pZ_KKh-42" value="" style="endArrow=none;html=1;fontSize=30;strokeWidth=2;curved=1;" edge="1" parent="1" source="UtFDqvq6Qa16x0pZ_KKh-33" target="UtFDqvq6Qa16x0pZ_KKh-34">
          <mxGeometry width="50" height="50" relative="1" as="geometry">
            <mxPoint x="1470" y="2720" as="sourcePoint" />
            <mxPoint x="1520" y="2670" as="targetPoint" />
            <Array as="points">
              <mxPoint x="1590" y="3030" />
              <mxPoint x="1600" y="3000" />
            </Array>
          </mxGeometry>
        </mxCell>
        <mxCell id="UtFDqvq6Qa16x0pZ_KKh-43" value="" style="endArrow=none;html=1;fontSize=30;strokeWidth=2;curved=1;startArrow=none;" edge="1" parent="1" source="UtFDqvq6Qa16x0pZ_KKh-50" target="UtFDqvq6Qa16x0pZ_KKh-35">
          <mxGeometry width="50" height="50" relative="1" as="geometry">
            <mxPoint x="1525" y="3080" as="sourcePoint" />
            <mxPoint x="1821.25" y="3010" as="targetPoint" />
            <Array as="points">
              <mxPoint x="1600" y="3110" />
              <mxPoint x="1610" y="3130" />
            </Array>
          </mxGeometry>
        </mxCell>
        <mxCell id="UtFDqvq6Qa16x0pZ_KKh-44" value="" style="shape=waypoint;sketch=0;fillStyle=solid;size=6;pointerEvents=1;points=[];fillColor=none;resizable=0;rotatable=0;perimeter=centerPerimeter;snapToPoint=1;labelBackgroundColor=none;fontSize=30;fontColor=#000000;strokeWidth=2;" vertex="1" parent="1">
          <mxGeometry x="1800" y="2730" width="40" height="40" as="geometry" />
        </mxCell>
        <mxCell id="UtFDqvq6Qa16x0pZ_KKh-45" value="" style="ellipse;whiteSpace=wrap;html=1;aspect=fixed;labelBackgroundColor=none;fontSize=30;fontColor=#000000;strokeWidth=2;fillColor=#FF0000;strokeColor=none;" vertex="1" parent="1">
          <mxGeometry x="1826.5" y="2710" width="75" height="75" as="geometry" />
        </mxCell>
        <mxCell id="UtFDqvq6Qa16x0pZ_KKh-46" value="" style="ellipse;whiteSpace=wrap;html=1;strokeWidth=2;fillWeight=2;hachureGap=8;fillColor=#000000;fillStyle=dots;sketch=1;labelBackgroundColor=none;fontSize=30;fontColor=#000000;strokeColor=none;" vertex="1" parent="1">
          <mxGeometry x="1834" y="2713.5" width="60" height="68" as="geometry" />
        </mxCell>
        <mxCell id="UtFDqvq6Qa16x0pZ_KKh-48" value="" style="ellipse;whiteSpace=wrap;html=1;aspect=fixed;labelBackgroundColor=none;fontSize=30;fontColor=#000000;strokeWidth=2;fillColor=#FF0000;strokeColor=none;" vertex="1" parent="1">
          <mxGeometry x="1363" y="2973.5" width="160" height="160" as="geometry" />
        </mxCell>
        <mxCell id="UtFDqvq6Qa16x0pZ_KKh-49" value="" style="ellipse;whiteSpace=wrap;html=1;strokeWidth=2;fillWeight=2;hachureGap=8;fillColor=#000000;fillStyle=dots;sketch=1;labelBackgroundColor=none;fontSize=30;fontColor=#000000;strokeColor=none;rotation=0;" vertex="1" parent="1">
          <mxGeometry x="1364.3799999999997" y="2973.5" width="157.25" height="166.5" as="geometry" />
        </mxCell>
        <mxCell id="UtFDqvq6Qa16x0pZ_KKh-50" value="" style="shape=waypoint;sketch=0;fillStyle=solid;size=6;pointerEvents=1;points=[];fillColor=none;resizable=0;rotatable=0;perimeter=centerPerimeter;snapToPoint=1;fontSize=30;strokeWidth=2;" vertex="1" parent="1">
          <mxGeometry x="1505" y="3050" width="40" height="40" as="geometry" />
        </mxCell>
        <mxCell id="UtFDqvq6Qa16x0pZ_KKh-51" value="" style="endArrow=none;html=1;fontSize=30;strokeWidth=2;curved=1;" edge="1" parent="1" source="UtFDqvq6Qa16x0pZ_KKh-33" target="UtFDqvq6Qa16x0pZ_KKh-50">
          <mxGeometry width="50" height="50" relative="1" as="geometry">
            <mxPoint x="1515" y="3070" as="sourcePoint" />
            <mxPoint x="1810" y="3130" as="targetPoint" />
            <Array as="points" />
          </mxGeometry>
        </mxCell>
        <mxCell id="UtFDqvq6Qa16x0pZ_KKh-52" value="" style="endArrow=none;html=1;fontSize=30;strokeWidth=2;curved=1;exitX=0.608;exitY=0.427;exitDx=0;exitDy=0;exitPerimeter=0;entryX=0.684;entryY=0.529;entryDx=0;entryDy=0;entryPerimeter=0;" edge="1" parent="1" source="UtFDqvq6Qa16x0pZ_KKh-32" target="UtFDqvq6Qa16x0pZ_KKh-50">
          <mxGeometry width="50" height="50" relative="1" as="geometry">
            <mxPoint x="1580" y="2840" as="sourcePoint" />
            <mxPoint x="1630" y="2790" as="targetPoint" />
          </mxGeometry>
        </mxCell>
        <mxCell id="UtFDqvq6Qa16x0pZ_KKh-53" value="" style="ellipse;whiteSpace=wrap;html=1;aspect=fixed;labelBackgroundColor=none;fontSize=30;fontColor=#000000;strokeWidth=2;fillColor=#FF0000;strokeColor=none;" vertex="1" parent="1">
          <mxGeometry x="1815" y="2962.5" width="75" height="75" as="geometry" />
        </mxCell>
        <mxCell id="UtFDqvq6Qa16x0pZ_KKh-54" value="" style="ellipse;whiteSpace=wrap;html=1;strokeWidth=2;fillWeight=2;hachureGap=8;fillColor=#000000;fillStyle=dots;sketch=1;labelBackgroundColor=none;fontSize=30;fontColor=#000000;strokeColor=none;" vertex="1" parent="1">
          <mxGeometry x="1822.5" y="2966" width="60" height="68" as="geometry" />
        </mxCell>
        <mxCell id="UtFDqvq6Qa16x0pZ_KKh-55" value="" style="endArrow=none;html=1;fontSize=30;strokeWidth=2;curved=1;exitX=0.702;exitY=0.416;exitDx=0;exitDy=0;exitPerimeter=0;entryX=0.493;entryY=0.62;entryDx=0;entryDy=0;entryPerimeter=0;" edge="1" parent="1" source="UtFDqvq6Qa16x0pZ_KKh-35" target="UtFDqvq6Qa16x0pZ_KKh-38">
          <mxGeometry width="50" height="50" relative="1" as="geometry">
            <mxPoint x="2000" y="2840" as="sourcePoint" />
            <mxPoint x="2050" y="2790" as="targetPoint" />
          </mxGeometry>
        </mxCell>
        <mxCell id="UtFDqvq6Qa16x0pZ_KKh-56" value="" style="ellipse;whiteSpace=wrap;html=1;aspect=fixed;labelBackgroundColor=none;fontSize=30;fontColor=#000000;strokeWidth=2;fillColor=#FF0000;strokeColor=none;" vertex="1" parent="1">
          <mxGeometry x="2267.5" y="3100" width="65" height="65" as="geometry" />
        </mxCell>
        <mxCell id="UtFDqvq6Qa16x0pZ_KKh-57" value="" style="ellipse;whiteSpace=wrap;html=1;strokeWidth=2;fillWeight=2;hachureGap=8;fillColor=#000000;fillStyle=dots;sketch=1;labelBackgroundColor=none;fontSize=30;fontColor=#000000;strokeColor=none;" vertex="1" parent="1">
          <mxGeometry x="2275" y="3103.5" width="52.5" height="61.5" as="geometry" />
        </mxCell>
        <mxCell id="UtFDqvq6Qa16x0pZ_KKh-58" value="" style="shape=waypoint;sketch=0;fillStyle=solid;size=6;pointerEvents=1;points=[];fillColor=none;resizable=0;rotatable=0;perimeter=centerPerimeter;snapToPoint=1;fontSize=30;strokeWidth=2;" vertex="1" parent="1">
          <mxGeometry x="1448.5" y="3260" width="40" height="40" as="geometry" />
        </mxCell>
        <mxCell id="UtFDqvq6Qa16x0pZ_KKh-59" value="" style="shape=waypoint;sketch=0;fillStyle=solid;size=6;pointerEvents=1;points=[];fillColor=none;resizable=0;rotatable=0;perimeter=centerPerimeter;snapToPoint=1;fontSize=30;strokeWidth=2;" vertex="1" parent="1">
          <mxGeometry x="1794" y="3260" width="40" height="40" as="geometry" />
        </mxCell>
        <mxCell id="UtFDqvq6Qa16x0pZ_KKh-60" value="" style="endArrow=none;html=1;fontSize=30;strokeWidth=2;curved=1;" edge="1" parent="1" source="UtFDqvq6Qa16x0pZ_KKh-32" target="UtFDqvq6Qa16x0pZ_KKh-58">
          <mxGeometry width="50" height="50" relative="1" as="geometry">
            <mxPoint x="1430" y="3070" as="sourcePoint" />
            <mxPoint x="1480" y="3020" as="targetPoint" />
            <Array as="points">
              <mxPoint x="1330" y="3110" />
              <mxPoint x="1310" y="3280" />
              <mxPoint x="1390" y="3280" />
            </Array>
          </mxGeometry>
        </mxCell>
        <mxCell id="UtFDqvq6Qa16x0pZ_KKh-61" value="" style="endArrow=none;html=1;fontSize=30;strokeWidth=2;curved=1;exitX=0.586;exitY=0.36;exitDx=0;exitDy=0;exitPerimeter=0;entryX=0.724;entryY=0.462;entryDx=0;entryDy=0;entryPerimeter=0;" edge="1" parent="1" source="UtFDqvq6Qa16x0pZ_KKh-58" target="UtFDqvq6Qa16x0pZ_KKh-59">
          <mxGeometry width="50" height="50" relative="1" as="geometry">
            <mxPoint x="1840" y="3070" as="sourcePoint" />
            <mxPoint x="1890" y="3020" as="targetPoint" />
          </mxGeometry>
        </mxCell>
        <mxCell id="UtFDqvq6Qa16x0pZ_KKh-62" value="" style="ellipse;whiteSpace=wrap;html=1;aspect=fixed;labelBackgroundColor=none;fontSize=30;fontColor=#000000;strokeWidth=2;fillColor=#FF0000;strokeColor=none;" vertex="1" parent="1">
          <mxGeometry x="1820" y="3247.5" width="65" height="65" as="geometry" />
        </mxCell>
        <mxCell id="UtFDqvq6Qa16x0pZ_KKh-63" value="" style="ellipse;whiteSpace=wrap;html=1;strokeWidth=2;fillWeight=2;hachureGap=8;fillColor=#000000;fillStyle=dots;sketch=1;labelBackgroundColor=none;fontSize=30;fontColor=#000000;strokeColor=none;" vertex="1" parent="1">
          <mxGeometry x="1827.5" y="3251" width="52.5" height="61.5" as="geometry" />
        </mxCell>
        <mxCell id="UtFDqvq6Qa16x0pZ_KKh-64" value="" style="shape=waypoint;sketch=0;fillStyle=solid;size=6;pointerEvents=1;points=[];fillColor=none;resizable=0;rotatable=0;perimeter=centerPerimeter;snapToPoint=1;fontSize=30;strokeWidth=2;" vertex="1" parent="1">
          <mxGeometry x="1175" y="3500" width="40" height="40" as="geometry" />
        </mxCell>
        <mxCell id="UtFDqvq6Qa16x0pZ_KKh-65" value="" style="shape=waypoint;sketch=0;fillStyle=solid;size=6;pointerEvents=1;points=[];fillColor=none;resizable=0;rotatable=0;perimeter=centerPerimeter;snapToPoint=1;fontSize=30;strokeWidth=2;" vertex="1" parent="1">
          <mxGeometry x="1455" y="3500" width="40" height="40" as="geometry" />
        </mxCell>
        <mxCell id="UtFDqvq6Qa16x0pZ_KKh-66" value="" style="shape=waypoint;sketch=0;fillStyle=solid;size=6;pointerEvents=1;points=[];fillColor=none;resizable=0;rotatable=0;perimeter=centerPerimeter;snapToPoint=1;fontSize=30;strokeWidth=2;" vertex="1" parent="1">
          <mxGeometry x="1794" y="3500" width="40" height="40" as="geometry" />
        </mxCell>
        <mxCell id="UtFDqvq6Qa16x0pZ_KKh-67" value="" style="endArrow=none;html=1;fontSize=30;strokeWidth=2;curved=1;exitX=0.398;exitY=0.544;exitDx=0;exitDy=0;exitPerimeter=0;" edge="1" parent="1" source="UtFDqvq6Qa16x0pZ_KKh-66" target="UtFDqvq6Qa16x0pZ_KKh-64">
          <mxGeometry width="50" height="50" relative="1" as="geometry">
            <mxPoint x="1520" y="3290" as="sourcePoint" />
            <mxPoint x="1570" y="3240" as="targetPoint" />
          </mxGeometry>
        </mxCell>
        <mxCell id="UtFDqvq6Qa16x0pZ_KKh-69" value="" style="endArrow=none;html=1;fontSize=30;strokeWidth=2;curved=1;entryX=0.421;entryY=0.771;entryDx=0;entryDy=0;entryPerimeter=0;exitX=-0.089;exitY=0.457;exitDx=0;exitDy=0;exitPerimeter=0;" edge="1" parent="1" source="UtFDqvq6Qa16x0pZ_KKh-64" target="EpxnI0TyvXHU5322iV-h-192">
          <mxGeometry width="50" height="50" relative="1" as="geometry">
            <mxPoint x="870" y="2970" as="sourcePoint" />
            <mxPoint x="920" y="2920" as="targetPoint" />
            <Array as="points">
              <mxPoint x="1060" y="3520" />
              <mxPoint x="890" y="3340" />
              <mxPoint x="910" y="2420" />
            </Array>
          </mxGeometry>
        </mxCell>
        <mxCell id="UtFDqvq6Qa16x0pZ_KKh-73" value="" style="ellipse;whiteSpace=wrap;html=1;aspect=fixed;labelBackgroundColor=none;fontSize=30;fontColor=#000000;strokeWidth=2;fillColor=#FF0000;strokeColor=none;" vertex="1" parent="1">
          <mxGeometry x="1818" y="3440" width="143.5" height="143.5" as="geometry" />
        </mxCell>
        <mxCell id="UtFDqvq6Qa16x0pZ_KKh-74" value="" style="ellipse;whiteSpace=wrap;html=1;strokeWidth=2;fillWeight=2;hachureGap=8;fillColor=#000000;fillStyle=dots;sketch=1;labelBackgroundColor=none;fontSize=30;fontColor=#000000;strokeColor=none;rotation=0;" vertex="1" parent="1">
          <mxGeometry x="1819.38" y="3440" width="140.62" height="150" as="geometry" />
        </mxCell>
        <mxCell id="UtFDqvq6Qa16x0pZ_KKh-78" value="Magadhi Prakrit" style="text;html=1;align=center;verticalAlign=middle;resizable=0;points=[];autosize=1;strokeColor=none;fillColor=none;fontSize=30;" vertex="1" parent="1">
          <mxGeometry x="1020" y="3920" width="230" height="40" as="geometry" />
        </mxCell>
        <mxCell id="UtFDqvq6Qa16x0pZ_KKh-79" value="Eastern Zone" style="text;html=1;align=center;verticalAlign=middle;resizable=0;points=[];autosize=1;strokeColor=none;fillColor=none;fontSize=30;" vertex="1" parent="1">
          <mxGeometry x="1432.5" y="3860" width="200" height="40" as="geometry" />
        </mxCell>
        <mxCell id="UtFDqvq6Qa16x0pZ_KKh-80" value="Bengali-Assamese" style="text;html=1;align=center;verticalAlign=middle;resizable=0;points=[];autosize=1;strokeColor=none;fillColor=none;fontSize=30;" vertex="1" parent="1">
          <mxGeometry x="1750" y="3680" width="270" height="40" as="geometry" />
        </mxCell>
        <mxCell id="UtFDqvq6Qa16x0pZ_KKh-81" value="Bihari" style="text;html=1;align=center;verticalAlign=middle;resizable=0;points=[];autosize=1;strokeColor=none;fillColor=none;fontSize=30;" vertex="1" parent="1">
          <mxGeometry x="1974" y="4110" width="90" height="40" as="geometry" />
        </mxCell>
        <mxCell id="UtFDqvq6Qa16x0pZ_KKh-82" value="BENGALI" style="text;html=1;align=center;verticalAlign=middle;resizable=0;points=[];autosize=1;strokeColor=none;fillColor=none;fontSize=30;" vertex="1" parent="1">
          <mxGeometry x="2197.44" y="3480" width="150" height="40" as="geometry" />
        </mxCell>
        <mxCell id="UtFDqvq6Qa16x0pZ_KKh-83" value="ASSAMESE" style="text;html=1;align=center;verticalAlign=middle;resizable=0;points=[];autosize=1;strokeColor=none;fillColor=none;fontSize=30;" vertex="1" parent="1">
          <mxGeometry x="2535" y="3720" width="180" height="40" as="geometry" />
        </mxCell>
        <mxCell id="UtFDqvq6Qa16x0pZ_KKh-84" value="CHITTAGONIAN" style="text;html=1;align=center;verticalAlign=middle;resizable=0;points=[];autosize=1;strokeColor=none;fillColor=none;fontSize=30;" vertex="1" parent="1">
          <mxGeometry x="2525" y="3789.25" width="240" height="40" as="geometry" />
        </mxCell>
        <mxCell id="UtFDqvq6Qa16x0pZ_KKh-85" value="SYLHETI" style="text;html=1;align=center;verticalAlign=middle;resizable=0;points=[];autosize=1;strokeColor=none;fillColor=none;fontSize=30;" vertex="1" parent="1">
          <mxGeometry x="2530" y="3880" width="140" height="40" as="geometry" />
        </mxCell>
        <mxCell id="UtFDqvq6Qa16x0pZ_KKh-86" value="BHOJPURI" style="text;html=1;align=center;verticalAlign=middle;resizable=0;points=[];autosize=1;strokeColor=none;fillColor=none;fontSize=30;" vertex="1" parent="1">
          <mxGeometry x="3086.17" y="3900" width="170" height="40" as="geometry" />
        </mxCell>
        <mxCell id="UtFDqvq6Qa16x0pZ_KKh-87" value="MAGAHI" style="text;html=1;align=center;verticalAlign=middle;resizable=0;points=[];autosize=1;strokeColor=none;fillColor=none;fontSize=30;" vertex="1" parent="1">
          <mxGeometry x="3047.04" y="4022.37" width="130" height="40" as="geometry" />
        </mxCell>
        <mxCell id="UtFDqvq6Qa16x0pZ_KKh-88" value="SADRI" style="text;html=1;align=center;verticalAlign=middle;resizable=0;points=[];autosize=1;strokeColor=none;fillColor=none;fontSize=30;" vertex="1" parent="1">
          <mxGeometry x="3020" y="4113.14" width="110" height="40" as="geometry" />
        </mxCell>
        <mxCell id="UtFDqvq6Qa16x0pZ_KKh-89" value="MAITHILI" style="text;html=1;align=center;verticalAlign=middle;resizable=0;points=[];autosize=1;strokeColor=none;fillColor=none;fontSize=30;" vertex="1" parent="1">
          <mxGeometry x="3037.04" y="4204.05" width="140" height="40" as="geometry" />
        </mxCell>
        <mxCell id="UtFDqvq6Qa16x0pZ_KKh-90" value="ODIA" style="text;html=1;align=center;verticalAlign=middle;resizable=0;points=[];autosize=1;strokeColor=none;fillColor=none;fontSize=30;" vertex="1" parent="1">
          <mxGeometry x="2300" y="4170" width="90" height="40" as="geometry" />
        </mxCell>
        <mxCell id="UtFDqvq6Qa16x0pZ_KKh-91" value="" style="shape=waypoint;sketch=0;fillStyle=solid;size=6;pointerEvents=1;points=[];fillColor=none;resizable=0;rotatable=0;perimeter=centerPerimeter;snapToPoint=1;fontSize=30;strokeWidth=2;" vertex="1" parent="1">
          <mxGeometry x="1175" y="3890" width="40" height="40" as="geometry" />
        </mxCell>
        <mxCell id="UtFDqvq6Qa16x0pZ_KKh-92" value="" style="shape=waypoint;sketch=0;fillStyle=solid;size=6;pointerEvents=1;points=[];fillColor=none;resizable=0;rotatable=0;perimeter=centerPerimeter;snapToPoint=1;fontSize=30;strokeWidth=2;" vertex="1" parent="1">
          <mxGeometry x="1521.63" y="3890" width="40" height="40" as="geometry" />
        </mxCell>
        <mxCell id="UtFDqvq6Qa16x0pZ_KKh-93" value="" style="shape=waypoint;sketch=0;fillStyle=solid;size=6;pointerEvents=1;points=[];fillColor=none;resizable=0;rotatable=0;perimeter=centerPerimeter;snapToPoint=1;fontSize=30;strokeWidth=2;" vertex="1" parent="1">
          <mxGeometry x="1992.5" y="3720" width="40" height="40" as="geometry" />
        </mxCell>
        <mxCell id="UtFDqvq6Qa16x0pZ_KKh-94" value="" style="shape=waypoint;sketch=0;fillStyle=solid;size=6;pointerEvents=1;points=[];fillColor=none;resizable=0;rotatable=0;perimeter=centerPerimeter;snapToPoint=1;fontSize=30;strokeWidth=2;" vertex="1" parent="1">
          <mxGeometry x="2000" y="4050" width="40" height="40" as="geometry" />
        </mxCell>
        <mxCell id="UtFDqvq6Qa16x0pZ_KKh-95" value="" style="shape=waypoint;sketch=0;fillStyle=solid;size=6;pointerEvents=1;points=[];fillColor=none;resizable=0;rotatable=0;perimeter=centerPerimeter;snapToPoint=1;fontSize=30;strokeWidth=2;" vertex="1" parent="1">
          <mxGeometry x="2267.5" y="4240" width="40" height="40" as="geometry" />
        </mxCell>
        <mxCell id="UtFDqvq6Qa16x0pZ_KKh-96" value="" style="shape=waypoint;sketch=0;fillStyle=solid;size=6;pointerEvents=1;points=[];fillColor=none;resizable=0;rotatable=0;perimeter=centerPerimeter;snapToPoint=1;fontSize=30;strokeWidth=2;" vertex="1" parent="1">
          <mxGeometry x="2281.25" y="3520" width="40" height="40" as="geometry" />
        </mxCell>
        <mxCell id="UtFDqvq6Qa16x0pZ_KKh-97" value="" style="shape=waypoint;sketch=0;fillStyle=solid;size=6;pointerEvents=1;points=[];fillColor=none;resizable=0;rotatable=0;perimeter=centerPerimeter;snapToPoint=1;fontSize=30;strokeWidth=2;" vertex="1" parent="1">
          <mxGeometry x="2510" y="3720" width="40" height="40" as="geometry" />
        </mxCell>
        <mxCell id="UtFDqvq6Qa16x0pZ_KKh-98" value="" style="shape=waypoint;sketch=0;fillStyle=solid;size=6;pointerEvents=1;points=[];fillColor=none;resizable=0;rotatable=0;perimeter=centerPerimeter;snapToPoint=1;fontSize=30;strokeWidth=2;" vertex="1" parent="1">
          <mxGeometry x="2505" y="3789.25" width="40" height="40" as="geometry" />
        </mxCell>
        <mxCell id="UtFDqvq6Qa16x0pZ_KKh-99" value="" style="shape=waypoint;sketch=0;fillStyle=solid;size=6;pointerEvents=1;points=[];fillColor=none;resizable=0;rotatable=0;perimeter=centerPerimeter;snapToPoint=1;fontSize=30;strokeWidth=2;" vertex="1" parent="1">
          <mxGeometry x="2510" y="3880" width="40" height="40" as="geometry" />
        </mxCell>
        <mxCell id="UtFDqvq6Qa16x0pZ_KKh-101" value="" style="endArrow=none;html=1;fontSize=30;strokeWidth=2;curved=1;entryX=0.443;entryY=1.148;entryDx=0;entryDy=0;entryPerimeter=0;" edge="1" parent="1" source="UtFDqvq6Qa16x0pZ_KKh-91" target="EpxnI0TyvXHU5322iV-h-192">
          <mxGeometry width="50" height="50" relative="1" as="geometry">
            <mxPoint x="1290" y="3120" as="sourcePoint" />
            <mxPoint x="780" y="2280" as="targetPoint" />
            <Array as="points">
              <mxPoint x="800" y="3840" />
              <mxPoint x="850" y="2860" />
            </Array>
          </mxGeometry>
        </mxCell>
        <mxCell id="UtFDqvq6Qa16x0pZ_KKh-102" value="" style="endArrow=none;html=1;fontSize=30;strokeWidth=2;curved=1;exitX=0.996;exitY=0.22;exitDx=0;exitDy=0;exitPerimeter=0;entryX=0.724;entryY=0.041;entryDx=0;entryDy=0;entryPerimeter=0;" edge="1" parent="1" source="UtFDqvq6Qa16x0pZ_KKh-91" target="UtFDqvq6Qa16x0pZ_KKh-92">
          <mxGeometry width="50" height="50" relative="1" as="geometry">
            <mxPoint x="1840" y="3210" as="sourcePoint" />
            <mxPoint x="1890" y="3160" as="targetPoint" />
          </mxGeometry>
        </mxCell>
        <mxCell id="UtFDqvq6Qa16x0pZ_KKh-103" value="" style="endArrow=none;html=1;fontSize=30;strokeWidth=2;curved=1;entryX=-0.155;entryY=0.72;entryDx=0;entryDy=0;entryPerimeter=0;" edge="1" parent="1" source="UtFDqvq6Qa16x0pZ_KKh-92" target="UtFDqvq6Qa16x0pZ_KKh-93">
          <mxGeometry width="50" height="50" relative="1" as="geometry">
            <mxPoint x="1840" y="3210" as="sourcePoint" />
            <mxPoint x="1890" y="3160" as="targetPoint" />
            <Array as="points">
              <mxPoint x="1720" y="3890" />
              <mxPoint x="1780" y="3740" />
              <mxPoint x="1880" y="3740" />
            </Array>
          </mxGeometry>
        </mxCell>
        <mxCell id="UtFDqvq6Qa16x0pZ_KKh-104" value="" style="endArrow=none;html=1;fontSize=30;strokeWidth=2;curved=1;entryX=0.264;entryY=0.327;entryDx=0;entryDy=0;entryPerimeter=0;" edge="1" parent="1" source="UtFDqvq6Qa16x0pZ_KKh-92" target="UtFDqvq6Qa16x0pZ_KKh-94">
          <mxGeometry width="50" height="50" relative="1" as="geometry">
            <mxPoint x="1980" y="3510" as="sourcePoint" />
            <mxPoint x="2030" y="3460" as="targetPoint" />
            <Array as="points">
              <mxPoint x="1730" y="3910" />
              <mxPoint x="1770" y="4060" />
              <mxPoint x="1900" y="4070" />
            </Array>
          </mxGeometry>
        </mxCell>
        <mxCell id="UtFDqvq6Qa16x0pZ_KKh-105" value="" style="endArrow=none;html=1;fontSize=30;strokeWidth=2;curved=1;exitX=1.045;exitY=0.505;exitDx=0;exitDy=0;exitPerimeter=0;entryX=-0.066;entryY=0.648;entryDx=0;entryDy=0;entryPerimeter=0;" edge="1" parent="1" source="UtFDqvq6Qa16x0pZ_KKh-92" target="UtFDqvq6Qa16x0pZ_KKh-95">
          <mxGeometry width="50" height="50" relative="1" as="geometry">
            <mxPoint x="1980" y="3510" as="sourcePoint" />
            <mxPoint x="2030" y="3460" as="targetPoint" />
            <Array as="points">
              <mxPoint x="1740" y="4020" />
              <mxPoint x="1760" y="4270" />
              <mxPoint x="2050" y="4260" />
            </Array>
          </mxGeometry>
        </mxCell>
        <mxCell id="UtFDqvq6Qa16x0pZ_KKh-106" value="" style="endArrow=none;html=1;fontSize=30;strokeWidth=2;curved=1;" edge="1" parent="1" source="UtFDqvq6Qa16x0pZ_KKh-94">
          <mxGeometry width="50" height="50" relative="1" as="geometry">
            <mxPoint x="2310" y="3510" as="sourcePoint" />
            <mxPoint x="2800" y="4070" as="targetPoint" />
          </mxGeometry>
        </mxCell>
        <mxCell id="UtFDqvq6Qa16x0pZ_KKh-107" value="" style="shape=waypoint;sketch=0;fillStyle=solid;size=6;pointerEvents=1;points=[];fillColor=none;resizable=0;rotatable=0;perimeter=centerPerimeter;snapToPoint=1;fontSize=30;strokeWidth=2;" vertex="1" parent="1">
          <mxGeometry x="2780" y="4050" width="40" height="40" as="geometry" />
        </mxCell>
        <mxCell id="UtFDqvq6Qa16x0pZ_KKh-108" value="" style="shape=waypoint;sketch=0;fillStyle=solid;size=6;pointerEvents=1;points=[];fillColor=none;resizable=0;rotatable=0;perimeter=centerPerimeter;snapToPoint=1;fontSize=30;strokeWidth=2;" vertex="1" parent="1">
          <mxGeometry x="2935" y="3900" width="40" height="40" as="geometry" />
        </mxCell>
        <mxCell id="UtFDqvq6Qa16x0pZ_KKh-109" value="" style="shape=waypoint;sketch=0;fillStyle=solid;size=6;pointerEvents=1;points=[];fillColor=none;resizable=0;rotatable=0;perimeter=centerPerimeter;snapToPoint=1;fontSize=30;strokeWidth=2;" vertex="1" parent="1">
          <mxGeometry x="2935" y="4020" width="40" height="40" as="geometry" />
        </mxCell>
        <mxCell id="UtFDqvq6Qa16x0pZ_KKh-110" value="" style="shape=waypoint;sketch=0;fillStyle=solid;size=6;pointerEvents=1;points=[];fillColor=none;resizable=0;rotatable=0;perimeter=centerPerimeter;snapToPoint=1;fontSize=30;strokeWidth=2;" vertex="1" parent="1">
          <mxGeometry x="2935" y="4110" width="40" height="40" as="geometry" />
        </mxCell>
        <mxCell id="UtFDqvq6Qa16x0pZ_KKh-111" value="" style="shape=waypoint;sketch=0;fillStyle=solid;size=6;pointerEvents=1;points=[];fillColor=none;resizable=0;rotatable=0;perimeter=centerPerimeter;snapToPoint=1;fontSize=30;strokeWidth=2;" vertex="1" parent="1">
          <mxGeometry x="2935" y="4200" width="40" height="40" as="geometry" />
        </mxCell>
        <mxCell id="UtFDqvq6Qa16x0pZ_KKh-112" value="" style="ellipse;whiteSpace=wrap;html=1;aspect=fixed;labelBackgroundColor=none;fontSize=30;fontColor=#000000;strokeWidth=2;fillColor=#FF0000;strokeColor=none;" vertex="1" parent="1">
          <mxGeometry x="2340" y="3350" width="323.5" height="323.5" as="geometry" />
        </mxCell>
        <mxCell id="UtFDqvq6Qa16x0pZ_KKh-113" value="" style="ellipse;whiteSpace=wrap;html=1;strokeWidth=2;fillWeight=2;hachureGap=8;fillColor=#000000;fillStyle=dots;sketch=1;labelBackgroundColor=none;fontSize=30;fontColor=#000000;strokeColor=none;rotation=0;" vertex="1" parent="1">
          <mxGeometry x="2347.44" y="3368.5" width="308.62" height="286.5" as="geometry" />
        </mxCell>
        <mxCell id="UtFDqvq6Qa16x0pZ_KKh-114" value="" style="endArrow=none;html=1;fontSize=30;strokeWidth=2;curved=1;exitX=1.059;exitY=0.398;exitDx=0;exitDy=0;exitPerimeter=0;" edge="1" parent="1" source="UtFDqvq6Qa16x0pZ_KKh-93" target="UtFDqvq6Qa16x0pZ_KKh-96">
          <mxGeometry width="50" height="50" relative="1" as="geometry">
            <mxPoint x="2300" y="3610" as="sourcePoint" />
            <mxPoint x="2350" y="3560" as="targetPoint" />
            <Array as="points">
              <mxPoint x="2050" y="3550" />
              <mxPoint x="2220" y="3540" />
            </Array>
          </mxGeometry>
        </mxCell>
        <mxCell id="UtFDqvq6Qa16x0pZ_KKh-116" value="" style="ellipse;whiteSpace=wrap;html=1;aspect=fixed;labelBackgroundColor=none;fontSize=30;fontColor=#000000;strokeWidth=2;fillColor=#FF0000;strokeColor=none;" vertex="1" parent="1">
          <mxGeometry x="2440" y="3695" width="65" height="65" as="geometry" />
        </mxCell>
        <mxCell id="UtFDqvq6Qa16x0pZ_KKh-117" value="" style="ellipse;whiteSpace=wrap;html=1;strokeWidth=2;fillWeight=2;hachureGap=8;fillColor=#000000;fillStyle=dots;sketch=1;labelBackgroundColor=none;fontSize=30;fontColor=#000000;strokeColor=none;" vertex="1" parent="1">
          <mxGeometry x="2447.5" y="3698.5" width="52.5" height="61.5" as="geometry" />
        </mxCell>
        <mxCell id="UtFDqvq6Qa16x0pZ_KKh-118" value="" style="ellipse;whiteSpace=wrap;html=1;aspect=fixed;labelBackgroundColor=none;fontSize=30;fontColor=#000000;strokeWidth=2;fillColor=#FF0000;strokeColor=none;" vertex="1" parent="1">
          <mxGeometry x="2440" y="3775" width="65" height="65" as="geometry" />
        </mxCell>
        <mxCell id="UtFDqvq6Qa16x0pZ_KKh-119" value="" style="ellipse;whiteSpace=wrap;html=1;strokeWidth=2;fillWeight=2;hachureGap=8;fillColor=#000000;fillStyle=dots;sketch=1;labelBackgroundColor=none;fontSize=30;fontColor=#000000;strokeColor=none;" vertex="1" parent="1">
          <mxGeometry x="2447.5" y="3778.5" width="52.5" height="61.5" as="geometry" />
        </mxCell>
        <mxCell id="UtFDqvq6Qa16x0pZ_KKh-120" value="" style="ellipse;whiteSpace=wrap;html=1;aspect=fixed;labelBackgroundColor=none;fontSize=30;fontColor=#000000;strokeWidth=2;fillColor=#FF0000;strokeColor=none;" vertex="1" parent="1">
          <mxGeometry x="2445" y="3855" width="65" height="65" as="geometry" />
        </mxCell>
        <mxCell id="UtFDqvq6Qa16x0pZ_KKh-121" value="" style="ellipse;whiteSpace=wrap;html=1;strokeWidth=2;fillWeight=2;hachureGap=8;fillColor=#000000;fillStyle=dots;sketch=1;labelBackgroundColor=none;fontSize=30;fontColor=#000000;strokeColor=none;" vertex="1" parent="1">
          <mxGeometry x="2452.5" y="3858.5" width="52.5" height="61.5" as="geometry" />
        </mxCell>
        <mxCell id="UtFDqvq6Qa16x0pZ_KKh-122" value="" style="endArrow=none;html=1;fontSize=30;strokeWidth=2;curved=1;exitX=0.523;exitY=0.755;exitDx=0;exitDy=0;exitPerimeter=0;entryX=0.559;entryY=0.836;entryDx=0;entryDy=0;entryPerimeter=0;" edge="1" parent="1" source="UtFDqvq6Qa16x0pZ_KKh-93" target="UtFDqvq6Qa16x0pZ_KKh-97">
          <mxGeometry width="50" height="50" relative="1" as="geometry">
            <mxPoint x="2300" y="3610" as="sourcePoint" />
            <mxPoint x="2350" y="3560" as="targetPoint" />
          </mxGeometry>
        </mxCell>
        <mxCell id="UtFDqvq6Qa16x0pZ_KKh-123" value="" style="endArrow=none;html=1;fontSize=30;strokeWidth=2;curved=1;entryX=0.604;entryY=0.738;entryDx=0;entryDy=0;entryPerimeter=0;" edge="1" parent="1" source="UtFDqvq6Qa16x0pZ_KKh-93" target="UtFDqvq6Qa16x0pZ_KKh-98">
          <mxGeometry width="50" height="50" relative="1" as="geometry">
            <mxPoint x="2300" y="3610" as="sourcePoint" />
            <mxPoint x="2350" y="3560" as="targetPoint" />
            <Array as="points">
              <mxPoint x="2090" y="3810" />
              <mxPoint x="2310" y="3809" />
            </Array>
          </mxGeometry>
        </mxCell>
        <mxCell id="UtFDqvq6Qa16x0pZ_KKh-124" value="" style="endArrow=none;html=1;fontSize=30;strokeWidth=2;curved=1;exitX=0.523;exitY=0.363;exitDx=0;exitDy=0;exitPerimeter=0;" edge="1" parent="1" source="UtFDqvq6Qa16x0pZ_KKh-93" target="UtFDqvq6Qa16x0pZ_KKh-99">
          <mxGeometry width="50" height="50" relative="1" as="geometry">
            <mxPoint x="2300" y="3610" as="sourcePoint" />
            <mxPoint x="2350" y="3560" as="targetPoint" />
            <Array as="points">
              <mxPoint x="2030" y="3890" />
              <mxPoint x="2130" y="3900" />
            </Array>
          </mxGeometry>
        </mxCell>
        <mxCell id="UtFDqvq6Qa16x0pZ_KKh-127" value="" style="ellipse;whiteSpace=wrap;html=1;aspect=fixed;labelBackgroundColor=none;fontSize=30;fontColor=#000000;strokeWidth=2;fillColor=#FF0000;strokeColor=none;" vertex="1" parent="1">
          <mxGeometry x="2300" y="4207.5" width="105" height="105" as="geometry" />
        </mxCell>
        <mxCell id="UtFDqvq6Qa16x0pZ_KKh-128" value="" style="ellipse;whiteSpace=wrap;html=1;strokeWidth=2;fillWeight=2;hachureGap=8;fillColor=#000000;fillStyle=dots;sketch=1;labelBackgroundColor=none;fontSize=30;fontColor=#000000;strokeColor=none;" vertex="1" parent="1">
          <mxGeometry x="2300" y="4210" width="103.75" height="102.5" as="geometry" />
        </mxCell>
        <mxCell id="UtFDqvq6Qa16x0pZ_KKh-130" value="" style="ellipse;whiteSpace=wrap;html=1;aspect=fixed;labelBackgroundColor=none;fontSize=30;fontColor=#000000;strokeWidth=2;fillColor=#FF0000;strokeColor=none;rotation=-1;" vertex="1" parent="1">
          <mxGeometry x="2961.92" y="3834.92" width="124.25" height="124.25" as="geometry" />
        </mxCell>
        <mxCell id="UtFDqvq6Qa16x0pZ_KKh-131" value="" style="ellipse;whiteSpace=wrap;html=1;strokeWidth=2;fillWeight=2;hachureGap=8;fillColor=#000000;fillStyle=dots;sketch=1;labelBackgroundColor=none;fontSize=30;fontColor=#000000;strokeColor=none;" vertex="1" parent="1">
          <mxGeometry x="2960" y="3841.88" width="126.17" height="123.21" as="geometry" />
        </mxCell>
        <mxCell id="UtFDqvq6Qa16x0pZ_KKh-132" value="" style="ellipse;whiteSpace=wrap;html=1;aspect=fixed;labelBackgroundColor=none;fontSize=30;fontColor=#000000;strokeWidth=2;fillColor=#FF0000;strokeColor=none;rotation=-1;" vertex="1" parent="1">
          <mxGeometry x="2962.96" y="3997.87" width="84.08" height="84.08" as="geometry" />
        </mxCell>
        <mxCell id="UtFDqvq6Qa16x0pZ_KKh-133" value="" style="ellipse;whiteSpace=wrap;html=1;strokeWidth=2;fillWeight=2;hachureGap=8;fillColor=#000000;fillStyle=dots;sketch=1;labelBackgroundColor=none;fontSize=30;fontColor=#000000;strokeColor=none;" vertex="1" parent="1">
          <mxGeometry x="2968.5099999999998" y="4002.61" width="78.53" height="79.52" as="geometry" />
        </mxCell>
        <mxCell id="UtFDqvq6Qa16x0pZ_KKh-134" value="" style="ellipse;whiteSpace=wrap;html=1;aspect=fixed;labelBackgroundColor=none;fontSize=30;fontColor=#000000;strokeWidth=2;fillColor=#FF0000;strokeColor=none;rotation=-1;" vertex="1" parent="1">
          <mxGeometry x="2962.96" y="4095.26" width="64.08" height="64.08" as="geometry" />
        </mxCell>
        <mxCell id="UtFDqvq6Qa16x0pZ_KKh-135" value="" style="ellipse;whiteSpace=wrap;html=1;strokeWidth=2;fillWeight=2;hachureGap=8;fillColor=#000000;fillStyle=dots;sketch=1;labelBackgroundColor=none;fontSize=30;fontColor=#000000;strokeColor=none;" vertex="1" parent="1">
          <mxGeometry x="2965" y="4101.53" width="60" height="63.21" as="geometry" />
        </mxCell>
        <mxCell id="UtFDqvq6Qa16x0pZ_KKh-136" value="" style="ellipse;whiteSpace=wrap;html=1;aspect=fixed;labelBackgroundColor=none;fontSize=30;fontColor=#000000;strokeWidth=2;fillColor=#FF0000;strokeColor=none;rotation=-1;" vertex="1" parent="1">
          <mxGeometry x="2965" y="4183.98" width="72.04" height="72.04" as="geometry" />
        </mxCell>
        <mxCell id="UtFDqvq6Qa16x0pZ_KKh-137" value="" style="ellipse;whiteSpace=wrap;html=1;strokeWidth=2;fillWeight=2;hachureGap=8;fillColor=#000000;fillStyle=dots;sketch=1;labelBackgroundColor=none;fontSize=30;fontColor=#000000;strokeColor=none;" vertex="1" parent="1">
          <mxGeometry x="2968.9" y="4192.45" width="68.14" height="63.21" as="geometry" />
        </mxCell>
        <mxCell id="UtFDqvq6Qa16x0pZ_KKh-138" value="" style="endArrow=none;html=1;fontSize=30;strokeWidth=2;curved=1;exitX=0.707;exitY=0.406;exitDx=0;exitDy=0;exitPerimeter=0;entryX=0.281;entryY=0.564;entryDx=0;entryDy=0;entryPerimeter=0;" edge="1" parent="1" source="UtFDqvq6Qa16x0pZ_KKh-107" target="UtFDqvq6Qa16x0pZ_KKh-108">
          <mxGeometry width="50" height="50" relative="1" as="geometry">
            <mxPoint x="2880" y="4060" as="sourcePoint" />
            <mxPoint x="2930" y="4010" as="targetPoint" />
            <Array as="points">
              <mxPoint x="2840" y="4010" />
              <mxPoint x="2860" y="3920" />
              <mxPoint x="2910" y="3920" />
            </Array>
          </mxGeometry>
        </mxCell>
        <mxCell id="UtFDqvq6Qa16x0pZ_KKh-139" value="" style="endArrow=none;html=1;fontSize=30;strokeWidth=2;curved=1;exitX=0.666;exitY=0.569;exitDx=0;exitDy=0;exitPerimeter=0;entryX=0.322;entryY=0.452;entryDx=0;entryDy=0;entryPerimeter=0;" edge="1" parent="1" source="UtFDqvq6Qa16x0pZ_KKh-107" target="UtFDqvq6Qa16x0pZ_KKh-111">
          <mxGeometry width="50" height="50" relative="1" as="geometry">
            <mxPoint x="2810" y="4080" as="sourcePoint" />
            <mxPoint x="2965" y="3930" as="targetPoint" />
            <Array as="points">
              <mxPoint x="2850" y="4180" />
              <mxPoint x="2890" y="4230" />
            </Array>
          </mxGeometry>
        </mxCell>
        <mxCell id="UtFDqvq6Qa16x0pZ_KKh-140" value="" style="endArrow=none;html=1;fontSize=30;strokeWidth=2;curved=1;exitX=0.75;exitY=0.5;exitDx=0;exitDy=0;exitPerimeter=0;entryX=0.424;entryY=0.702;entryDx=0;entryDy=0;entryPerimeter=0;" edge="1" parent="1" source="UtFDqvq6Qa16x0pZ_KKh-107" target="UtFDqvq6Qa16x0pZ_KKh-110">
          <mxGeometry width="50" height="50" relative="1" as="geometry">
            <mxPoint x="2810" y="4080" as="sourcePoint" />
            <mxPoint x="2965" y="4230" as="targetPoint" />
            <Array as="points">
              <mxPoint x="2870" y="4130" />
              <mxPoint x="2910" y="4140" />
            </Array>
          </mxGeometry>
        </mxCell>
        <mxCell id="UtFDqvq6Qa16x0pZ_KKh-141" value="" style="endArrow=none;html=1;fontSize=30;strokeWidth=2;curved=1;entryX=0.261;entryY=0.993;entryDx=0;entryDy=0;entryPerimeter=0;" edge="1" parent="1" source="UtFDqvq6Qa16x0pZ_KKh-107" target="UtFDqvq6Qa16x0pZ_KKh-109">
          <mxGeometry width="50" height="50" relative="1" as="geometry">
            <mxPoint x="2810" y="4080" as="sourcePoint" />
            <mxPoint x="2965" y="4140" as="targetPoint" />
            <Array as="points">
              <mxPoint x="2850" y="4030" />
              <mxPoint x="2910" y="4020" />
            </Array>
          </mxGeometry>
        </mxCell>
        <mxCell id="UtFDqvq6Qa16x0pZ_KKh-142" value="Iranian" style="text;html=1;align=center;verticalAlign=middle;resizable=0;points=[];autosize=1;strokeColor=none;fillColor=none;fontSize=30;" vertex="1" parent="1">
          <mxGeometry x="790" y="4590" width="110" height="40" as="geometry" />
        </mxCell>
        <mxCell id="UtFDqvq6Qa16x0pZ_KKh-143" value="" style="shape=waypoint;sketch=0;fillStyle=solid;size=6;pointerEvents=1;points=[];fillColor=none;resizable=0;rotatable=0;perimeter=centerPerimeter;snapToPoint=1;fontSize=30;strokeWidth=2;" vertex="1" parent="1">
          <mxGeometry x="795" y="4610" width="40" height="40" as="geometry" />
        </mxCell>
        <mxCell id="UtFDqvq6Qa16x0pZ_KKh-144" value="" style="endArrow=none;html=1;fontSize=30;strokeWidth=2;curved=1;entryX=0.021;entryY=0.711;entryDx=0;entryDy=0;entryPerimeter=0;" edge="1" parent="1" target="EpxnI0TyvXHU5322iV-h-186">
          <mxGeometry width="50" height="50" relative="1" as="geometry">
            <mxPoint x="815" y="4630" as="sourcePoint" />
            <mxPoint x="1110" y="3270" as="targetPoint" />
            <Array as="points">
              <mxPoint x="640" y="4630" />
              <mxPoint x="430" y="4620" />
              <mxPoint x="620" y="2520" />
              <mxPoint x="510" y="2540" />
            </Array>
          </mxGeometry>
        </mxCell>
        <mxCell id="UtFDqvq6Qa16x0pZ_KKh-145" value="Eastern Iranian" style="text;html=1;align=center;verticalAlign=middle;resizable=0;points=[];autosize=1;strokeColor=none;fillColor=none;fontSize=30;" vertex="1" parent="1">
          <mxGeometry x="1120" y="4480" width="220" height="40" as="geometry" />
        </mxCell>
        <mxCell id="UtFDqvq6Qa16x0pZ_KKh-146" value="Western Iranian" style="text;html=1;align=center;verticalAlign=middle;resizable=0;points=[];autosize=1;strokeColor=none;fillColor=none;fontSize=30;" vertex="1" parent="1">
          <mxGeometry x="1105" y="4590" width="230" height="40" as="geometry" />
        </mxCell>
        <mxCell id="UtFDqvq6Qa16x0pZ_KKh-147" value="Kurdish Languages" style="text;html=1;align=center;verticalAlign=middle;resizable=0;points=[];autosize=1;strokeColor=none;fillColor=none;fontSize=30;" vertex="1" parent="1">
          <mxGeometry x="1115" y="4750" width="270" height="40" as="geometry" />
        </mxCell>
        <mxCell id="UtFDqvq6Qa16x0pZ_KKh-148" value="Pashto" style="text;html=1;align=center;verticalAlign=middle;resizable=0;points=[];autosize=1;strokeColor=none;fillColor=none;fontSize=30;" vertex="1" parent="1">
          <mxGeometry x="1605" y="4480" width="110" height="40" as="geometry" />
        </mxCell>
        <mxCell id="UtFDqvq6Qa16x0pZ_KKh-149" value="NORTHERN PASHTO" style="text;html=1;align=center;verticalAlign=middle;resizable=0;points=[];autosize=1;strokeColor=none;fillColor=none;fontSize=30;" vertex="1" parent="1">
          <mxGeometry x="1910" y="4435" width="310" height="40" as="geometry" />
        </mxCell>
        <mxCell id="UtFDqvq6Qa16x0pZ_KKh-150" value="Southwestern Iranian" style="text;html=1;align=center;verticalAlign=middle;resizable=0;points=[];autosize=1;strokeColor=none;fillColor=none;fontSize=30;" vertex="1" parent="1">
          <mxGeometry x="1570" y="4590" width="300" height="40" as="geometry" />
        </mxCell>
        <mxCell id="UtFDqvq6Qa16x0pZ_KKh-151" value="Persian" style="text;html=1;align=center;verticalAlign=middle;resizable=0;points=[];autosize=1;strokeColor=none;fillColor=none;fontSize=30;" vertex="1" parent="1">
          <mxGeometry x="2032.5" y="4590" width="120" height="40" as="geometry" />
        </mxCell>
        <mxCell id="UtFDqvq6Qa16x0pZ_KKh-152" value="WESTERN PERSIAN" style="text;html=1;align=center;verticalAlign=middle;resizable=0;points=[];autosize=1;strokeColor=none;fillColor=none;fontSize=30;" vertex="1" parent="1">
          <mxGeometry x="2315.63" y="4525" width="310" height="40" as="geometry" />
        </mxCell>
        <mxCell id="UtFDqvq6Qa16x0pZ_KKh-153" value="NORTHERN KURDISH" style="text;html=1;align=center;verticalAlign=middle;resizable=0;points=[];autosize=1;strokeColor=none;fillColor=none;fontSize=30;" vertex="1" parent="1">
          <mxGeometry x="1570" y="4770" width="330" height="40" as="geometry" />
        </mxCell>
        <mxCell id="UtFDqvq6Qa16x0pZ_KKh-154" value="" style="shape=waypoint;sketch=0;fillStyle=solid;size=6;pointerEvents=1;points=[];fillColor=none;resizable=0;rotatable=0;perimeter=centerPerimeter;snapToPoint=1;fontSize=30;strokeWidth=2;" vertex="1" parent="1">
          <mxGeometry x="1100" y="4500" width="40" height="40" as="geometry" />
        </mxCell>
        <mxCell id="UtFDqvq6Qa16x0pZ_KKh-155" value="" style="shape=waypoint;sketch=0;fillStyle=solid;size=6;pointerEvents=1;points=[];fillColor=none;resizable=0;rotatable=0;perimeter=centerPerimeter;snapToPoint=1;fontSize=30;strokeWidth=2;" vertex="1" parent="1">
          <mxGeometry x="1100" y="4610" width="40" height="40" as="geometry" />
        </mxCell>
        <mxCell id="UtFDqvq6Qa16x0pZ_KKh-156" value="" style="shape=waypoint;sketch=0;fillStyle=solid;size=6;pointerEvents=1;points=[];fillColor=none;resizable=0;rotatable=0;perimeter=centerPerimeter;snapToPoint=1;fontSize=30;strokeWidth=2;" vertex="1" parent="1">
          <mxGeometry x="1100" y="4720" width="40" height="40" as="geometry" />
        </mxCell>
        <mxCell id="UtFDqvq6Qa16x0pZ_KKh-157" value="" style="shape=waypoint;sketch=0;fillStyle=solid;size=6;pointerEvents=1;points=[];fillColor=none;resizable=0;rotatable=0;perimeter=centerPerimeter;snapToPoint=1;fontSize=30;strokeWidth=2;" vertex="1" parent="1">
          <mxGeometry x="1640" y="4720" width="40" height="40" as="geometry" />
        </mxCell>
        <mxCell id="UtFDqvq6Qa16x0pZ_KKh-158" value="" style="shape=waypoint;sketch=0;fillStyle=solid;size=6;pointerEvents=1;points=[];fillColor=none;resizable=0;rotatable=0;perimeter=centerPerimeter;snapToPoint=1;fontSize=30;strokeWidth=2;" vertex="1" parent="1">
          <mxGeometry x="1630" y="4500" width="40" height="40" as="geometry" />
        </mxCell>
        <mxCell id="UtFDqvq6Qa16x0pZ_KKh-159" value="" style="shape=waypoint;sketch=0;fillStyle=solid;size=6;pointerEvents=1;points=[];fillColor=none;resizable=0;rotatable=0;perimeter=centerPerimeter;snapToPoint=1;fontSize=30;strokeWidth=2;" vertex="1" parent="1">
          <mxGeometry x="2020" y="4500" width="40" height="40" as="geometry" />
        </mxCell>
        <mxCell id="UtFDqvq6Qa16x0pZ_KKh-160" value="" style="shape=waypoint;sketch=0;fillStyle=solid;size=6;pointerEvents=1;points=[];fillColor=none;resizable=0;rotatable=0;perimeter=centerPerimeter;snapToPoint=1;fontSize=30;strokeWidth=2;" vertex="1" parent="1">
          <mxGeometry x="1630" y="4610" width="40" height="40" as="geometry" />
        </mxCell>
        <mxCell id="UtFDqvq6Qa16x0pZ_KKh-161" value="" style="shape=waypoint;sketch=0;fillStyle=solid;size=6;pointerEvents=1;points=[];fillColor=none;resizable=0;rotatable=0;perimeter=centerPerimeter;snapToPoint=1;fontSize=30;strokeWidth=2;" vertex="1" parent="1">
          <mxGeometry x="2024" y="4610" width="40" height="40" as="geometry" />
        </mxCell>
        <mxCell id="UtFDqvq6Qa16x0pZ_KKh-162" value="" style="endArrow=none;html=1;fontSize=30;strokeWidth=2;curved=1;exitX=0.754;exitY=0.993;exitDx=0;exitDy=0;exitPerimeter=0;entryX=0.414;entryY=0.457;entryDx=0;entryDy=0;entryPerimeter=0;" edge="1" parent="1" source="UtFDqvq6Qa16x0pZ_KKh-143" target="UtFDqvq6Qa16x0pZ_KKh-154">
          <mxGeometry width="50" height="50" relative="1" as="geometry">
            <mxPoint x="1380" y="4520" as="sourcePoint" />
            <mxPoint x="1430" y="4470" as="targetPoint" />
            <Array as="points">
              <mxPoint x="1020" y="4630" />
              <mxPoint x="1000" y="4520" />
            </Array>
          </mxGeometry>
        </mxCell>
        <mxCell id="UtFDqvq6Qa16x0pZ_KKh-163" value="" style="endArrow=none;html=1;fontSize=30;strokeWidth=2;curved=1;entryX=0.371;entryY=0.679;entryDx=0;entryDy=0;entryPerimeter=0;" edge="1" parent="1" source="UtFDqvq6Qa16x0pZ_KKh-143" target="UtFDqvq6Qa16x0pZ_KKh-161">
          <mxGeometry width="50" height="50" relative="1" as="geometry">
            <mxPoint x="825" y="4640" as="sourcePoint" />
            <mxPoint x="1130" y="4530" as="targetPoint" />
          </mxGeometry>
        </mxCell>
        <mxCell id="UtFDqvq6Qa16x0pZ_KKh-164" value="" style="endArrow=none;html=1;fontSize=30;strokeWidth=2;curved=1;exitX=0.439;exitY=0.821;exitDx=0;exitDy=0;exitPerimeter=0;entryX=0.643;entryY=0.671;entryDx=0;entryDy=0;entryPerimeter=0;" edge="1" parent="1" source="UtFDqvq6Qa16x0pZ_KKh-143" target="UtFDqvq6Qa16x0pZ_KKh-156">
          <mxGeometry width="50" height="50" relative="1" as="geometry">
            <mxPoint x="1380" y="4520" as="sourcePoint" />
            <mxPoint x="1430" y="4470" as="targetPoint" />
            <Array as="points">
              <mxPoint x="1000" y="4640" />
              <mxPoint x="1020" y="4750" />
            </Array>
          </mxGeometry>
        </mxCell>
        <mxCell id="UtFDqvq6Qa16x0pZ_KKh-165" value="" style="endArrow=none;html=1;fontSize=30;strokeWidth=2;curved=1;entryX=0.414;entryY=0.571;entryDx=0;entryDy=0;entryPerimeter=0;" edge="1" parent="1" source="UtFDqvq6Qa16x0pZ_KKh-154" target="UtFDqvq6Qa16x0pZ_KKh-159">
          <mxGeometry width="50" height="50" relative="1" as="geometry">
            <mxPoint x="1650" y="4520" as="sourcePoint" />
            <mxPoint x="1700" y="4470" as="targetPoint" />
          </mxGeometry>
        </mxCell>
        <mxCell id="UtFDqvq6Qa16x0pZ_KKh-166" value="" style="endArrow=none;html=1;fontSize=30;strokeWidth=2;curved=1;" edge="1" parent="1" source="UtFDqvq6Qa16x0pZ_KKh-156">
          <mxGeometry width="50" height="50" relative="1" as="geometry">
            <mxPoint x="1650" y="4520" as="sourcePoint" />
            <mxPoint x="1660" y="4740" as="targetPoint" />
          </mxGeometry>
        </mxCell>
        <mxCell id="UtFDqvq6Qa16x0pZ_KKh-168" value="" style="ellipse;whiteSpace=wrap;html=1;aspect=fixed;labelBackgroundColor=none;fontSize=30;fontColor=#000000;strokeWidth=2;fillColor=#FF0000;strokeColor=none;" vertex="1" parent="1">
          <mxGeometry x="2050" y="4475" width="90" height="90" as="geometry" />
        </mxCell>
        <mxCell id="UtFDqvq6Qa16x0pZ_KKh-169" value="" style="ellipse;whiteSpace=wrap;html=1;strokeWidth=2;fillWeight=2;hachureGap=8;fillColor=#000000;fillStyle=dots;sketch=1;labelBackgroundColor=none;fontSize=30;fontColor=#000000;strokeColor=none;" vertex="1" parent="1">
          <mxGeometry x="2050" y="4475" width="84.37" height="90" as="geometry" />
        </mxCell>
        <mxCell id="UtFDqvq6Qa16x0pZ_KKh-171" value="" style="ellipse;whiteSpace=wrap;html=1;aspect=fixed;labelBackgroundColor=none;fontSize=30;fontColor=#000000;strokeWidth=2;fillColor=#FF0000;strokeColor=none;" vertex="1" parent="1">
          <mxGeometry x="2404.38" y="4560" width="140" height="140" as="geometry" />
        </mxCell>
        <mxCell id="UtFDqvq6Qa16x0pZ_KKh-172" value="" style="ellipse;whiteSpace=wrap;html=1;strokeWidth=2;fillWeight=2;hachureGap=8;fillColor=#000000;fillStyle=dots;sketch=1;labelBackgroundColor=none;fontSize=30;fontColor=#000000;strokeColor=none;" vertex="1" parent="1">
          <mxGeometry x="2403.13" y="4570" width="135" height="130" as="geometry" />
        </mxCell>
        <mxCell id="UtFDqvq6Qa16x0pZ_KKh-173" value="" style="shape=waypoint;sketch=0;fillStyle=solid;size=6;pointerEvents=1;points=[];fillColor=none;resizable=0;rotatable=0;perimeter=centerPerimeter;snapToPoint=1;fontSize=30;strokeWidth=2;" vertex="1" parent="1">
          <mxGeometry x="2365" y="4610" width="40" height="40" as="geometry" />
        </mxCell>
        <mxCell id="UtFDqvq6Qa16x0pZ_KKh-174" value="" style="endArrow=none;html=1;fontSize=30;strokeWidth=2;curved=1;" edge="1" parent="1" source="UtFDqvq6Qa16x0pZ_KKh-161" target="UtFDqvq6Qa16x0pZ_KKh-173">
          <mxGeometry width="50" height="50" relative="1" as="geometry">
            <mxPoint x="2380" y="4670" as="sourcePoint" />
            <mxPoint x="2430" y="4620" as="targetPoint" />
          </mxGeometry>
        </mxCell>
        <mxCell id="UtFDqvq6Qa16x0pZ_KKh-176" value="" style="ellipse;whiteSpace=wrap;html=1;aspect=fixed;labelBackgroundColor=none;fontSize=30;fontColor=#000000;strokeWidth=2;fillColor=#FF0000;strokeColor=none;" vertex="1" parent="1">
          <mxGeometry x="1670" y="4705" width="70" height="70" as="geometry" />
        </mxCell>
        <mxCell id="UtFDqvq6Qa16x0pZ_KKh-177" value="" style="ellipse;whiteSpace=wrap;html=1;strokeWidth=2;fillWeight=2;hachureGap=8;fillColor=#000000;fillStyle=dots;sketch=1;labelBackgroundColor=none;fontSize=30;fontColor=#000000;strokeColor=none;" vertex="1" parent="1">
          <mxGeometry x="1673.9099999999999" y="4705" width="62.18" height="70" as="geometry" />
        </mxCell>
        <mxCell id="UtFDqvq6Qa16x0pZ_KKh-178" value="Slavic" style="text;html=1;align=center;verticalAlign=middle;resizable=0;points=[];autosize=1;strokeColor=none;fillColor=none;fontSize=30;" vertex="1" parent="1">
          <mxGeometry x="490" y="5110" width="100" height="40" as="geometry" />
        </mxCell>
        <mxCell id="UtFDqvq6Qa16x0pZ_KKh-179" value="East Slavic" style="text;html=1;align=center;verticalAlign=middle;resizable=0;points=[];autosize=1;strokeColor=none;fillColor=none;fontSize=30;" vertex="1" parent="1">
          <mxGeometry x="755" y="4990" width="160" height="40" as="geometry" />
        </mxCell>
        <mxCell id="UtFDqvq6Qa16x0pZ_KKh-180" value="West Slavic" style="text;html=1;align=center;verticalAlign=middle;resizable=0;points=[];autosize=1;strokeColor=none;fillColor=none;fontSize=30;" vertex="1" parent="1">
          <mxGeometry x="750" y="5210" width="170" height="40" as="geometry" />
        </mxCell>
        <mxCell id="UtFDqvq6Qa16x0pZ_KKh-181" value="" style="endArrow=none;html=1;fontSize=30;strokeWidth=2;curved=1;exitX=0.659;exitY=0.041;exitDx=0;exitDy=0;exitPerimeter=0;entryX=1;entryY=0.25;entryDx=0;entryDy=0;" edge="1" parent="1" source="EpxnI0TyvXHU5322iV-h-188" target="EpxnI0TyvXHU5322iV-h-16">
          <mxGeometry width="50" height="50" relative="1" as="geometry">
            <mxPoint x="250" y="4020" as="sourcePoint" />
            <mxPoint x="300" y="3970" as="targetPoint" />
            <Array as="points">
              <mxPoint x="-50" y="4890" />
              <mxPoint x="61" y="2910" />
            </Array>
          </mxGeometry>
        </mxCell>
        <mxCell id="UtFDqvq6Qa16x0pZ_KKh-183" value="" style="shape=waypoint;sketch=0;fillStyle=solid;size=6;pointerEvents=1;points=[];fillColor=none;resizable=0;rotatable=0;perimeter=centerPerimeter;snapToPoint=1;fontSize=30;strokeWidth=2;" vertex="1" parent="1">
          <mxGeometry x="560" y="5090" width="40" height="40" as="geometry" />
        </mxCell>
        <mxCell id="UtFDqvq6Qa16x0pZ_KKh-184" value="" style="shape=waypoint;sketch=0;fillStyle=solid;size=6;pointerEvents=1;points=[];fillColor=none;resizable=0;rotatable=0;perimeter=centerPerimeter;snapToPoint=1;fontSize=30;strokeWidth=2;" vertex="1" parent="1">
          <mxGeometry x="900" y="5020" width="40" height="40" as="geometry" />
        </mxCell>
        <mxCell id="UtFDqvq6Qa16x0pZ_KKh-185" value="" style="shape=waypoint;sketch=0;fillStyle=solid;size=6;pointerEvents=1;points=[];fillColor=none;resizable=0;rotatable=0;perimeter=centerPerimeter;snapToPoint=1;fontSize=30;strokeWidth=2;" vertex="1" parent="1">
          <mxGeometry x="900" y="5180" width="40" height="40" as="geometry" />
        </mxCell>
        <mxCell id="UtFDqvq6Qa16x0pZ_KKh-187" value="" style="shape=waypoint;sketch=0;fillStyle=solid;size=6;pointerEvents=1;points=[];fillColor=none;resizable=0;rotatable=0;perimeter=centerPerimeter;snapToPoint=1;fontSize=30;strokeWidth=2;" vertex="1" parent="1">
          <mxGeometry x="1545" y="4950" width="40" height="40" as="geometry" />
        </mxCell>
        <mxCell id="UtFDqvq6Qa16x0pZ_KKh-188" value="" style="shape=waypoint;sketch=0;fillStyle=solid;size=6;pointerEvents=1;points=[];fillColor=none;resizable=0;rotatable=0;perimeter=centerPerimeter;snapToPoint=1;fontSize=30;strokeWidth=2;" vertex="1" parent="1">
          <mxGeometry x="1200" y="5140" width="40" height="40" as="geometry" />
        </mxCell>
        <mxCell id="UtFDqvq6Qa16x0pZ_KKh-189" value="" style="shape=waypoint;sketch=0;fillStyle=solid;size=6;pointerEvents=1;points=[];fillColor=none;resizable=0;rotatable=0;perimeter=centerPerimeter;snapToPoint=1;fontSize=30;strokeWidth=2;" vertex="1" parent="1">
          <mxGeometry x="1206" y="5260" width="40" height="40" as="geometry" />
        </mxCell>
        <mxCell id="UtFDqvq6Qa16x0pZ_KKh-190" value="RUSSIAN" style="text;html=1;align=center;verticalAlign=middle;resizable=0;points=[];autosize=1;strokeColor=none;fillColor=none;fontSize=30;" vertex="1" parent="1">
          <mxGeometry x="1415" y="4930" width="150" height="40" as="geometry" />
        </mxCell>
        <mxCell id="UtFDqvq6Qa16x0pZ_KKh-191" value="UKRAINIAN" style="text;html=1;align=center;verticalAlign=middle;resizable=0;points=[];autosize=1;strokeColor=none;fillColor=none;fontSize=30;" vertex="1" parent="1">
          <mxGeometry x="1355" y="5000" width="180" height="40" as="geometry" />
        </mxCell>
        <mxCell id="UtFDqvq6Qa16x0pZ_KKh-192" value="" style="shape=waypoint;sketch=0;fillStyle=solid;size=6;pointerEvents=1;points=[];fillColor=none;resizable=0;rotatable=0;perimeter=centerPerimeter;snapToPoint=1;fontSize=30;strokeWidth=2;" vertex="1" parent="1">
          <mxGeometry x="1270" y="5060" width="40" height="40" as="geometry" />
        </mxCell>
        <mxCell id="UtFDqvq6Qa16x0pZ_KKh-193" value="Ruthenian" style="text;html=1;align=center;verticalAlign=middle;resizable=0;points=[];autosize=1;strokeColor=none;fillColor=none;fontSize=30;" vertex="1" parent="1">
          <mxGeometry x="1225" y="5080" width="150" height="40" as="geometry" />
        </mxCell>
        <mxCell id="UtFDqvq6Qa16x0pZ_KKh-194" value="" style="endArrow=none;html=1;fontSize=30;strokeWidth=2;curved=1;exitX=1.038;exitY=0.432;exitDx=0;exitDy=0;exitPerimeter=0;entryX=0.514;entryY=0.373;entryDx=0;entryDy=0;entryPerimeter=0;" edge="1" parent="1" source="EpxnI0TyvXHU5322iV-h-188" target="UtFDqvq6Qa16x0pZ_KKh-183">
          <mxGeometry width="50" height="50" relative="1" as="geometry">
            <mxPoint x="730" y="5120" as="sourcePoint" />
            <mxPoint x="780" y="5070" as="targetPoint" />
            <Array as="points">
              <mxPoint x="500" y="4940" />
              <mxPoint x="480" y="5110" />
              <mxPoint x="510" y="5110" />
            </Array>
          </mxGeometry>
        </mxCell>
        <mxCell id="UtFDqvq6Qa16x0pZ_KKh-195" value="" style="endArrow=none;html=1;fontSize=30;strokeWidth=2;curved=1;" edge="1" parent="1" source="UtFDqvq6Qa16x0pZ_KKh-183" target="UtFDqvq6Qa16x0pZ_KKh-184">
          <mxGeometry width="50" height="50" relative="1" as="geometry">
            <mxPoint x="1040" y="5120" as="sourcePoint" />
            <mxPoint x="1090" y="5070" as="targetPoint" />
            <Array as="points">
              <mxPoint x="690" y="5040" />
              <mxPoint x="810" y="5040" />
            </Array>
          </mxGeometry>
        </mxCell>
        <mxCell id="UtFDqvq6Qa16x0pZ_KKh-196" value="" style="endArrow=none;html=1;fontSize=30;strokeWidth=2;curved=1;exitX=0.395;exitY=0.73;exitDx=0;exitDy=0;exitPerimeter=0;entryX=0.348;entryY=0.337;entryDx=0;entryDy=0;entryPerimeter=0;" edge="1" parent="1" source="UtFDqvq6Qa16x0pZ_KKh-183" target="UtFDqvq6Qa16x0pZ_KKh-185">
          <mxGeometry width="50" height="50" relative="1" as="geometry">
            <mxPoint x="590" y="5120" as="sourcePoint" />
            <mxPoint x="930" y="5050" as="targetPoint" />
            <Array as="points">
              <mxPoint x="700" y="5200" />
              <mxPoint x="770" y="5200" />
            </Array>
          </mxGeometry>
        </mxCell>
        <mxCell id="UtFDqvq6Qa16x0pZ_KKh-198" value="" style="endArrow=none;html=1;fontSize=30;strokeWidth=2;curved=1;" edge="1" parent="1" source="UtFDqvq6Qa16x0pZ_KKh-184" target="UtFDqvq6Qa16x0pZ_KKh-187">
          <mxGeometry width="50" height="50" relative="1" as="geometry">
            <mxPoint x="1260" y="5120" as="sourcePoint" />
            <mxPoint x="1310" y="5070" as="targetPoint" />
            <Array as="points">
              <mxPoint x="1080" y="5020" />
              <mxPoint x="1140" y="4970" />
              <mxPoint x="1520" y="4970" />
            </Array>
          </mxGeometry>
        </mxCell>
        <mxCell id="UtFDqvq6Qa16x0pZ_KKh-199" value="" style="endArrow=none;html=1;fontSize=30;strokeWidth=2;curved=1;exitX=1.014;exitY=0.813;exitDx=0;exitDy=0;exitPerimeter=0;entryX=-0.093;entryY=0.765;entryDx=0;entryDy=0;entryPerimeter=0;" edge="1" parent="1" source="UtFDqvq6Qa16x0pZ_KKh-184" target="UtFDqvq6Qa16x0pZ_KKh-192">
          <mxGeometry width="50" height="50" relative="1" as="geometry">
            <mxPoint x="1260" y="5120" as="sourcePoint" />
            <mxPoint x="1150" y="5150" as="targetPoint" />
            <Array as="points">
              <mxPoint x="1060" y="5040" />
              <mxPoint x="1140" y="5080" />
              <mxPoint x="1210" y="5080" />
            </Array>
          </mxGeometry>
        </mxCell>
        <mxCell id="UtFDqvq6Qa16x0pZ_KKh-200" value="" style="endArrow=none;html=1;fontSize=30;strokeWidth=2;curved=1;entryX=-0.051;entryY=0.551;entryDx=0;entryDy=0;entryPerimeter=0;" edge="1" parent="1" source="UtFDqvq6Qa16x0pZ_KKh-192">
          <mxGeometry width="50" height="50" relative="1" as="geometry">
            <mxPoint x="1260" y="5120" as="sourcePoint" />
            <mxPoint x="1417.5" y="5080" as="targetPoint" />
          </mxGeometry>
        </mxCell>
        <mxCell id="UtFDqvq6Qa16x0pZ_KKh-201" value="" style="endArrow=none;html=1;fontSize=30;strokeWidth=2;curved=1;exitX=0.729;exitY=0.48;exitDx=0;exitDy=0;exitPerimeter=0;entryX=0.467;entryY=0.694;entryDx=0;entryDy=0;entryPerimeter=0;" edge="1" parent="1" source="UtFDqvq6Qa16x0pZ_KKh-185" target="UtFDqvq6Qa16x0pZ_KKh-188">
          <mxGeometry width="50" height="50" relative="1" as="geometry">
            <mxPoint x="1270" y="5120" as="sourcePoint" />
            <mxPoint x="1240" y="5160" as="targetPoint" />
            <Array as="points">
              <mxPoint x="1110" y="5210" />
              <mxPoint x="1170" y="5160" />
            </Array>
          </mxGeometry>
        </mxCell>
        <mxCell id="UtFDqvq6Qa16x0pZ_KKh-203" value="POLISH" style="text;html=1;align=center;verticalAlign=middle;resizable=0;points=[];autosize=1;strokeColor=none;fillColor=none;fontSize=30;" vertex="1" parent="1">
          <mxGeometry x="1535" y="5140" width="130" height="40" as="geometry" />
        </mxCell>
        <mxCell id="UtFDqvq6Qa16x0pZ_KKh-204" value="CZECH" style="text;html=1;align=center;verticalAlign=middle;resizable=0;points=[];autosize=1;strokeColor=none;fillColor=none;fontSize=30;" vertex="1" parent="1">
          <mxGeometry x="1488.5" y="5263.13" width="120" height="40" as="geometry" />
        </mxCell>
        <mxCell id="UtFDqvq6Qa16x0pZ_KKh-210" value="" style="shape=waypoint;sketch=0;fillStyle=solid;size=6;pointerEvents=1;points=[];fillColor=none;resizable=0;rotatable=0;perimeter=centerPerimeter;snapToPoint=1;fontSize=30;strokeWidth=2;" vertex="1" parent="1">
          <mxGeometry x="1425" y="5260" width="40" height="40" as="geometry" />
        </mxCell>
        <mxCell id="UtFDqvq6Qa16x0pZ_KKh-212" value="" style="endArrow=none;html=1;fontSize=30;strokeWidth=2;curved=1;entryX=0.389;entryY=0.599;entryDx=0;entryDy=0;entryPerimeter=0;" edge="1" parent="1" source="UtFDqvq6Qa16x0pZ_KKh-185" target="UtFDqvq6Qa16x0pZ_KKh-210">
          <mxGeometry width="50" height="50" relative="1" as="geometry">
            <mxPoint x="1190" y="5280" as="sourcePoint" />
            <mxPoint x="1430" y="5280" as="targetPoint" />
            <Array as="points">
              <mxPoint x="1090" y="5240" />
              <mxPoint x="1130" y="5280" />
              <mxPoint x="1280" y="5280" />
            </Array>
          </mxGeometry>
        </mxCell>
        <mxCell id="UtFDqvq6Qa16x0pZ_KKh-214" value="" style="ellipse;whiteSpace=wrap;html=1;aspect=fixed;labelBackgroundColor=none;fontSize=30;fontColor=#000000;strokeWidth=2;fillColor=#FF0000;strokeColor=none;" vertex="1" parent="1">
          <mxGeometry x="1570" y="4828" width="245" height="245" as="geometry" />
        </mxCell>
        <mxCell id="UtFDqvq6Qa16x0pZ_KKh-215" value="" style="ellipse;whiteSpace=wrap;html=1;strokeWidth=2;fillWeight=2;hachureGap=8;fillColor=#000000;fillStyle=dots;sketch=1;labelBackgroundColor=none;fontSize=30;fontColor=#000000;strokeColor=none;" vertex="1" parent="1">
          <mxGeometry x="1580.4099999999999" y="4850.5" width="232.18" height="210" as="geometry" />
        </mxCell>
        <mxCell id="UtFDqvq6Qa16x0pZ_KKh-209" value="" style="shape=waypoint;sketch=0;fillStyle=solid;size=6;pointerEvents=1;points=[];fillColor=none;resizable=0;rotatable=0;perimeter=centerPerimeter;snapToPoint=1;fontSize=30;strokeWidth=2;" vertex="1" parent="1">
          <mxGeometry x="1423" y="5140" width="40" height="40" as="geometry" />
        </mxCell>
        <mxCell id="UtFDqvq6Qa16x0pZ_KKh-217" value="" style="endArrow=none;html=1;fontSize=30;strokeWidth=2;curved=1;exitX=0.532;exitY=0.718;exitDx=0;exitDy=0;exitPerimeter=0;" edge="1" parent="1" source="UtFDqvq6Qa16x0pZ_KKh-188" target="UtFDqvq6Qa16x0pZ_KKh-209">
          <mxGeometry width="50" height="50" relative="1" as="geometry">
            <mxPoint x="1365" y="5160" as="sourcePoint" />
            <mxPoint x="1439.9999999999995" y="5160" as="targetPoint" />
          </mxGeometry>
        </mxCell>
        <mxCell id="UtFDqvq6Qa16x0pZ_KKh-220" value="" style="shape=waypoint;sketch=0;fillStyle=solid;size=6;pointerEvents=1;points=[];fillColor=none;resizable=0;rotatable=0;perimeter=centerPerimeter;snapToPoint=1;fontSize=30;strokeWidth=2;" vertex="1" parent="1">
          <mxGeometry x="1425" y="5140" width="40" height="40" as="geometry" />
        </mxCell>
        <mxCell id="UtFDqvq6Qa16x0pZ_KKh-221" value="" style="ellipse;whiteSpace=wrap;html=1;aspect=fixed;labelBackgroundColor=none;fontSize=30;fontColor=#000000;strokeWidth=2;fillColor=#FF0000;strokeColor=none;" vertex="1" parent="1">
          <mxGeometry x="1450" y="5110" width="87.5" height="87.5" as="geometry" />
        </mxCell>
        <mxCell id="UtFDqvq6Qa16x0pZ_KKh-222" value="" style="ellipse;whiteSpace=wrap;html=1;strokeWidth=2;fillWeight=2;hachureGap=8;fillColor=#000000;fillStyle=dots;sketch=1;labelBackgroundColor=none;fontSize=30;fontColor=#000000;strokeColor=none;" vertex="1" parent="1">
          <mxGeometry x="1450" y="5117.5" width="82.5" height="80" as="geometry" />
        </mxCell>
        <mxCell id="UtFDqvq6Qa16x0pZ_KKh-225" value="" style="endArrow=none;html=1;fontSize=30;strokeWidth=2;curved=1;exitDx=0;exitDy=0;exitPerimeter=0;startArrow=none;" edge="1" parent="1">
          <mxGeometry width="50" height="50" relative="1" as="geometry">
            <mxPoint x="1422" y="5077.5" as="sourcePoint" />
            <mxPoint x="1418.9999999999995" y="5077.5" as="targetPoint" />
          </mxGeometry>
        </mxCell>
        <mxCell id="UtFDqvq6Qa16x0pZ_KKh-226" value="" style="ellipse;whiteSpace=wrap;html=1;aspect=fixed;labelBackgroundColor=none;fontSize=30;fontColor=#000000;strokeWidth=2;fillColor=#FF0000;strokeColor=none;" vertex="1" parent="1">
          <mxGeometry x="1426.5" y="5031.25" width="66.25" height="66.25" as="geometry" />
        </mxCell>
        <mxCell id="UtFDqvq6Qa16x0pZ_KKh-227" value="" style="ellipse;whiteSpace=wrap;html=1;strokeWidth=2;fillWeight=2;hachureGap=8;fillColor=#000000;fillStyle=dots;sketch=1;labelBackgroundColor=none;fontSize=30;fontColor=#000000;strokeColor=none;" vertex="1" parent="1">
          <mxGeometry x="1427.5" y="5031.25" width="62.5" height="68.75" as="geometry" />
        </mxCell>
        <mxCell id="UtFDqvq6Qa16x0pZ_KKh-228" value="" style="shape=waypoint;sketch=0;fillStyle=solid;size=6;pointerEvents=1;points=[];fillColor=none;resizable=0;rotatable=0;perimeter=centerPerimeter;snapToPoint=1;fontSize=30;strokeWidth=2;" vertex="1" parent="1">
          <mxGeometry x="1400" y="5060.5" width="40" height="40" as="geometry" />
        </mxCell>
        <mxCell id="UtFDqvq6Qa16x0pZ_KKh-231" value="" style="ellipse;whiteSpace=wrap;html=1;aspect=fixed;labelBackgroundColor=none;fontSize=30;fontColor=#000000;strokeWidth=2;fillColor=#FF0000;strokeColor=none;" vertex="1" parent="1">
          <mxGeometry x="1448.75" y="5256.88" width="46.25" height="46.25" as="geometry" />
        </mxCell>
        <mxCell id="UtFDqvq6Qa16x0pZ_KKh-232" value="" style="ellipse;whiteSpace=wrap;html=1;strokeWidth=2;fillWeight=2;hachureGap=8;fillColor=#000000;fillStyle=dots;sketch=1;labelBackgroundColor=none;fontSize=30;fontColor=#000000;strokeColor=none;" vertex="1" parent="1">
          <mxGeometry x="1455.75" y="5261.88" width="38.37" height="36.25" as="geometry" />
        </mxCell>
        <mxCell id="UtFDqvq6Qa16x0pZ_KKh-235" value="Czech-Slovak" style="text;html=1;align=center;verticalAlign=middle;resizable=0;points=[];autosize=1;strokeColor=none;fillColor=none;fontSize=30;" vertex="1" parent="1">
          <mxGeometry x="1140" y="5280" width="200" height="40" as="geometry" />
        </mxCell>
        <mxCell id="UtFDqvq6Qa16x0pZ_KKh-236" value="Lechitic" style="text;html=1;align=center;verticalAlign=middle;resizable=0;points=[];autosize=1;strokeColor=none;fillColor=none;fontSize=30;" vertex="1" parent="1">
          <mxGeometry x="1175" y="5157.5" width="120" height="40" as="geometry" />
        </mxCell>
      </root>
    </mxGraphModel>
  </diagram>
</mxfile>
